<svg width="83" height="31" viewBox="0 0 83 31" fill="none" xmlns="http://www.w3.org/2000/svg">
<g clip-path="url(#clip0)">
<path d="M28.0737 1.96863C29.5379 3.37322 29.6738 5.80085 29.6738 7.64184C29.6738 9.48283 29.5069 11.9343 28.0737 13.3127C26.5522 14.7912 24.1222 14.7912 22.4935 14.7912C20.8647 14.7912 18.4395 14.7912 16.9133 13.3127C15.2988 11.7602 15.2988 9.21097 15.2988 7.64184C15.2988 5.73407 15.4038 3.40184 16.9133 1.96863C18.4657 0.490115 20.7884 0.490112 22.4935 0.490112C24.1985 0.490112 26.5355 0.490115 28.0737 1.96863ZM18.8878 11.548C19.7034 12.6044 21.034 12.7093 22.4935 12.7093C23.9529 12.7093 25.2693 12.6044 26.1135 11.548C26.5666 10.9756 26.9743 9.90492 26.9743 7.65614C26.9743 5.24282 26.5522 4.27702 26.1135 3.73331C25.3003 2.70789 23.9124 2.58865 22.4935 2.58865C21.0293 2.58865 19.7177 2.70789 18.8878 3.73331C18.3441 4.41295 18.0293 5.51468 18.0293 7.65614C18.0293 9.93353 18.4204 10.9756 18.8878 11.548Z" fill="white"/>
<path d="M30.6689 0.761841H44.1997V3.08454H38.5575L38.5742 14.927H36.2801L36.2658 3.08454H30.6689V0.761841Z" fill="white"/>
<path d="M13.5346 7.65607C13.5346 13.222 11.7079 14.8507 6.58078 14.8507C4.13646 14.8507 2.09993 14.7768 0.244629 14.6552V0.699886C2.11423 0.592574 4.09115 0.501955 6.58078 0.501955C11.7079 0.461415 13.5346 2.09017 13.5346 7.65607ZM10.878 7.61553C10.878 3.82862 9.83828 2.75789 6.56409 2.75789H2.76287V12.4422C3.89561 12.4589 5.16188 12.4875 6.54978 12.4875C9.83828 12.4684 10.878 11.3977 10.878 7.61553Z" fill="white"/>
<path d="M27.6067 30.449V19.9038L35.2997 29.9816C35.2997 29.9816 35.7218 30.5396 37.0358 30.4585C38.2567 30.3822 38.6049 29.3258 38.5882 28.6939V16.3149H36.2536L36.3585 27.046L28.9063 17.0446C28.9063 17.0446 28.4699 16.2886 27.2776 16.3053C25.9517 16.3053 25.1504 17.2592 25.1313 18.1296V30.4538L27.6067 30.449Z" fill="white"/>
<path d="M39.7952 23.4046V28.6224C39.7952 28.6224 39.645 30.5301 42.1346 30.4777C44.6242 30.4252 52.3888 30.4777 52.3888 30.4777V28.0643H42.4804V24.5946H52.1336V22.2433L42.4804 22.2576V18.6376H52.3912V16.3292H41.6958C41.6958 16.3292 39.8262 16.4508 39.8119 18.2608C39.7976 20.0708 39.7952 23.4046 39.7952 23.4046Z" fill="white"/>
<path d="M53.7334 16.3151H56.8407L60.8517 21.4589L64.9415 16.3151H67.9868L62.4519 23.4954L67.8818 30.4492L64.7292 30.4778L60.8517 25.4413L56.9766 30.4778L53.7334 30.4492L59.1944 23.4048L53.7334 16.3151Z" fill="white"/>
<path d="M69.2104 16.3151H82.7555V18.6378H77.099L77.1133 30.4778H74.8217L74.8073 18.6378H69.2104V16.3151Z" fill="white"/>
</g>
<defs>
<clipPath id="clip0">
<rect width="83" height="30.9701" fill="white"/>
</clipPath>
</defs>
</svg>
