<svg width="16" height="16" viewBox="0 0 16 16" fill="none" xmlns="http://www.w3.org/2000/svg">
<g clip-path="url(#clip0)">
<path d="M8.0319 0C5.3335 0 2.89209 2.18153 2.89209 4.87636C2.89209 7.57118 5.12148 10.7857 8.0319 15.399C10.9423 10.7857 13.1717 7.57118 13.1717 4.87636C13.1717 2.18153 10.7303 0 8.0319 0ZM8.0319 8.56571C6.13017 8.56571 4.59465 7.03222 4.59465 5.13301C4.59465 3.23379 6.13017 1.70031 8.0319 1.70031C9.93363 1.70031 11.4691 3.23379 11.4691 5.13301C11.4691 7.03222 9.93363 8.56571 8.0319 8.56571Z" fill="black"/>
<path d="M8.03182 6.8462C8.97921 6.8462 9.74723 6.0792 9.74723 5.13306C9.74723 4.18692 8.97921 3.41992 8.03182 3.41992C7.08442 3.41992 6.31641 4.18692 6.31641 5.13306C6.31641 6.0792 7.08442 6.8462 8.03182 6.8462Z" fill="black"/>
</g>
<defs>
<clipPath id="clip0">
<rect width="15.4194" height="15.399" fill="white" transform="translate(0.322266)"/>
</clipPath>
</defs>
</svg>
