<svg width="461" height="208" viewBox="0 0 461 208" fill="none" xmlns="http://www.w3.org/2000/svg">
<path d="M230.5 208C357.802 208 461 177.555 461 140C461 102.445 357.802 72 230.5 72C103.198 72 0 102.445 0 140C0 177.555 103.198 208 230.5 208Z" fill="white"/>
<path d="M270.822 157.772C201.96 172.582 -70.6445 132.394 231.38 118.695L270.822 157.772Z" fill="black"/>
<path d="M196.776 65.0093C196.776 65.0093 201.429 71.546 198.618 74.3735C195.807 77.2011 181.368 96.5293 182.628 113.9C183.888 131.269 208.213 159.163 255.401 158.916C302.59 158.671 338.104 130.048 342.978 93.5938C347.852 57.1393 334.222 52.2453 328.14 50.5327C328.14 50.5327 325.957 71.9551 293.6 68.8817C261.242 65.8084 260.459 69.8906 260.459 69.8906C260.459 69.8906 261.66 66.1814 259.858 65.3188" fill="#FFCC00"/>
<path d="M231.235 79.6406C253.099 79.6406 270.824 61.8123 270.824 39.8202C270.824 17.8281 253.099 0 231.235 0C209.37 0 191.645 17.8281 191.645 39.8202C191.645 61.8123 209.37 79.6406 231.235 79.6406Z" fill="#FFCC00"/>
<path d="M270.822 39.8202C270.823 48.832 267.785 57.5775 262.205 64.6279C256.624 71.6783 248.832 76.6166 240.1 78.6358C239.691 76.8279 240.403 74.5344 240.403 74.5344C240.403 74.5344 237.63 73.4556 220.879 72.5547C217.426 72.3436 213.964 72.7873 210.674 73.8626C209.2 72.9601 207.788 71.961 206.445 70.8719C205.825 68.6399 206.544 70.8167 213.586 69.4369C220.755 68.038 211.062 64.0108 207.549 65.0431C204.036 66.0753 201.579 61.8913 201.855 61.2406C202.131 60.5898 202.179 59.0235 201.147 57.6118C200.093 53.9577 196.471 51.9251 195.718 48.2709C195.238 45.9203 194.062 38.2433 191.938 34.9558C192.752 28.2191 195.273 21.8056 199.261 16.3312C199.56 19.6525 197.849 24.7225 196.568 27.0478C195.286 29.3729 193.828 35.4709 196.224 38.5696C198.62 41.6685 207.738 49.7122 208.166 53.4617C208.594 57.2112 209.759 61.2808 212.53 63.3178C215.301 65.3546 230.423 67.6586 239.797 60.291C249.17 52.9234 262.46 44.2141 263.276 34.3751C264.092 24.5361 263.771 17.0391 259.188 14.5699C254.604 12.1005 256.463 9.60795 259.852 12.304C266.907 19.7054 270.838 29.5668 270.822 39.8202Z" fill="#BF9900"/>
<path d="M240.1 78.6356C230.047 80.9542 219.492 79.2419 210.674 73.8623C213.964 72.787 217.426 72.3434 220.879 72.5546C237.63 73.4554 240.403 74.5342 240.403 74.5342C240.403 74.5342 239.691 76.8255 240.1 78.6356Z" fill="#BF9900"/>
<path d="M292.083 68.7419C272.243 68.0869 255.801 75.6304 247.033 79.6428C242.159 81.8768 240.524 80.5118 240.1 78.6338C248.059 76.7963 255.258 72.5257 260.707 66.4082C261.091 67.7075 260.547 69.5749 260.463 69.8567C260.636 69.4582 262.992 66.0946 292.083 68.7419Z" fill="black"/>
<path d="M210.674 73.8603C200.315 77.2772 193.782 86.4273 187.205 92.6249C191.337 83.3539 196.97 76.0372 198.618 74.3797C201.427 71.5543 196.778 65.0154 196.778 65.0154C197.55 64.8226 198.73 64.4453 199.619 63.8052C201.596 66.4362 203.889 68.8119 206.445 70.8781C207.788 71.9645 209.201 72.9607 210.674 73.8603Z" fill="black"/>
<path d="M173.792 54.7081C173.64 54.6996 173.488 54.7258 173.348 54.785C173.207 54.8441 173.082 54.9344 172.981 55.0493C171.43 56.8107 168.954 61.62 175.961 61.4419C183.066 61.2533 193.963 62.2177 195.754 64.6679C195.872 64.8198 196.032 64.9333 196.214 64.994C196.396 65.0547 196.592 65.06 196.776 65.0092C198.521 64.5683 202.373 63.1885 200.201 59.9222C197.666 56.126 177.134 54.884 173.792 54.7081Z" fill="#771E12"/>
<path d="M165.38 39.9599C165.204 39.9415 165.027 39.9609 164.86 40.0168C164.692 40.0727 164.538 40.1639 164.409 40.2841C164.279 40.4044 164.176 40.5512 164.107 40.7145C164.038 40.8779 164.004 41.0542 164.008 41.2316C164.063 43.0523 164.832 45.8311 166.748 48.6353C169.215 52.2386 173.584 55.8948 180.772 57.6159C195.312 61.0983 202.18 61.2722 201.141 57.6159C200.102 53.9596 196.471 51.929 195.721 48.2686C194.97 44.6081 192.547 28.0712 187.471 35.21C183.187 41.2316 169.548 40.3754 165.38 39.9599Z" fill="#EF3C24"/>
<path d="M188.457 44.4583C188.972 43.6193 188.897 42.6344 188.291 42.2583C187.685 41.8823 186.776 42.2576 186.262 43.0965C185.748 43.9355 185.822 44.9205 186.428 45.2965C187.035 45.6725 187.943 45.2972 188.457 44.4583Z" fill="black"/>
<path d="M189.717 36.6941C188.004 39.2375 178.702 49.9053 171.805 46.0456C171.805 46.0456 173.879 51.7684 177.223 52.1309C180.567 52.4933 178.034 56.3551 174.289 53.3581C170.545 50.361 165.66 48.0061 164.444 43.7798V43.7607C164.204 42.9371 164.062 42.0874 164.023 41.23C164.019 41.0526 164.053 40.8765 164.122 40.7132C164.191 40.55 164.294 40.4034 164.424 40.2832C164.554 40.163 164.707 40.0719 164.874 40.0158C165.042 39.9598 165.219 39.9401 165.395 39.9582C169.563 40.3821 183.199 41.23 187.483 35.2125C187.645 34.9815 187.821 34.7601 188.008 34.5491C189.04 34.1951 191.436 34.1506 189.717 36.6941Z" fill="#F58A7B"/>
<path d="M213.59 69.4351C206.548 70.8149 205.829 68.6381 206.449 70.8701C203.892 68.8047 201.598 66.4298 199.619 63.7992C200.747 62.9853 201.415 61.7538 200.203 59.9352C200.177 59.8936 200.147 59.8546 200.114 59.8186C201.098 59.3947 201.44 58.6592 201.147 57.6143C202.179 59.0259 202.123 60.5923 201.855 61.243C201.587 61.8937 204.049 66.065 207.545 65.0455C211.041 64.026 220.755 68.0383 213.59 69.4351Z" fill="black"/>
<path d="M315.343 70.7427L310.85 88.6848C309.867 89.4992 308.808 90.2173 307.689 90.8298L307 88.2863C300.272 93.4686 293.99 92.1969 261.316 91.1075C228.643 90.018 217.896 121.417 217.896 121.417C191.03 103.894 190.357 131.252 190.357 131.252C184.409 126.165 183.056 116.921 183.256 109.251V109.237C184.067 105.037 185.509 100.906 187.205 97.1058C193.782 90.9061 200.314 81.756 210.674 78.3393C219.492 83.7189 230.047 85.431 240.1 83.1125C240.521 84.9883 242.159 86.3555 247.033 84.1214C255.801 80.1069 272.242 72.5655 292.083 73.2205H292.129L293.594 73.3582C295.018 73.4939 296.379 73.5829 297.69 73.6232C305.325 73.8818 311.05 72.6651 315.343 70.7427Z" fill="#BF9900"/>
<path d="M183.256 104.75V104.726" stroke="black" stroke-miterlimit="10"/>
<path d="M166.674 45.2566C165.346 45.8289 163.991 40.5108 165.332 41.0175C166.672 41.524 166.535 42.2256 166.35 42.7852C166.164 43.3447 167.321 44.9768 166.674 45.2566Z" fill="white"/>
<path d="M212.851 20.8397C210.836 23.1712 197.029 28.2391 201.248 18.9131C205.467 9.58694 218.292 0.260855 236.229 5.33085C236.229 5.33085 224.428 7.46949 223.118 13.0567C223.118 13.0567 234.476 17.5608 227.121 21.7469C227.121 21.7469 230.548 26.4099 223.939 24.3222C217.331 22.2344 216.153 29.7483 216.153 29.7483C216.153 29.7483 214.971 27.0733 216.174 25.418C216.174 25.418 213.06 25.2378 212.381 25.9542C212.381 25.9542 211.669 22.688 212.781 21.3442L212.851 20.8397Z" fill="#FFEB99"/>
</svg>
