<svg width="22" height="13" viewBox="0 0 22 13" fill="none" xmlns="http://www.w3.org/2000/svg">
<path d="M12.3651 12.6C12.8936 12.6 13.1097 12.2376 13.1036 11.7833C13.0767 10.0721 13.7233 9.15086 14.8905 10.3515C16.1818 11.6797 16.4491 12.6 18.0173 12.6H20.7943C21.4955 12.6 21.7714 12.3679 21.7714 12.0037C21.7714 11.2334 20.5383 9.87389 19.4934 8.87592C18.0303 7.47894 17.9617 7.44591 19.2218 5.76417C20.7847 3.67629 22.8293 1.00104 21.0208 1.00104H17.566C16.896 1.00104 16.8474 1.38934 16.6088 1.96777C15.7453 4.0628 14.1042 6.77643 13.4812 6.36135C12.8294 5.92842 13.1279 4.21366 13.1774 1.66516C13.1904 0.992113 13.187 0.530618 12.1872 0.29139C11.6414 0.161957 11.1103 0.108398 10.6173 0.108398C8.64478 0.108398 7.28404 0.959086 8.05727 1.10726C9.42062 1.36881 9.28957 4.4029 8.97195 5.71329C8.41828 7.99488 6.33725 3.90659 5.47029 1.87047C5.26115 1.3813 5.19693 1.00104 4.4506 1.00104H1.62585C1.19888 1.00104 0.942871 1.14386 0.942871 1.46164C0.942871 1.99901 3.51162 7.46019 5.96408 10.1827C8.3558 12.8384 10.7197 12.6 12.3651 12.6Z" fill="#9A9A9A"/>
</svg>
