<svg width="257" height="171" viewBox="0 0 257 171" fill="none" xmlns="http://www.w3.org/2000/svg">
<g clip-path="url(#clip0)">
<path d="M198.857 133.935L198.779 133.256H184.824L184.149 133.935H198.857Z" fill="black"/>
<path d="M76.2055 107.832V106.475L75.5305 107.153V107.832H74.8555L74.1806 108.51H75.5305V133.256H50.9156V131.899L50.2406 132.578V133.256H49.5656L48.8906 133.935H50.2406V137.667L50.9156 138.132V133.935H75.5305V141.521L76.2055 140.843V133.935H79.0067L79.0523 133.256H76.2055V108.51H98.9862C98.8175 108.288 98.6352 108.061 98.4631 107.832H76.2055Z" fill="black"/>
<path d="M238.774 83.0858L238.476 82.4072H235.404L234.729 83.0858H238.774Z" fill="black"/>
<path d="M75.5308 57.6634V67.3941L76.2058 66.7155V57.6634H85.21L85.885 56.9848H76.2058V40.0341L75.5308 39.5269V56.9848H57.8141L57.1392 57.6634H75.5308Z" fill="black"/>
<path d="M260.808 133.256H253.23V132.472L252.555 133.151V133.256H252.45L251.775 133.934H252.555V136.954L253.23 137.193V133.934H261.107L260.808 133.256Z" fill="black"/>
<path d="M249.643 107.831H227.942V89.9087L227.267 90.5873V107.831H210.114L209.439 108.51H227.267V127.939L227.942 128.18V108.51H249.94L249.643 107.831Z" fill="black"/>
<path d="M201.977 56.9846H193.065L192.39 57.6631H201.977V82.4089H179.105C179.105 82.6346 179.105 82.8602 179.097 83.0875H201.977V88.528L202.652 87.8494V83.0875H207.389L208.064 82.4089H202.652V57.6631H219.322L218.57 56.9846H202.652V47.3472L201.977 48.0257V56.9846Z" fill="black"/>
<path d="M201.978 118.927L202.653 119.166V115.333L201.978 116.012V118.927Z" fill="black"/>
<path d="M176.687 149.128H177.361V140.758L176.687 141.436V149.128Z" fill="black"/>
<path d="M177.362 94.4624C177.154 95.1794 176.929 95.8902 176.687 96.5948V107.832H170.911C170.742 108.059 170.583 108.287 170.418 108.511H176.687V113.951L177.362 113.272V108.511H182.1L182.775 107.832H177.362V94.4624Z" fill="black"/>
<path d="M152.074 133.935H156.81L157.485 133.256H152.074V122.991C151.849 123.086 151.625 123.178 151.399 123.268V133.265H126.784V130.096L125.992 133.935H126.109V149.128H126.784V133.935H151.399V139.375L152.074 138.697V133.935Z" fill="black"/>
<path d="M151.399 31.5535H150.724L150.049 32.2321H151.399V40.8839L152.074 41.1604V32.2321H176.687V39.8185L177.362 39.14V32.2321H184.233L184.908 31.5535H177.362V19.8024L176.687 19.1934V31.5535H152.074V30.1964L151.399 30.875V31.5535Z" fill="black"/>
<path d="M101.496 111.325C101.264 111.098 101.039 110.866 100.821 110.627V116.097L101.496 115.418V111.325Z" fill="black"/>
<path d="M50.9157 83.0859H59.9217L60.5967 82.4073H50.9157V63.918L50.2407 64.5965V82.4073H32.5241L31.8491 83.0859H50.2407V92.8183L50.9157 92.1398V83.0859Z" fill="black"/>
<path d="M25.6275 108.51H34.6318L35.3068 107.832H25.6275V102.859L24.9526 105.217V107.832H24.2033L24.0093 108.51H24.9526V118.243L25.6275 117.564V108.51Z" fill="black"/>
<path d="M50.2407 64.5967L50.9157 63.9181L57.1391 57.6634L57.814 56.9848L75.3299 39.3759L49.3936 19.8721L31.0645 83.8766L31.8491 83.0861L32.5241 82.4075L50.2407 64.5967Z" fill="#FFCC00"/>
<path d="M170.418 108.51C170.587 108.286 170.755 108.059 170.911 107.831C173.362 104.383 175.307 100.599 176.687 96.5943C176.93 95.8897 177.155 95.1789 177.362 94.4619C178.429 90.7623 179.013 86.9385 179.096 83.0873C179.096 82.86 179.096 82.6344 179.105 82.4088C179.105 82.2968 179.105 82.1848 179.105 82.0695C179.107 78.7249 178.734 75.3907 177.993 72.1301L192.387 57.6596L193.062 56.981L201.973 48.0221L202.648 47.3436L205.126 44.8532L187.5 28.9492L184.908 31.5532L184.233 32.2318L177.362 39.1396L176.687 39.8182L166.024 50.5532C162.012 46.5581 157.277 43.3725 152.074 41.1686L151.399 40.8921C148.921 39.8925 146.357 39.1231 143.739 38.5934L150.054 32.2318L150.729 31.5532L151.404 30.8746L152.079 30.1961L169.49 12.6991L158.361 2.65625L137.278 37.7723C136.517 37.7327 135.752 37.7129 134.983 37.7129C127.831 37.7081 120.786 39.4529 114.455 42.7967C108.124 46.1406 102.697 50.9832 98.6435 56.9063L91.3874 51.4506L85.8914 56.9844L85.2164 57.6629L76.2054 66.7151L75.5304 67.3937L60.5964 82.4088L59.9214 83.0873L50.9154 92.1395L50.2405 92.818L35.3064 107.831L34.6315 108.51L25.6272 117.562L24.9522 118.241L19.7126 123.5L15.7252 137.434L4.70605 159.589L40.9712 131.281L47.2486 135.599L48.904 133.934L49.579 133.256L50.2539 132.577L50.9289 131.899L74.199 108.505L74.874 107.826L75.549 107.148L76.2239 106.469L91.2524 91.3608C91.0353 90.3056 90.8553 89.2391 90.7125 88.1613C89.6645 80.2238 90.7546 72.4541 93.7836 66.2774C98.3398 57.0081 106.777 52.1716 117.536 52.6551H117.617C134.257 55.4864 147.944 75.4907 145.764 93.8444C145.564 95.4505 145.24 97.0386 144.796 98.5944C142.75 105.439 137.371 110.281 131.076 110.927C125.997 111.45 121.402 109.116 118.589 104.651C117.982 105.516 117.195 106.462 116.112 107.166C112.631 109.431 107.99 108.949 103.696 105.877C100.275 103.431 97.4842 99.658 95.8339 95.2541C93.9642 90.2632 93.6739 84.7634 94.9902 79.3518C96.6034 72.7357 101.457 67.7974 107.067 67.0781C111.428 66.5183 115.408 68.5744 118.205 72.7612C118.392 71.7772 118.593 70.8001 118.804 69.8399L118.937 69.236L119.546 69.314C122.395 69.6754 125.398 69.9383 128.471 70.0961L129.175 70.1317L129.109 70.8357C128.398 78.4781 128.015 86.5599 128.002 94.2074C128.002 95.2931 128.002 96.3805 128.017 97.4306C128.117 98.8064 128.245 100.511 129.468 101.37C130.763 102.277 131.913 102.343 132.987 101.572C136.277 99.1966 137.943 89.5507 135.25 80.1763C133.618 74.4949 130.68 69.5973 126.755 66.0128C123.085 62.6623 118.79 60.6283 114.332 60.1296C110.833 59.7151 107.292 60.3652 104.165 61.9956C100.827 63.7582 98.09 66.5675 96.0195 70.3488C93.1643 75.5688 92.1299 81.7811 93.0276 88.3123C93.8714 94.467 96.4026 100.382 100.171 104.97C106.541 112.738 115.29 115.547 124.178 112.68L124.684 112.51L124.958 112.978C126.159 115.036 126.407 115.416 128.012 117.881L128.506 118.639L127.646 118.907C125.414 119.594 123.093 119.944 120.759 119.947C114.091 119.947 108.124 117.063 103.571 113.24L103.606 113.275L101.478 115.414L100.803 116.093L98.8848 118.034L108.503 117.562C114.567 122.13 121.698 125.054 129.21 126.051C136.722 127.049 144.363 126.087 151.399 123.259C151.625 123.169 151.849 123.077 152.074 122.982C159.365 119.893 165.699 114.895 170.418 108.51ZM168.54 70.3013L169 72.2522C169.099 72.667 169.029 73.1039 168.808 73.4676C168.587 73.8312 168.231 74.092 167.819 74.1929C167.698 74.2218 167.573 74.2366 167.448 74.2371C167.085 74.239 166.733 74.1175 166.447 73.8923C166.162 73.6672 165.961 73.3516 165.877 72.997L165.416 71.0461C165.368 70.8401 165.36 70.6265 165.393 70.4175C165.427 70.2086 165.501 70.0082 165.611 69.828C165.722 69.6478 165.866 69.4912 166.037 69.3672C166.208 69.2432 166.401 69.1543 166.606 69.1054C166.811 69.0565 167.023 69.0486 167.231 69.0822C167.439 69.1159 167.638 69.1904 167.818 69.3014C167.997 69.4125 168.153 69.5579 168.276 69.7295C168.399 69.9011 168.488 70.0954 168.536 70.3013H168.54ZM141.372 46.1052C141.169 46.047 140.98 45.9494 140.816 45.8178C140.651 45.6863 140.513 45.5234 140.411 45.3385C140.309 45.1535 140.244 44.9502 140.22 44.74C140.196 44.5298 140.214 44.317 140.271 44.1136C140.329 43.9102 140.426 43.7202 140.557 43.5546C140.688 43.3889 140.85 43.2508 141.034 43.1481C141.218 43.0454 141.42 42.9801 141.629 42.956C141.838 42.9318 142.05 42.9494 142.253 43.0075C153.4 46.2087 159.819 52.7857 163.241 57.7393C163.941 58.7512 164.586 59.8 165.175 60.8811C165.916 62.2423 166.56 63.6544 167.102 65.1069C167.181 65.3061 167.22 65.5192 167.216 65.7337C167.212 65.9482 167.165 66.1597 167.079 66.3558C166.992 66.5519 166.868 66.7288 166.713 66.876C166.558 67.0231 166.375 67.1377 166.175 67.2129C165.975 67.2881 165.762 67.3225 165.549 67.3139C165.336 67.3054 165.127 67.2542 164.933 67.1633C164.74 67.0723 164.567 66.9436 164.424 66.7844C164.281 66.6253 164.171 66.4391 164.1 66.2367C163.61 64.9274 163.028 63.6547 162.359 62.4282C161.826 61.4481 161.241 60.4974 160.607 59.5799C157.482 55.0555 151.608 49.0468 141.372 46.1052Z" fill="#FFCC00"/>
<path d="M67.5273 149.567L77.5104 156.441L78.7169 138.318L76.206 140.843L75.531 141.521L67.5273 149.567Z" fill="#FFCC00"/>
<path d="M227.267 90.5875L227.942 89.9089L234.729 83.0859L235.404 82.4073L237.535 80.2647L233.047 70.0454L226.361 64.0146L208.064 82.4073L207.389 83.0859L202.652 87.8495L201.977 88.528L182.776 107.832L182.101 108.51L177.362 113.272L176.687 113.951L157.486 133.256L156.811 133.935L152.074 138.697L151.399 139.375L141.698 149.128H169.036L176.687 141.436L177.362 140.758L184.149 133.935L184.824 133.256L197.335 120.679L196.928 117.126L199.837 118.163L201.977 116.012L202.652 115.333L209.439 108.51L210.114 107.832L227.267 90.5875Z" fill="#FFCC00"/>
<path d="M252.555 133.151L253.23 132.472L258.249 127.427L251.745 112.621L234.088 130.37L249.763 135.958L251.776 133.935L252.451 133.256L252.555 133.151Z" fill="#FFCC00"/>
<path d="M112.047 78.8837C110.009 77.5825 107.565 77.4672 105.674 78.5834C102.935 80.1933 101.347 85.0638 101.997 89.9105C102.904 96.6962 107.148 98.5843 108.973 99.0882C110.846 99.3732 112.381 99.0576 113.537 98.15C115.493 96.6232 116.149 93.5697 116.355 91.2914C116.88 85.4794 115.309 80.9567 112.047 78.8837Z" fill="#FFCC00"/>
<path d="M160.607 59.5786C161.241 60.4966 161.826 61.4479 162.359 62.4286C163.028 63.6556 163.609 64.9289 164.099 66.2387C164.169 66.4412 164.279 66.6274 164.422 66.7865C164.566 66.9456 164.739 67.0744 164.932 67.1653C165.125 67.2562 165.335 67.3075 165.548 67.316C165.761 67.3245 165.974 67.2902 166.174 67.2149C166.373 67.1397 166.556 67.0252 166.712 66.878C166.867 66.7308 166.991 66.554 167.078 66.3579C167.164 66.1617 167.21 65.9502 167.214 65.7357C167.218 65.5213 167.18 65.3082 167.101 65.1089C166.558 63.6564 165.914 62.2443 165.174 60.8831C164.585 59.8021 163.94 58.7533 163.24 57.7413C159.818 52.7878 153.399 46.2056 142.251 43.0096C142.049 42.9515 141.837 42.9341 141.628 42.9583C141.419 42.9826 141.217 43.0479 141.033 43.1507C140.849 43.2535 140.687 43.3917 140.556 43.5574C140.426 43.7231 140.329 43.9131 140.271 44.1165C140.213 44.3199 140.196 44.5327 140.22 44.7428C140.244 44.953 140.309 45.1563 140.411 45.3411C140.514 45.526 140.651 45.6888 140.816 45.8202C140.981 45.9517 141.17 46.0492 141.372 46.1072C151.608 49.0472 157.482 55.0559 160.607 59.5786Z" fill="white"/>
<path d="M166.61 69.1053C166.405 69.1542 166.212 69.2432 166.041 69.3671C165.87 69.4911 165.726 69.6477 165.615 69.8279C165.505 70.0082 165.431 70.2085 165.397 70.4175C165.364 70.6265 165.372 70.8401 165.42 71.0461L165.878 72.997C165.961 73.3496 166.161 73.6637 166.444 73.8886C166.726 74.1136 167.076 74.2363 167.437 74.2371C167.562 74.2366 167.686 74.2218 167.808 74.193C168.22 74.092 168.576 73.8312 168.797 73.4676C169.018 73.1039 169.087 72.667 168.989 72.2522L168.529 70.3013C168.431 69.8877 168.174 69.5297 167.815 69.3056C167.455 69.0816 167.022 69.0096 166.61 69.1053Z" fill="white"/>
<path d="M126.399 117.859C125.316 116.194 124.955 115.62 124.082 114.127C114.82 116.904 105.755 113.897 99.1385 105.828C97.99 104.423 96.9604 102.923 96.0605 101.345C97.2924 103.842 98.8114 106.185 100.586 108.326C106.047 114.86 115.63 120.684 126.399 117.859Z" fill="black"/>
<path d="M103.546 60.7951C106.91 59.0368 110.722 58.3336 114.489 58.7764C124.548 59.9011 133.21 68.1508 136.556 79.7951C137.87 84.3755 138.28 89.3274 137.707 93.7466C137.153 98.0199 135.722 101.274 133.782 102.67C132.253 103.771 130.451 103.701 128.704 102.478C126.958 101.255 126.785 98.9936 126.679 97.5042V97.4634C126.666 96.393 126.661 95.292 126.662 94.1927C126.676 86.7386 127.039 78.8757 127.71 71.4012C125.068 71.2519 122.479 71.0246 120.002 70.7226C119.718 72.0475 119.457 73.3996 119.221 74.75L118.883 76.6771L117.953 74.9569C115.422 70.2476 111.524 67.8624 107.236 68.4121C102.174 69.0618 97.7864 73.5828 96.2998 79.6628C95.046 84.8081 95.3211 90.0297 97.0946 94.761C98.6504 98.9156 101.271 102.466 104.476 104.756C108.301 107.494 112.376 107.964 115.377 106.013C116.617 105.206 117.452 103.925 118.061 102.99L118.682 102.039L119.221 103.04C121.688 107.628 126.063 110.068 130.933 109.567C136.671 108.977 141.61 104.512 143.496 98.2014C143.918 96.7228 144.226 95.2135 144.416 93.6872C146.517 76.0121 133.397 56.7508 117.417 54.0264C112.074 53.7923 107.378 54.8949 103.458 57.3022C99.8721 59.5075 97.0187 62.7307 94.9768 66.8955C93.3248 70.2612 92.2769 74.1274 91.8584 78.2429C92.3864 75.2506 93.3952 72.3646 94.8452 69.698C97.0423 65.6774 99.97 62.6833 103.546 60.7951ZM117.7 91.4055C117.363 95.1122 116.244 97.7383 114.367 99.2091C113.242 100.093 111.865 100.537 110.262 100.537C109.748 100.536 109.235 100.494 108.728 100.414L108.657 100.398C104.357 99.2345 101.367 95.3785 100.658 90.0823C99.9295 84.6537 101.752 79.3133 104.99 77.4032C107.321 76.0291 110.302 76.1529 112.771 77.7272C116.475 80.0937 118.272 85.0778 117.7 91.4055Z" fill="black"/>
<path d="M103.588 113.243C108.144 117.064 114.107 119.951 120.776 119.951C123.11 119.951 125.43 119.603 127.663 118.92L128.523 118.652L128.029 117.893C126.424 115.428 126.173 115.048 124.975 112.991L124.703 112.514L124.197 112.684C115.309 115.551 106.559 112.741 100.189 104.973C96.4295 100.393 93.8916 94.4708 93.0462 88.3161C92.1485 81.7849 93.1829 75.5726 96.038 70.3527C98.1052 66.5713 100.846 63.762 104.183 61.9994C107.31 60.369 110.852 59.719 114.35 60.1334C118.809 60.6321 123.103 62.6661 126.773 66.0166C130.698 69.6011 133.636 74.4987 135.268 80.1801C137.968 89.5545 136.296 99.2072 133.005 101.575C131.932 102.347 130.781 102.281 129.487 101.374C128.263 100.515 128.137 98.8103 128.036 97.4345C128.024 96.3776 128.019 95.2902 128.02 94.2112C128.034 86.5637 128.417 78.4819 129.127 70.8395L129.193 70.1355L128.49 70.0999C125.417 69.9421 122.415 69.6792 119.565 69.3178L118.955 69.2398L118.822 69.8437C118.611 70.8039 118.41 71.7811 118.223 72.765C115.424 68.5782 111.443 66.5221 107.086 67.0819C101.475 67.8012 96.6236 72.7344 95.0087 79.3556C93.6908 84.7672 93.981 90.267 95.8524 95.2579C97.5028 99.6687 100.294 103.435 103.714 105.881C108.009 108.953 112.658 109.443 116.131 107.17C117.214 106.466 118 105.52 118.608 104.654C121.417 109.125 126.012 111.459 131.095 110.931C137.386 110.285 142.769 105.443 144.814 98.5982C145.259 97.0424 145.582 95.4543 145.783 93.8482C147.944 75.4912 134.257 55.4869 117.599 52.6776H117.518C106.755 52.1941 98.3127 57.0306 93.765 66.2999C90.736 72.4749 89.6459 80.2445 90.6939 88.1838C90.8356 89.2616 91.0156 90.3281 91.2338 91.3833C92.4977 97.5295 95.0019 103.238 98.4663 107.839C98.635 108.068 98.8122 108.295 98.9894 108.517C99.1666 108.739 99.3623 108.984 99.5513 109.211C99.953 109.691 100.376 110.165 100.82 110.634C101.04 110.868 101.265 111.101 101.495 111.332C102.153 111.985 102.851 112.623 103.588 113.243ZM94.9817 66.8919C97.0235 62.7289 99.8753 59.5006 103.463 57.2986C107.383 54.8914 112.079 53.7887 117.422 54.0228C133.409 56.7473 146.529 76.0086 144.421 93.6837C144.231 95.21 143.923 96.7193 143.501 98.1978C141.615 104.515 136.682 108.98 130.938 109.564C126.068 110.073 121.692 107.625 119.225 103.036L118.687 102.035L118.066 102.987C117.457 103.922 116.622 105.202 115.381 106.01C112.381 107.961 108.306 107.491 104.48 104.753C101.274 102.463 98.6553 98.912 97.0995 94.7575C95.3259 90.0228 95.0509 84.8012 96.3047 79.6593C97.7863 73.5793 102.182 69.0583 107.241 68.4086C111.529 67.8589 115.434 70.2441 117.958 74.9534L118.883 76.6786L119.22 74.7515C119.457 73.3944 119.727 72.0491 120.002 70.7242C122.479 71.0244 125.064 71.2518 127.71 71.4028C127.035 78.8772 126.676 86.7402 126.662 94.1943C126.662 95.2936 126.662 96.3996 126.679 97.465V97.5057C126.785 98.9952 126.949 101.238 128.704 102.48C130.459 103.721 132.248 103.772 133.781 102.671C135.722 101.275 137.156 98.0214 137.706 93.7481C138.28 89.3289 137.875 84.3753 136.556 79.7967C133.209 68.1524 124.548 59.9027 114.489 58.7779C110.722 58.3351 106.91 59.0384 103.546 60.7967C99.9698 62.6848 97.0421 65.679 94.845 69.6961C93.395 72.3627 92.3862 75.2487 91.8582 78.2411C92.2733 74.1238 93.3246 70.2577 94.9766 66.8919H94.9817ZM100.591 108.331C98.8159 106.19 97.2969 103.847 96.065 101.35C96.9649 102.928 97.9945 104.428 99.143 105.833C105.76 113.902 114.825 116.909 124.087 114.132C124.959 115.62 125.321 116.194 126.404 117.865C115.629 120.684 106.046 114.86 100.586 108.331H100.591Z" fill="white"/>
<path d="M112.771 77.7284C110.302 76.1541 107.321 76.032 104.99 77.4044C101.754 79.3146 99.9296 84.6515 100.659 90.0801C101.367 95.3764 104.358 99.2408 108.657 100.396L108.728 100.411C109.235 100.492 109.748 100.534 110.262 100.535C111.865 100.535 113.242 100.091 114.368 99.2069C116.244 97.7344 117.364 95.1083 117.7 91.4033C118.272 85.0773 116.475 80.0932 112.771 77.7284ZM116.355 91.2829C116.149 93.5646 115.493 96.6063 113.537 98.1415C112.381 99.0491 110.837 99.3647 108.973 99.0797C107.149 98.5707 102.898 96.686 101.997 89.902C101.347 85.0638 102.928 80.1933 105.674 78.5749C107.565 77.4587 110.009 77.5741 112.047 78.8752C115.309 80.9567 116.88 85.4794 116.355 91.2829Z" fill="white"/>
</g>
<defs>
<clipPath id="clip0">
<rect width="257" height="171" fill="white"/>
</clipPath>
</defs>
</svg>
