<svg xmlns="http://www.w3.org/2000/svg" xmlns:xlink="http://www.w3.org/1999/xlink"><defs>
<clipPath id="clip0">
<rect width="83" height="30.9701" fill="white"/>
</clipPath>

<clipPath id="clip0">
<rect width="15.4194" height="15.399" fill="white" transform="translate(0.322266)"/>
</clipPath>

<clipPath id="clip0">
<rect width="96" height="17.8983" fill="white"/>
</clipPath>

<clipPath id="clip0">
<rect width="18" height="18" fill="white" transform="translate(9 8)"/>
</clipPath>
</defs><symbol id="icon-arrow" viewBox="0 0 24 39">
<path d="M21.3335 37L3.00016 19.5L21.3335 2" stroke="black" stroke-width="4" stroke-linecap="round"/>
</symbol><symbol id="icon-c++" viewBox="0 0 63 37">
<path d="M18.5376 17.8926V16.4686H19.7941V17.8926H21.1029V19.1753H19.7941V20.5993H18.5376V19.1753H17.145V17.8926H18.5376Z" fill="white"/>
<path d="M19.8204 20.6307H18.5116V19.2067H17.1138V17.8665H18.5116V16.4425H19.8204V17.8665H21.1345V19.2067H19.8204V20.6307ZM18.5692 20.5941H19.7628V19.1492H21.0769V17.9241H19.7628V16.5001H18.5692V17.9241H17.1714V19.1492H18.5692V20.5941Z" fill="white"/>
<path d="M29.2593 22.0024V14.9295H32.0235C32.3285 14.9061 32.6349 14.9467 32.9233 15.0488C33.2116 15.1508 33.4754 15.312 33.6977 15.522C33.9201 15.732 34.096 15.9862 34.2143 16.2683C34.3326 16.5503 34.3906 16.854 34.3846 17.1598C34.4039 17.6257 34.267 18.0847 33.9958 18.4641C33.7245 18.8434 33.3344 19.1214 32.8873 19.2539L34.7406 22.0077H32.7722L31.055 19.39V22.0077L29.2593 22.0024ZM31.8455 17.8613C31.9427 17.875 32.0417 17.8666 32.1353 17.8368C32.2288 17.807 32.3144 17.7566 32.3858 17.6892C32.4572 17.6219 32.5126 17.5393 32.5477 17.4476C32.5829 17.356 32.597 17.2576 32.5889 17.1598C32.5929 17.0623 32.5762 16.965 32.5399 16.8744C32.5036 16.7839 32.4485 16.702 32.3783 16.6342C32.308 16.5665 32.2242 16.5144 32.1324 16.4813C32.0406 16.4483 31.9428 16.4351 31.8455 16.4425H31.055V17.8613H31.8455Z" fill="white"/>
<path d="M38.4211 20.547C38.558 20.5654 38.6972 20.5529 38.8287 20.5105C38.9601 20.4682 39.0804 20.3969 39.1807 20.3021C39.2811 20.2073 39.359 20.0912 39.4087 19.9624C39.4585 19.8336 39.4788 19.6952 39.4682 19.5576V14.9296H41.2639V19.746C41.2639 21.3166 39.976 22.0705 38.4368 22.0705C36.8977 22.0705 35.6255 21.3219 35.6255 19.746V14.9296H37.4055V19.5471C37.395 19.6824 37.4142 19.8185 37.4617 19.9456C37.5093 20.0728 37.5841 20.188 37.6808 20.2832C37.7775 20.3785 37.8939 20.4514 38.0218 20.497C38.1497 20.5426 38.286 20.5596 38.4211 20.547Z" fill="white"/>
<path d="M44.8293 16.364C44.4262 16.364 44.0963 16.5734 44.0963 16.9713C44.0963 17.2592 44.2848 17.4634 44.8764 17.5524C45.4253 17.599 45.9355 17.8538 46.3025 18.2646C46.6695 18.6754 46.8654 19.2111 46.8501 19.7617C46.8523 20.0767 46.7894 20.3888 46.6654 20.6783C46.5413 20.9679 46.3588 21.2288 46.1293 21.4445C45.8998 21.6603 45.6282 21.8263 45.3315 21.9322C45.0348 22.0381 44.7195 22.0816 44.4052 22.06C43.4562 22.0865 42.5329 21.7494 41.8242 21.1176L42.6462 19.8664C43.0994 20.2803 43.6869 20.5165 44.3005 20.5313C44.4001 20.5421 44.5009 20.5324 44.5966 20.5028C44.6924 20.4731 44.781 20.4241 44.857 20.3589C44.9331 20.2936 44.995 20.2135 45.0388 20.1234C45.0827 20.0333 45.1076 19.9351 45.112 19.835C45.112 19.3586 44.8083 19.0602 44.2167 18.9502C42.8399 18.6937 42.2954 17.9712 42.2954 17.0603C42.2954 15.7829 43.2639 14.8719 44.7507 14.8719C45.3988 14.857 46.0361 15.0396 46.5779 15.3955L46.002 16.7933C45.6638 16.5343 45.2547 16.3845 44.8293 16.364Z" fill="white"/>
<path d="M50.2111 16.364C49.808 16.364 49.4782 16.5734 49.4782 16.9713C49.4782 17.2592 49.6666 17.4634 50.2582 17.5524C50.8081 17.5977 51.3196 17.852 51.6877 18.2629C52.0558 18.6739 52.2524 19.2102 52.2372 19.7617C52.2386 20.077 52.1751 20.3891 52.0505 20.6787C51.9258 20.9683 51.7429 21.2291 51.5129 21.4448C51.283 21.6604 51.0111 21.8264 50.7141 21.9323C50.4172 22.0381 50.1016 22.0816 49.7871 22.06C48.8377 22.0887 47.9136 21.7513 47.2061 21.1177L48.0228 19.8664C48.4776 20.2811 49.067 20.5172 49.6823 20.5313C49.7837 20.543 49.8863 20.5334 49.9837 20.5031C50.0811 20.4729 50.1711 20.4227 50.2479 20.3557C50.3248 20.2886 50.3868 20.2063 50.4301 20.114C50.4733 20.0216 50.4968 19.9212 50.4991 19.8193C50.4991 19.3429 50.1954 19.0445 49.6038 18.9345C48.2322 18.678 47.6825 17.9555 47.6825 17.0446C47.6825 15.7672 48.6562 14.8562 50.1431 14.8562C50.7894 14.842 51.4248 15.0246 51.9649 15.3798L51.3943 16.7724C51.0507 16.5188 50.6379 16.3763 50.2111 16.364Z" fill="white"/>
<path d="M53.2212 22.0024V14.9296H55.0169V22.0024H53.2212Z" fill="white"/>
<path d="M60.2312 14.9296L62.4981 22.0024H60.7129L60.383 20.9554H58.0429L57.7026 22.0024H55.9121L58.1999 14.9296H60.2312ZM58.5298 19.4057H59.9014L59.247 17.2383L58.5298 19.4057Z" fill="white"/>
<path d="M23.2857 17.8926V16.4686H24.5421V17.8926H25.8509V19.1753H24.5421V20.5993H23.2857V19.1753H21.8931V17.8926H23.2857Z" fill="white"/>
<path d="M24.5685 20.6307H23.2596V19.2067H21.8618V17.8665H23.2596V16.4425H24.5685V17.8665H25.8825V19.2067H24.5685V20.6307ZM23.3172 20.5941H24.5109V19.1492H25.8249V17.9241H24.5109V16.5001H23.3172V17.9241H21.9194V19.1492H23.3172V20.5941Z" fill="white"/>
<path d="M22.3542 22.1647L26.4744 26.2849C24.9426 27.7876 23.0004 28.8033 20.8924 29.2039C18.7844 29.6045 16.6049 29.3722 14.6287 28.5362C12.6525 27.7003 10.968 26.298 9.78746 24.5062C8.6069 22.7144 7.98314 20.6133 7.99479 18.4676C8.00643 16.3219 8.65297 14.2276 9.8529 12.4487C11.0528 10.6699 12.7525 9.28598 14.7376 8.4715C16.7228 7.65701 18.9046 7.44837 21.0082 7.87187C23.1117 8.29537 25.0428 9.33205 26.5581 10.8513L22.4223 15.0029C21.7224 14.2975 20.8294 13.8149 19.8559 13.6158C18.8823 13.4168 17.8716 13.5102 16.951 13.8843C16.0304 14.2585 15.2411 14.8965 14.6824 15.7183C14.1236 16.54 13.8204 17.5086 13.811 18.5023C13.8016 19.4959 14.0863 20.4702 14.6293 21.3024C15.1723 22.1346 15.9494 22.7875 16.8627 23.1791C17.776 23.5706 18.7847 23.6832 19.7619 23.5027C20.7391 23.3222 21.641 22.8567 22.3542 22.1647Z" fill="white"/>
<path d="M19.8253 20.6307H18.5165V19.2067H17.1187V17.8665H18.5165V16.4425H19.8253V17.8665H21.1341V19.2067H19.8253V20.6307ZM18.5688 20.5941H19.7677V19.1492H21.0765V17.9241H19.7677V16.5001H18.5688V17.9241H17.1762V19.1492H18.5688V20.5941Z" fill="white"/>
<path d="M24.5738 20.6307H23.265V19.2067H21.8672V17.8665H23.265V16.4425H24.5738V17.8665H25.8827V19.2067H24.5738V20.6307ZM23.3174 20.5941H24.5162V19.1492H25.8251V17.9241H24.5162V16.5001H23.3174V17.9241H21.9248V19.1492H23.3174V20.5941Z" fill="white"/>
<path d="M31.8715 5.53215C29.3076 2.96627 26.0413 1.21706 22.4846 0.50515C18.9278 -0.206762 15.2399 0.150503 11.8859 1.53189C8.53199 2.91327 5.6622 5.25691 3.63851 8.26722C1.61483 11.2775 0.527887 14.8197 0.514769 18.4469C0.50165 22.0742 1.56294 25.6241 3.5648 28.649C5.56666 31.6739 8.41942 34.0382 11.7633 35.4438C15.1072 36.8494 18.7924 37.2334 22.3542 36.5472C25.916 35.861 29.1949 34.1355 31.7772 31.5882L27.2382 27.044L27.1963 27.0859C25.5148 28.7358 23.3825 29.8513 21.0682 30.2918C18.7539 30.7323 16.3609 30.478 14.1908 29.5611C12.0207 28.6443 10.1704 27.1057 8.87304 25.1392C7.57566 23.1728 6.88919 20.8664 6.9001 18.5105C6.91101 16.1547 7.6188 13.8548 8.93434 11.9004C10.2499 9.94604 12.1143 8.42467 14.2928 7.52791C16.4713 6.63115 18.8665 6.3991 21.1767 6.86098C23.4868 7.32287 25.6086 8.45804 27.2749 10.1235L31.84 5.54262L31.8715 5.53215Z" fill="white"/>
</symbol><symbol id="icon-devoops-logo" viewBox="0 0 68 44">
<path d="M0.483887 39.3999H4.89837C6.80832 39.3999 8.17881 38.9544 9.03048 38.1008C9.88216 37.2472 10.3551 35.683 10.3551 33.4693C10.3551 31.1734 9.91889 29.6914 8.97768 28.8166C8.03648 27.9419 6.81062 27.6183 4.90066 27.6183H0.483887V39.3999ZM7.99975 33.4693C7.90104 36.8626 7.32484 37.409 4.65962 37.47H2.65095V29.5225H4.65962C6.03699 29.5225 6.70731 29.6445 7.26515 30.1909C7.82299 30.7373 7.99975 31.7011 7.99975 33.4693ZM15.8049 30.5239C13.2016 30.5239 11.8679 31.7433 11.8679 35.0545C11.8679 36.7406 12.226 37.9179 12.9216 38.6097C13.6171 39.3015 14.6525 39.6438 15.9656 39.6438C16.9647 39.6481 17.9581 39.4897 18.9085 39.1748L18.5711 37.5098C17.8048 37.7532 17.0068 37.8766 16.2043 37.8757C15.4284 37.8757 14.8522 37.7115 14.5331 37.4277C14.214 37.144 14.0372 36.5343 14.0166 35.6408H19.5261C19.5857 33.549 19.3677 32.2475 18.6928 31.5158C18.0178 30.7842 17.2006 30.5426 15.7888 30.5426L15.8049 30.5239ZM15.8852 32.1889C16.4974 32.1889 16.9152 32.3108 17.1386 32.5547C17.3682 32.7892 17.4967 33.2863 17.5151 34.0391H14.0648C14.2048 32.6157 14.6226 32.1889 15.9151 32.1889H15.8852ZM24.2367 37.2894C23.5801 34.8896 22.8846 32.7228 22.15 30.7889H20.0013C21.1034 33.6037 22.053 36.4784 22.8455 39.3999H25.3914C26.6425 36.2716 27.6572 33.4083 28.4331 30.7889H26.3441C25.768 32.9938 25.0713 35.1641 24.2573 37.2894H24.2367ZM34.6978 39.6345C38.3708 39.6345 40.1844 38.2532 40.1844 33.3778C40.1844 31.0023 39.7482 29.4381 38.807 28.5446C37.8658 27.6511 36.6193 27.3041 34.6909 27.3041C32.7626 27.3041 31.5482 27.6511 30.5588 28.5446C29.6038 29.4381 29.1814 31.0234 29.1814 33.3778C29.1814 35.7956 29.6199 37.3996 30.5588 38.3353C31.4977 39.271 32.7649 39.6157 34.6909 39.6157L34.6978 39.6345ZM31.5345 33.42C31.5345 31.5909 31.6538 30.6364 32.1703 30.0478C32.6869 29.4592 33.3641 29.3161 34.7162 29.3161C36.0683 29.3161 36.7249 29.4381 37.2414 30.0478C37.7579 30.6575 37.8979 31.5909 37.8979 33.42C37.8979 36.9939 37.2414 37.6247 34.7368 37.6247C32.2323 37.6247 31.5758 36.9939 31.5758 33.42H31.5345ZM45.7673 39.6345C47.1791 39.6345 48.2144 39.2897 48.8503 38.6401C49.4862 37.9906 49.8053 36.75 49.8053 35.0451C49.8053 33.3403 49.4862 32.1795 48.8503 31.5275C48.2144 30.8756 47.1791 30.5332 45.7673 30.5332C44.3555 30.5332 43.3615 30.878 42.7256 31.5275C42.0897 32.1771 41.7706 33.3567 41.7706 35.0451C41.7706 36.7336 42.0897 37.9483 42.7256 38.6401C43.3615 39.3319 44.3762 39.6345 45.788 39.6345H45.7673ZM45.7673 32.2217C47.3191 32.2616 47.6382 32.5875 47.6979 35.085C47.6979 36.2576 47.5579 37.015 47.2985 37.3808C47.0391 37.7467 46.5226 37.9483 45.7673 37.9483C45.012 37.9483 44.5162 37.7654 44.2568 37.3808C43.9974 36.9963 43.878 36.2435 43.878 35.085C43.878 33.8867 44.018 33.1152 44.2568 32.7704C44.4955 32.4257 45.0189 32.2311 45.7811 32.2311L45.7673 32.2217ZM55.7096 39.6345C56.924 39.6345 57.8377 39.2897 58.4644 38.619C59.0911 37.9484 59.3987 36.743 59.3987 35.085C59.3987 33.3778 59.0796 32.1795 58.4437 31.5299C57.8078 30.8803 56.7932 30.5356 55.3423 30.5356C54.0799 30.5039 52.8236 30.7245 51.6441 31.1852V42.6619H53.6918V39.1443C54.3216 39.4705 55.0173 39.6416 55.7234 39.6438L55.7096 39.6345ZM55.3492 32.353C56.1045 32.353 56.6003 32.5359 56.8804 32.8994C57.1605 33.2629 57.2982 33.9969 57.2982 35.1554C57.2982 36.2106 57.1582 36.9236 56.8804 37.3081C56.6026 37.6927 56.1045 37.878 55.3676 37.878C54.4333 37.878 53.717 37.5309 53.717 37.0455V32.6157C54.2481 32.4307 54.8066 32.3418 55.3676 32.353H55.3492ZM67.2865 31.0116C66.3706 30.6942 65.4092 30.5357 64.4422 30.5426C62.1167 30.5426 60.8243 31.3141 60.8243 33.4059C60.8243 35.0921 61.6989 35.7018 63.6686 35.8636C65.0804 36.0066 65.4775 36.2693 65.4775 36.9001C65.4775 37.7725 65.0184 37.9554 63.827 37.9554C62.9745 37.964 62.1265 37.8277 61.3178 37.552L60.8817 39.217C61.8556 39.5462 62.877 39.7048 63.9027 39.686C65.0781 39.686 65.9688 39.4515 66.5886 39.0341C67.2084 38.6167 67.5229 37.8616 67.5229 36.8016C67.5229 35.1155 66.6873 34.4237 64.5799 34.2009C63.2025 34.0579 62.8307 33.8562 62.8307 33.2629C62.8307 32.4304 63.2278 32.2686 64.3618 32.2686C65.1925 32.2734 66.0173 32.4103 66.8067 32.6743L67.2658 31.0327L67.2865 31.0116Z" fill="white"/>
<path d="M49.0638 13.8105C48.0009 13.8124 46.9623 14.1359 46.0793 14.7403C45.1962 15.3446 44.5082 16.2027 44.1022 17.2062C43.6962 18.2097 43.5903 19.3135 43.798 20.3784C44.0056 21.4433 44.5175 22.4215 45.2689 23.1894C46.0203 23.9574 46.9777 24.4806 48.02 24.6932C49.0623 24.9058 50.143 24.7981 51.1255 24.3838C52.1079 23.9694 52.9482 23.267 53.5402 22.3652C54.1322 21.4634 54.4493 20.4026 54.4516 19.3168C54.4504 17.8572 53.8824 16.4578 52.8723 15.4255C51.8623 14.3932 50.4926 13.8124 49.0638 13.8105ZM49.0638 22.7218C48.399 22.7223 47.749 22.5213 47.196 22.1444C46.643 21.7674 46.2119 21.2314 45.9572 20.6041C45.7025 19.9768 45.6356 19.2864 45.765 18.6203C45.8944 17.9542 46.2143 17.3422 46.6842 16.8618C47.1542 16.3815 47.753 16.0543 48.405 15.9216C49.057 15.7889 49.7328 15.8568 50.3471 16.1166C50.9613 16.3763 51.4863 16.8164 51.8557 17.381C52.2251 17.9456 52.4223 18.6095 52.4223 19.2886C52.4199 20.198 52.0653 21.0695 51.4361 21.7127C50.8068 22.3559 49.954 22.7187 49.0638 22.7218Z" fill="white"/>
<path d="M20.9448 13.8105C19.882 13.8129 18.8437 14.1368 17.9609 14.7414C17.0782 15.3461 16.3905 16.2043 15.9849 17.2078C15.5792 18.2113 15.4736 19.3151 15.6815 20.3798C15.8895 21.4446 16.4015 22.4225 17.153 23.1902C17.9045 23.9579 18.8619 24.481 19.9041 24.6934C20.9464 24.9058 22.0269 24.7979 23.0093 24.3835C23.9916 23.9691 24.8318 23.2667 25.4237 22.3649C26.0155 21.4632 26.3326 20.4025 26.3349 19.3168C26.3343 17.8566 25.7662 16.4565 24.7555 15.424C23.7448 14.3915 22.3742 13.8112 20.9448 13.8105ZM20.9448 22.7218C20.2801 22.7218 19.6303 22.5205 19.0776 22.1432C18.525 21.766 18.0942 21.2298 17.8398 20.6024C17.5855 19.9751 17.5189 19.2848 17.6486 18.6188C17.7783 17.9529 18.0983 17.3411 18.5684 16.861C19.0384 16.3809 19.6372 16.0539 20.2891 15.9214C20.9411 15.7889 21.6168 15.8569 22.2309 16.1168C22.845 16.3766 23.3699 16.8167 23.7392 17.3813C24.1085 17.9458 24.3056 18.6096 24.3056 19.2886C24.3026 20.1982 23.9475 21.0697 23.3179 21.7128C22.6883 22.356 21.8352 22.7187 20.9448 22.7218Z" fill="white"/>
<path d="M23.6695 13.7238L23.5708 11.9181H46.3388L46.4168 13.7238H23.6695Z" fill="white"/>
<path d="M44.5298 10.6165L45.7625 9.25635L48.0283 15.044L46.3181 15.5927L44.5298 10.6165Z" fill="white"/>
<path d="M25.4601 10.6165L24.2274 9.25635L21.98 15.044L23.6696 15.5927L25.4601 10.6165Z" fill="white"/>
<path d="M46.1003 8.41688C44.4497 10.1429 42.1816 9.20717 41.6261 7.29828C41.408 6.68856 41.5664 6.06008 41.5274 5.5512C41.7522 5.57517 41.9791 5.56887 42.2023 5.53244C42.6954 5.44857 43.153 5.21709 43.5172 4.86732C43.8814 4.51755 44.1358 4.06524 44.2481 3.56767C44.3605 3.0701 44.3257 2.54966 44.1483 2.07227C43.9709 1.59489 43.6587 1.18203 43.2514 0.886011C42.8441 0.589989 42.36 0.424114 41.8603 0.409397C41.3607 0.394681 40.868 0.531786 40.4446 0.803344C40.0213 1.0749 39.6864 1.4687 39.4824 1.93484C39.2783 2.40099 39.2143 2.91852 39.2983 3.42188C39.3834 3.91517 39.6048 4.3733 39.9365 4.74216C38.0059 6.06243 34.0689 10.9777 36.2773 13.2125C37.9669 14.9198 42.5214 17.1734 39.319 21.2163C39.0022 21.622 40.3337 21.9878 40.7308 21.5399C41.6572 20.4847 42.2284 19.1541 42.3607 17.7432C42.5903 15.9539 41.128 14.167 40.1936 12.8467C39.5968 12.0142 40.3727 9.16965 41.1693 9.81923C42.4801 11.1395 44.4291 11.5053 45.6618 9.81923C46.0199 9.65742 46.4768 8.11437 46.1003 8.39812V8.41688Z" fill="white"/>
<path d="M23.8994 8.41688C25.5499 10.1429 27.8157 9.20717 28.3736 7.29828C28.5916 6.68856 28.4332 6.06009 28.4723 5.55121C28.2475 5.57518 28.0206 5.56887 27.7974 5.53244C27.2427 5.43859 26.7345 5.1583 26.3534 4.736C25.9723 4.3137 25.74 3.77354 25.6935 3.20114C25.6469 2.62873 25.7887 2.05683 26.0963 1.57607C26.404 1.0953 26.8599 0.733179 27.3919 0.547092C27.9238 0.361005 28.5013 0.361599 29.0329 0.548779C29.5645 0.735958 30.0197 1.09901 30.3264 1.58041C30.6331 2.06181 30.7737 2.634 30.7261 3.20631C30.6784 3.77861 30.4451 4.31829 30.0631 4.73981C31.9915 6.06009 35.9307 10.9754 33.7223 13.2102C32.0328 14.9174 27.4783 17.171 30.6807 21.2139C30.9974 21.6196 29.666 21.9855 29.2689 21.5376C28.3418 20.4826 27.7698 19.152 27.6367 17.7409C27.4186 15.9516 28.8717 14.1647 29.806 12.8444C30.4006 12.0119 29.627 9.16731 28.8304 9.81689C27.5173 11.1372 25.5706 11.503 24.3379 9.81689C23.9797 9.65508 23.5206 8.11202 23.8994 8.39578V8.41688Z" fill="white"/>
<path d="M41.844 21.1389H39.1008C38.8827 21.1389 38.7036 21.3734 38.7036 21.6877C38.7036 21.9925 38.8827 22.2364 39.1008 22.2364H41.844C42.0736 22.2364 42.2412 22.0019 42.2412 21.6877C42.2412 21.3828 42.0621 21.1389 41.844 21.1389Z" fill="white"/>
<path d="M30.9674 21.1389H28.2241C27.9946 21.1389 27.8247 21.3734 27.8247 21.6877C27.8247 21.9925 28.0038 22.2364 28.2241 22.2364H30.9674C31.197 22.2364 31.3646 22.0019 31.3646 21.6877C31.3646 21.3828 31.1855 21.1389 30.9674 21.1389Z" fill="white"/>
<path d="M38.2654 17.2601H31.7642C31.6354 17.2749 31.5174 17.3406 31.4354 17.4432C31.3535 17.5458 31.3141 17.677 31.3257 17.8089C31.3147 17.9404 31.3544 18.071 31.4363 18.1731C31.5182 18.2751 31.6358 18.3405 31.7642 18.3553H38.2654C38.3937 18.3405 38.5114 18.2751 38.5933 18.1731C38.6751 18.071 38.7148 17.9404 38.7038 17.8089C38.7155 17.677 38.6761 17.5458 38.5941 17.4432C38.5122 17.3406 38.3942 17.2749 38.2654 17.2601Z" fill="white"/>
<path d="M30.3271 21.4226C30.8046 19.6357 30.8827 19.3308 31.3418 17.5439C31.3666 17.4867 31.4023 17.4352 31.4468 17.3924C31.4913 17.3495 31.5438 17.3162 31.6011 17.2944C31.6584 17.2725 31.7194 17.2626 31.7805 17.2652C31.8417 17.2677 31.9017 17.2828 31.957 17.3094C32.2348 17.3915 32.4345 17.6353 32.3748 17.837L31.3602 21.7181C31.3073 21.831 31.2136 21.9185 31.0989 21.9622C30.9841 22.006 30.8572 22.0025 30.7449 21.9526C30.4695 21.8705 30.272 21.6267 30.3271 21.4226Z" fill="white"/>
<path d="M39.7756 21.5258C39.2981 19.7365 39.22 19.434 38.7632 17.6447C38.7099 17.5317 38.6158 17.4441 38.5007 17.4004C38.3856 17.3567 38.2583 17.3602 38.1457 17.4102C37.8679 17.4923 37.6682 17.7362 37.7279 17.9402L38.7425 21.8189C38.7673 21.8761 38.803 21.9276 38.8475 21.9704C38.8921 22.0133 38.9445 22.0466 39.0018 22.0685C39.0592 22.0903 39.1202 22.1002 39.1813 22.0977C39.2424 22.0951 39.3024 22.0801 39.3578 22.0535C39.6378 21.9714 39.8353 21.7275 39.7756 21.5258Z" fill="white"/>
</symbol><symbol id="icon-devoops" viewBox="0 0 137 85">
<path d="M0.975098 77.7056H9.86897C13.717 77.7056 16.4781 76.8268 18.194 75.1433C19.9098 73.4598 20.8626 70.375 20.8626 66.009C20.8626 61.4811 19.9838 58.5581 18.0876 56.833C16.1913 55.1079 13.7216 54.4696 9.8736 54.4696H0.975098V77.7056ZM16.1173 66.009C15.9185 72.7014 14.7576 73.779 9.38797 73.8992H5.3411V58.2251H9.38797C12.163 58.2251 13.5135 58.4656 14.6373 59.5432C15.7612 60.6209 16.1173 62.5217 16.1173 66.009ZM31.8423 60.2C26.5976 60.2 23.9105 62.605 23.9105 69.1355C23.9105 72.4608 24.632 74.7826 26.0333 76.147C27.4347 77.5113 29.5206 78.1866 32.1661 78.1866C34.1791 78.1949 36.1806 77.8827 38.0953 77.2616L37.4155 73.9778C35.8716 74.4579 34.2639 74.7012 32.6471 74.6993C31.0838 74.6993 29.923 74.3756 29.2801 73.816C28.6372 73.2563 28.2811 72.0538 28.2395 70.2917H39.3395C39.4597 66.1662 39.0204 63.5994 37.6606 62.1564C36.3008 60.7134 34.6543 60.237 31.81 60.237L31.8423 60.2ZM32.0042 63.4837C33.2376 63.4837 34.0793 63.7242 34.5295 64.2052C34.992 64.6677 35.251 65.6482 35.288 67.1328H28.3366C28.6187 64.3255 29.4605 63.4837 32.0643 63.4837H32.0042ZM48.83 73.5431C47.5072 68.8102 46.1059 64.5367 44.6259 60.7226H40.2968C42.5174 66.2741 44.4304 71.9437 46.0272 77.7056H51.1563C53.677 71.5358 55.7212 65.8887 57.2845 60.7226H53.0757C51.915 65.0713 50.5115 69.3515 48.8716 73.5431H48.83ZM69.9061 78.1681C77.3061 78.1681 80.9598 75.444 80.9598 65.8286C80.9598 61.1435 80.0811 58.0586 78.1849 56.2965C76.2886 54.5344 73.7772 53.8499 69.8922 53.8499C66.0072 53.8499 63.5606 54.5344 61.5672 56.2965C59.6432 58.0586 58.7922 61.1851 58.7922 65.8286C58.7922 70.597 59.6756 73.7605 61.5672 75.6058C63.4588 77.4512 66.0118 78.1311 69.8922 78.1311L69.9061 78.1681ZM63.5328 65.9118C63.5328 62.3044 63.7733 60.422 64.814 59.2611C65.8546 58.1002 67.219 57.8181 69.9431 57.8181C72.6672 57.8181 73.99 58.0586 75.0306 59.2611C76.0712 60.4636 76.3533 62.3044 76.3533 65.9118C76.3533 72.9603 75.0306 74.2045 69.9847 74.2045C64.9389 74.2045 63.6161 72.9603 63.6161 65.9118H63.5328ZM92.2078 78.1681C95.0522 78.1681 97.1381 77.4882 98.4192 76.2071C99.7003 74.926 100.343 72.4793 100.343 69.117C100.343 65.7546 99.7003 63.4652 98.4192 62.1795C97.1381 60.8937 95.0522 60.2185 92.2078 60.2185C89.3635 60.2185 87.3608 60.8984 86.0797 62.1795C84.7986 63.4606 84.1557 65.787 84.1557 69.117C84.1557 72.447 84.7986 74.8427 86.0797 76.2071C87.3608 77.5715 89.4051 78.1681 92.2495 78.1681H92.2078ZM92.2078 63.5485C95.3343 63.6271 95.9772 64.27 96.0975 69.1956C96.0975 71.5081 95.8153 73.002 95.2927 73.7235C94.7701 74.445 93.7295 74.8427 92.2078 74.8427C90.6862 74.8427 89.6872 74.482 89.1646 73.7235C88.642 72.965 88.4015 71.4804 88.4015 69.1956C88.4015 66.8322 88.6836 65.3106 89.1646 64.6307C89.6456 63.9509 90.7001 63.567 92.2356 63.567L92.2078 63.5485ZM112.239 78.1681C114.685 78.1681 116.526 77.4882 117.789 76.1655C119.051 74.8427 119.671 72.4655 119.671 69.1956C119.671 65.8286 119.028 63.4652 117.747 62.1841C116.466 60.903 114.422 60.2231 111.499 60.2231C108.955 60.1606 106.424 60.5958 104.048 61.5042V84.139H108.173V77.2015C109.442 77.8447 110.844 78.1821 112.266 78.1866L112.239 78.1681ZM111.513 63.8075C113.034 63.8075 114.033 64.1682 114.597 64.8851C115.162 65.602 115.439 67.0496 115.439 69.3343C115.439 71.4156 115.157 72.8216 114.597 73.5801C114.038 74.3386 113.034 74.704 111.55 74.704C109.667 74.704 108.224 74.0195 108.224 73.0621V64.3255C109.294 63.9606 110.419 63.7853 111.55 63.8075H111.513ZM135.563 61.162C133.718 60.5359 131.781 60.2232 129.832 60.237C125.147 60.237 122.543 61.7586 122.543 65.8841C122.543 69.2095 124.305 70.412 128.274 70.7311C131.118 71.0132 131.918 71.5312 131.918 72.7753C131.918 74.4958 130.993 74.8566 128.593 74.8566C126.875 74.8736 125.167 74.6048 123.538 74.0611L122.659 77.3448C124.621 77.9941 126.679 78.3068 128.745 78.2698C131.113 78.2698 132.908 77.8073 134.157 76.9841C135.405 76.1608 136.039 74.6716 136.039 72.5811C136.039 69.2557 134.355 67.8913 130.11 67.452C127.335 67.1699 126.585 66.7721 126.585 65.602C126.585 63.9601 127.386 63.641 129.67 63.641C131.344 63.6504 133.006 63.9204 134.596 64.4411L135.521 61.2036L135.563 61.162Z" fill="black"/>
<path d="M98.8491 27.2375C96.7077 27.2412 94.6153 27.8793 92.8362 29.0712C91.0571 30.2631 89.671 31.9554 88.853 33.9345C88.035 35.9136 87.8217 38.0906 88.24 40.1908C88.6584 42.291 89.6896 44.2202 91.2035 45.7348C92.7174 47.2493 94.6462 48.2814 96.7462 48.7006C98.8462 49.1198 101.023 48.9075 103.003 48.0903C104.982 47.2731 106.675 45.8878 107.868 44.1092C109.06 42.3306 109.699 40.2385 109.704 38.0971C109.702 35.2185 108.557 32.4584 106.522 30.4226C104.487 28.3867 101.728 27.2412 98.8491 27.2375ZM98.8491 44.8126C97.5097 44.8135 96.2002 44.4171 95.0861 43.6737C93.972 42.9302 93.1034 41.8731 92.5902 40.6359C92.077 39.3988 91.9423 38.0372 92.203 36.7234C92.4638 35.4097 93.1083 34.2028 94.055 33.2554C95.0018 32.308 96.2083 31.6626 97.5218 31.401C98.8354 31.1394 100.197 31.2732 101.435 31.7855C102.672 32.2979 103.73 33.1657 104.474 34.2793C105.218 35.3929 105.615 36.7022 105.615 38.0416C105.611 39.835 104.896 41.5537 103.629 42.8224C102.361 44.091 100.643 44.8065 98.8491 44.8126Z" fill="#503B7F"/>
<path d="M42.1975 27.2375C40.0563 27.2421 37.9644 27.881 36.1859 29.0734C34.4074 30.2659 33.022 31.9586 32.2047 33.9377C31.3874 35.9168 31.1748 38.0937 31.5936 40.1936C32.0125 42.2935 33.0441 44.2223 34.5582 45.7364C36.0723 47.2505 38.001 48.2821 40.1009 48.7009C42.2008 49.1198 44.3777 48.9071 46.3569 48.0898C48.336 47.2725 50.0286 45.8872 51.2211 44.1087C52.4136 42.3302 53.0524 40.2383 53.057 38.097C53.0558 35.2173 51.9113 32.4559 49.875 30.4196C47.8387 28.3833 45.0773 27.2388 42.1975 27.2375ZM42.1975 44.8125C40.8583 44.8125 39.5492 44.4154 38.4357 43.6714C37.3223 42.9274 36.4544 41.8699 35.9419 40.6327C35.4294 39.3955 35.2953 38.034 35.5566 36.7206C35.8179 35.4071 36.4627 34.2007 37.4097 33.2537C38.3566 32.3068 39.5631 31.6619 40.8766 31.4006C42.19 31.1394 43.5514 31.2735 44.7887 31.786C46.0259 32.2984 47.0834 33.1663 47.8274 34.2798C48.5714 35.3933 48.9685 36.7024 48.9685 38.0415C48.9624 39.8354 48.2471 41.5541 46.9786 42.8226C45.7101 44.0911 43.9914 44.8064 42.1975 44.8125Z" fill="#503B7F"/>
<path d="M47.6876 27.0664L47.4888 23.5051H93.3595L93.5168 27.0664H47.6876Z" fill="#503B7F"/>
<path d="M89.7148 20.9384L92.1985 18.2559L96.7633 29.6704L93.3177 30.7526L89.7148 20.9384Z" fill="#503B7F"/>
<path d="M51.2952 20.9384L48.8116 18.2559L44.2837 29.6704L47.6877 30.7526L51.2952 20.9384Z" fill="#503B7F"/>
<path d="M92.8785 16.6001C89.5532 20.0041 84.9837 18.1587 83.8644 14.3939C83.425 13.1914 83.7442 11.9519 83.6655 10.9483C84.1184 10.9956 84.5756 10.9832 85.0253 10.9113C86.0187 10.7459 86.9407 10.2894 87.6744 9.59955C88.4081 8.90973 88.9206 8.01767 89.147 7.03635C89.3733 6.05502 89.3033 5.0286 88.9459 4.08709C88.5884 3.14558 87.9595 2.33135 87.1389 1.74752C86.3183 1.1637 85.3429 0.836558 84.3363 0.807534C83.3296 0.77851 82.337 1.04891 81.4841 1.58448C80.6312 2.12006 79.9565 2.89671 79.5454 3.81606C79.1343 4.7354 79.0052 5.75609 79.1747 6.74882C79.346 7.7217 79.7921 8.62524 80.4604 9.3527C76.5708 11.9566 68.6389 21.6506 73.0882 26.0582C76.4922 29.4252 85.6682 33.8698 79.2163 41.8433C78.578 42.6434 81.2605 43.3649 82.0607 42.4816C83.927 40.4005 85.0778 37.7763 85.3444 34.9937C85.8069 31.4648 82.8608 27.9406 80.9784 25.3367C79.7759 23.6948 81.3392 18.0847 82.944 19.3658C85.5849 21.9697 89.5115 22.6912 91.9952 19.3658C92.7167 19.0467 93.637 16.0034 92.8785 16.5631V16.6001Z" fill="#503B7F"/>
<path d="M48.15 16.6001C51.4754 20.0041 56.0403 18.1587 57.1641 14.3939C57.6035 13.1914 57.2844 11.9519 57.363 10.9483C56.9101 10.9956 56.4529 10.9831 56.0033 10.9113C54.8857 10.7262 53.8619 10.1734 53.094 9.34055C52.3262 8.50767 51.8583 7.44236 51.7645 6.31345C51.6707 5.18455 51.9564 4.05663 52.5762 3.10845C53.1961 2.16028 54.1146 1.44609 55.1863 1.07909C56.258 0.712083 57.4215 0.713256 58.4925 1.08242C59.5635 1.45157 60.4806 2.1676 61.0985 3.11702C61.7164 4.06644 61.9998 5.19493 61.9037 6.32365C61.8077 7.45236 61.3376 8.51674 60.5681 9.34806C64.4531 11.9519 72.3896 21.6459 67.9404 26.0536C64.5364 29.4206 55.3604 33.8652 61.8123 41.8387C62.4505 42.6388 59.768 43.3603 58.9679 42.4769C57.1001 40.3963 55.9477 37.7722 55.6795 34.9891C55.2401 31.4602 58.1678 27.9359 60.0501 25.3321C61.248 23.6902 59.6894 18.0801 58.0845 19.3612C55.439 21.9651 51.517 22.6866 49.0334 19.3612C48.3119 19.0421 47.3869 15.9988 48.15 16.5584V16.6001Z" fill="#503B7F"/>
<path d="M84.3036 41.6907H78.7767C78.3373 41.6907 77.9766 42.1532 77.9766 42.7729C77.9766 43.3742 78.3373 43.8552 78.7767 43.8552H84.3036C84.7661 43.8552 85.1037 43.3927 85.1037 42.7729C85.1037 42.1717 84.7429 41.6907 84.3036 41.6907Z" fill="#503B7F"/>
<path d="M62.3902 41.6907H56.8633C56.4008 41.6907 56.0586 42.1532 56.0586 42.7729C56.0586 43.3742 56.4193 43.8552 56.8633 43.8552H62.3902C62.8527 43.8552 63.1903 43.3927 63.1903 42.7729C63.1903 42.1717 62.8296 41.6907 62.3902 41.6907Z" fill="#503B7F"/>
<path d="M77.0933 34.041H63.9953C63.7358 34.0702 63.4981 34.1998 63.333 34.4021C63.1679 34.6043 63.0885 34.8632 63.1119 35.1233C63.0898 35.3826 63.1697 35.6403 63.3347 35.8415C63.4997 36.0428 63.7367 36.1717 63.9953 36.2009H77.0933C77.3519 36.1717 77.5889 36.0428 77.7539 35.8415C77.9189 35.6403 77.9988 35.3826 77.9767 35.1233C78.0001 34.8632 77.9207 34.6043 77.7556 34.4021C77.5905 34.1998 77.3528 34.0702 77.0933 34.041Z" fill="#503B7F"/>
<path d="M61.1002 42.2503C62.0622 38.726 62.2194 38.1248 63.1444 34.6005C63.1943 34.4878 63.2663 34.3862 63.356 34.3017C63.4457 34.2172 63.5514 34.1515 63.6669 34.1084C63.7823 34.0653 63.9052 34.0458 64.0284 34.0508C64.1515 34.0559 64.2724 34.0856 64.3839 34.138C64.9436 34.2999 65.3459 34.7809 65.2257 35.1786L63.1814 42.833C63.075 43.0556 62.8862 43.2282 62.6551 43.3145C62.4239 43.4007 62.1682 43.3939 61.9419 43.2955C61.3869 43.1336 60.9892 42.6526 61.1002 42.2503Z" fill="#503B7F"/>
<path d="M80.1366 42.4538C79.1746 38.9249 79.0173 38.3283 78.097 34.7994C77.9896 34.5765 77.8 34.4038 77.5681 34.3176C77.3361 34.2313 77.0798 34.2383 76.8528 34.3369C76.2932 34.4988 75.8908 34.9798 76.0111 35.3822L78.0553 43.0319C78.1052 43.1446 78.1772 43.2462 78.2669 43.3307C78.3566 43.4152 78.4623 43.4809 78.5778 43.524C78.6932 43.5671 78.8161 43.5867 78.9393 43.5816C79.0624 43.5765 79.1833 43.5469 79.2948 43.4944C79.8591 43.3325 80.2568 42.8515 80.1366 42.4538Z" fill="#503B7F"/>
</symbol><symbol id="icon-dotnext" viewBox="0 0 83 31">
<g clip-path="url(#clip0)">
<path d="M28.0737 1.96863C29.5379 3.37322 29.6738 5.80085 29.6738 7.64184C29.6738 9.48283 29.5069 11.9343 28.0737 13.3127C26.5522 14.7912 24.1222 14.7912 22.4935 14.7912C20.8647 14.7912 18.4395 14.7912 16.9133 13.3127C15.2988 11.7602 15.2988 9.21097 15.2988 7.64184C15.2988 5.73407 15.4038 3.40184 16.9133 1.96863C18.4657 0.490115 20.7884 0.490112 22.4935 0.490112C24.1985 0.490112 26.5355 0.490115 28.0737 1.96863ZM18.8878 11.548C19.7034 12.6044 21.034 12.7093 22.4935 12.7093C23.9529 12.7093 25.2693 12.6044 26.1135 11.548C26.5666 10.9756 26.9743 9.90492 26.9743 7.65614C26.9743 5.24282 26.5522 4.27702 26.1135 3.73331C25.3003 2.70789 23.9124 2.58865 22.4935 2.58865C21.0293 2.58865 19.7177 2.70789 18.8878 3.73331C18.3441 4.41295 18.0293 5.51468 18.0293 7.65614C18.0293 9.93353 18.4204 10.9756 18.8878 11.548Z" fill="white"/>
<path d="M30.6689 0.761841H44.1997V3.08454H38.5575L38.5742 14.927H36.2801L36.2658 3.08454H30.6689V0.761841Z" fill="white"/>
<path d="M13.5346 7.65607C13.5346 13.222 11.7079 14.8507 6.58078 14.8507C4.13646 14.8507 2.09993 14.7768 0.244629 14.6552V0.699886C2.11423 0.592574 4.09115 0.501955 6.58078 0.501955C11.7079 0.461415 13.5346 2.09017 13.5346 7.65607ZM10.878 7.61553C10.878 3.82862 9.83828 2.75789 6.56409 2.75789H2.76287V12.4422C3.89561 12.4589 5.16188 12.4875 6.54978 12.4875C9.83828 12.4684 10.878 11.3977 10.878 7.61553Z" fill="white"/>
<path d="M27.6067 30.449V19.9038L35.2997 29.9816C35.2997 29.9816 35.7218 30.5396 37.0358 30.4585C38.2567 30.3822 38.6049 29.3258 38.5882 28.6939V16.3149H36.2536L36.3585 27.046L28.9063 17.0446C28.9063 17.0446 28.4699 16.2886 27.2776 16.3053C25.9517 16.3053 25.1504 17.2592 25.1313 18.1296V30.4538L27.6067 30.449Z" fill="white"/>
<path d="M39.7952 23.4046V28.6224C39.7952 28.6224 39.645 30.5301 42.1346 30.4777C44.6242 30.4252 52.3888 30.4777 52.3888 30.4777V28.0643H42.4804V24.5946H52.1336V22.2433L42.4804 22.2576V18.6376H52.3912V16.3292H41.6958C41.6958 16.3292 39.8262 16.4508 39.8119 18.2608C39.7976 20.0708 39.7952 23.4046 39.7952 23.4046Z" fill="white"/>
<path d="M53.7334 16.3151H56.8407L60.8517 21.4589L64.9415 16.3151H67.9868L62.4519 23.4954L67.8818 30.4492L64.7292 30.4778L60.8517 25.4413L56.9766 30.4778L53.7334 30.4492L59.1944 23.4048L53.7334 16.3151Z" fill="white"/>
<path d="M69.2104 16.3151H82.7555V18.6378H77.099L77.1133 30.4778H74.8217L74.8073 18.6378H69.2104V16.3151Z" fill="white"/>
</g>

</symbol><symbol id="icon-geo" viewBox="0 0 16 16">
<g clip-path="url(#clip0)">
<path d="M8.0319 0C5.3335 0 2.89209 2.18153 2.89209 4.87636C2.89209 7.57118 5.12148 10.7857 8.0319 15.399C10.9423 10.7857 13.1717 7.57118 13.1717 4.87636C13.1717 2.18153 10.7303 0 8.0319 0ZM8.0319 8.56571C6.13017 8.56571 4.59465 7.03222 4.59465 5.13301C4.59465 3.23379 6.13017 1.70031 8.0319 1.70031C9.93363 1.70031 11.4691 3.23379 11.4691 5.13301C11.4691 7.03222 9.93363 8.56571 8.0319 8.56571Z" fill="black"/>
<path d="M8.03182 6.8462C8.97921 6.8462 9.74723 6.0792 9.74723 5.13306C9.74723 4.18692 8.97921 3.41992 8.03182 3.41992C7.08442 3.41992 6.31641 4.18692 6.31641 5.13306C6.31641 6.0792 7.08442 6.8462 8.03182 6.8462Z" fill="black"/>
</g>

</symbol><symbol id="icon-heisenbug" viewBox="0 0 96 18">
<g clip-path="url(#clip0)">
<path fill-rule="evenodd" clip-rule="evenodd" d="M6.95873 13.3867V7.82792H2.72192V13.3867H0.338867V0.603516H2.72192V5.75593H6.95873V0.603516H9.3468V13.3867H6.95873Z" fill="white"/>
<path fill-rule="evenodd" clip-rule="evenodd" d="M12.3872 13.3867V0.603516H20.3842V2.63789H14.7778V5.79355H19.9126V7.79281H14.7778V11.3498H20.5322V13.3867H12.3872Z" fill="white"/>
<path d="M25.3939 0.603516H23.0059V13.3867H25.3939V0.603516Z" fill="white"/>
<path fill-rule="evenodd" clip-rule="evenodd" d="M28.123 4.98578V3.13202C28.123 2.29586 28.3563 1.65119 28.8229 1.19799C29.2894 0.74479 29.9584 0.521533 30.8296 0.528222H34.1885C35.0263 0.528222 35.6785 0.75148 36.1351 1.19799C36.5916 1.6445 36.8249 2.28917 36.8249 3.13453V4.43392H34.4745V3.17968C34.4745 2.75324 34.2412 2.53751 33.7595 2.53751H31.1934C30.7193 2.53751 30.4785 2.75324 30.4785 3.18219V4.63209C30.4652 4.79811 30.5001 4.96443 30.5788 5.11121C30.6841 5.23248 30.8307 5.31027 30.9902 5.32945L35.1718 6.40558C36.3583 6.72416 36.9553 7.4466 36.9553 8.57039V10.8656C36.9553 11.7018 36.7229 12.3465 36.258 12.7997C35.7931 13.2529 35.1242 13.4761 34.2512 13.4694H30.6541C29.7987 13.4694 29.149 13.2462 28.6899 12.7997C28.2309 12.3532 28.0151 11.7085 28.0151 10.8656V9.67161H30.3656V10.828C30.3656 11.257 30.5989 11.4702 31.078 11.4702H33.8649C34.344 11.4702 34.5848 11.257 34.5848 10.828V9.04951C34.5931 8.89484 34.5426 8.74276 34.4436 8.62369C34.3445 8.50462 34.2041 8.42735 34.0505 8.40734L29.7861 7.28856C28.6841 7.00761 28.133 6.24337 28.133 4.99582" fill="white"/>
<path fill-rule="evenodd" clip-rule="evenodd" d="M39.6113 13.3867V0.603516H47.6058V2.63789H41.9919V5.79355H47.1267V7.79281H41.9919V11.3498H47.7463V13.3867H39.6113Z" fill="white"/>
<path fill-rule="evenodd" clip-rule="evenodd" d="M57.0456 13.3867L52.4626 5.13382V13.3867H50.2275V0.603516H52.4225L56.9904 8.83132V0.603516H59.233V13.3867H57.0456Z" fill="white"/>
<path fill-rule="evenodd" clip-rule="evenodd" d="M63.497 15.1827L62.4937 14.9319V4.52673H69.545C70.4129 4.52673 71.0802 4.75751 71.5518 5.21406C72.0233 5.6706 72.2441 6.33033 72.2441 7.18321V8.68829C72.2441 9.70172 71.7942 10.3706 70.8945 10.6951C71.9782 10.9158 72.5209 11.5939 72.5225 12.7294V14.6534C72.5225 15.5189 72.2892 16.1786 71.8327 16.6326C71.3762 17.0867 70.7064 17.3099 69.8259 17.3099H63.5046L63.497 15.1827ZM69.1587 6.54355H64.8717V9.70172H69.1913C69.6478 9.70172 69.8736 9.48849 69.8736 9.06205V7.2108C69.8736 6.76931 69.6328 6.54355 69.1587 6.54355ZM69.4471 11.7085H64.8717V15.2806H69.4296C69.9037 15.2806 70.1445 15.0498 70.1445 14.5857V12.3682C70.1445 11.9292 69.9112 11.7085 69.4471 11.7085Z" fill="white"/>
<path fill-rule="evenodd" clip-rule="evenodd" d="M95.6611 14.6759C95.6611 15.5439 95.4354 16.2086 94.9713 16.6827C94.5072 17.1568 93.8375 17.3801 92.9645 17.3801H89.6032C88.7352 17.3801 88.0663 17.1476 87.5964 16.6827C87.1265 16.2178 86.8932 15.5489 86.8965 14.6759V7.15051C86.8965 6.28257 87.1298 5.61365 87.5964 5.14372C88.063 4.6738 88.7319 4.44135 89.6032 4.44637H92.9695C93.8375 4.44637 94.5064 4.67882 94.9763 5.14372C95.4404 5.60779 95.6661 6.27254 95.6661 7.15051V8.46996H93.3232V7.21572C93.337 7.11886 93.328 7.02013 93.2971 6.9273C93.2662 6.83448 93.2142 6.75009 93.1451 6.68079C93.0761 6.61149 92.9919 6.55917 92.8992 6.52793C92.8064 6.4967 92.7077 6.48742 92.6108 6.50081H90.007C89.5254 6.50081 89.2946 6.73911 89.2946 7.21572V14.6333C89.2946 15.1099 89.5254 15.3482 90.007 15.3482H92.6058C92.7027 15.3616 92.8014 15.3523 92.8941 15.3211C92.9869 15.2898 93.0711 15.2375 93.1401 15.1682C93.2092 15.0989 93.2612 15.0145 93.2921 14.9217C93.323 14.8289 93.3319 14.7302 93.3182 14.6333V12.6917H91.4494V10.8054H95.6611V14.6759Z" fill="white"/>
<path fill-rule="evenodd" clip-rule="evenodd" d="M84.1043 10.093L83.6026 9.89988L83.1009 9.70924V4.52673H80.7203V9.70172L81.6435 10.0855L81.7438 10.1482V14.5782C81.7576 14.6753 81.7487 14.7743 81.7176 14.8673C81.6866 14.9604 81.6343 15.0449 81.565 15.1143C81.4956 15.1836 81.4111 15.2359 81.318 15.2669C81.225 15.298 81.126 15.3069 81.0289 15.2931H78.2018C78.1049 15.3065 78.0062 15.2972 77.9135 15.266C77.8208 15.2347 77.7366 15.1824 77.6675 15.1131C77.5985 15.0438 77.5464 14.9594 77.5155 14.8666C77.4846 14.7738 77.4757 14.6751 77.4894 14.5782V10.1633L76.5212 9.79453V4.52673H75.1089V14.676C75.1089 15.544 75.3397 16.2087 75.8062 16.6828C76.2728 17.1569 76.9376 17.3802 77.798 17.3802H81.4127C82.2831 17.3802 82.9403 17.1469 83.4069 16.6828C83.8735 16.2187 84.1043 15.554 84.1043 14.676V10.093Z" fill="white"/>
</g>

</symbol><symbol id="icon-holyjs" viewBox="0 0 56 44">
<path fill-rule="evenodd" clip-rule="evenodd" d="M37.7533 29.2717V30.9926L39.7133 30.6426V28.9276L37.7533 29.2717ZM41.0842 28.6884V30.4384L43.0442 30.0942V28.3442L41.0842 28.6884ZM44.415 28.1051V29.8201L46.375 29.4759V27.7259L44.415 28.1051ZM15.3592 25.0834V32.4801C15.3713 32.5806 15.3627 32.6826 15.3338 32.7797C15.305 32.8768 15.2565 32.9669 15.1915 33.0446C15.1264 33.1222 15.0461 33.1857 14.9556 33.231C14.865 33.2764 14.7661 33.3028 14.665 33.3084L12.1508 33.7517C11.7075 33.8276 11.5325 33.6817 11.5325 33.2326V31.6167L9.59 31.9609V33.4251C9.59 35.0351 10.5117 35.8109 12.1042 35.5309L14.8808 35.0409C15.5866 34.967 16.2359 34.6212 16.6911 34.0767C17.1463 33.5323 17.3715 32.832 17.3192 32.1242V24.7101L15.3592 25.0834ZM25.8008 23.2459L23.0942 23.7184C21.6067 23.9809 20.6558 24.8851 20.6558 26.4367V27.1426C20.6558 28.2101 21.1458 28.9392 22.2542 29.0326L26.0225 29.3534C26.2792 29.3534 26.3725 29.4817 26.3725 29.7384V30.7301C26.3725 31.1851 26.0867 31.3601 25.6667 31.4301L23.1233 31.8792C22.75 31.9434 22.4933 31.9201 22.4933 31.4884V30.1059L20.5625 30.4442V31.6751C20.5625 33.2617 21.5483 33.8684 23.0475 33.6059L25.865 33.1101C27.3583 32.8476 28.3208 31.9434 28.3208 30.3859V29.2192C28.3374 28.9901 28.3055 28.7601 28.2271 28.5442C28.1488 28.3283 28.0258 28.1313 27.8661 27.9662C27.7065 27.801 27.5138 27.6714 27.3006 27.5858C27.0875 27.5001 26.8587 27.4604 26.6292 27.4692L22.9367 27.1484C22.6042 27.1484 22.5867 27.0259 22.5867 26.7051V26.1217C22.5867 25.6609 22.8725 25.4917 23.2925 25.4217L25.7192 24.9959C26.0983 24.9259 26.355 24.9551 26.355 25.3809V26.8334L28.28 26.4892V25.1417C28.28 23.8117 27.545 23.1584 26.4133 23.1584C26.2078 23.1586 26.0027 23.1782 25.8008 23.2167V23.2459ZM35.9217 20.7726L31.745 32.5967L33.7575 32.2409L37.9167 20.4167L35.9217 20.7726ZM15.3592 12.6584V16.4792L11.55 17.1501V13.3292L9.59 13.6734V23.4909L11.55 23.1467V18.9409L15.3592 18.2642V22.4759L17.3192 22.1259V12.3142L15.3592 12.6584ZM22.5225 18.7601V13.8601C22.5112 13.7623 22.52 13.6632 22.5484 13.5689C22.5767 13.4746 22.624 13.3871 22.6874 13.3118C22.7507 13.2364 22.8288 13.1748 22.9168 13.1306C23.0048 13.0865 23.1009 13.0608 23.1992 13.0551L25.7192 12.6059C26.1508 12.5301 26.3025 12.6642 26.3025 13.1076V18.0834C26.3175 18.2705 26.2597 18.4561 26.1413 18.6017C26.0229 18.7473 25.8529 18.8416 25.6667 18.8651L23.1525 19.3084H22.9717C22.6333 19.3259 22.5225 19.1334 22.5225 18.7601ZM25.7775 10.8092L23.0008 11.2992C22.295 11.3731 21.6457 11.7189 21.1906 12.2634C20.7354 12.8079 20.5101 13.5082 20.5625 14.2159V19.0051C20.5625 20.6209 21.49 21.3967 23.0767 21.1167L25.8533 20.6267C26.5591 20.5529 27.2084 20.207 27.6636 19.6626C28.1188 19.1181 28.344 18.4178 28.2917 17.7101V12.9209C28.2917 11.5209 27.5975 10.7509 26.3842 10.7509C26.1807 10.7541 25.9778 10.7736 25.7775 10.8092ZM31.5 9.81174V19.6234L38.185 18.4567V16.6601L33.4658 17.5001V9.46758L31.5 9.81174ZM44.4675 7.52507V8.86674C44.4721 9.11773 44.4097 9.36541 44.2867 9.58424L42.5075 12.6176L40.7108 10.1676C40.5949 9.97872 40.5399 9.75876 40.5533 9.53757V8.21341L38.6108 8.55757V9.97507C38.5883 10.3524 38.6886 10.727 38.8967 11.0426L41.51 14.6009V17.8617L43.47 17.5176V14.2567L46.0775 9.8234C46.2809 9.46905 46.3819 9.06514 46.3692 8.65674V7.19257L44.4675 7.52507ZM5.66417 28.4842L2.7475 26.0342L5.66417 22.6334V10.5001L50.295 2.60174V14.6242L53.2408 17.0801L50.295 20.5101V32.6959L44.415 33.7576V39.9234L33.005 35.7701L5.66417 40.5942V28.4842ZM3.70417 8.84924V22.1026L0 26.4367L3.72167 29.5517V42.9042L32.8067 37.7767L46.3925 42.7234V35.3792L52.2725 34.3176V21.0584L56 16.6776L52.2375 13.5451V0.262573L3.70417 8.84924Z" fill="white"/>
</symbol><symbol id="icon-joker" viewBox="0 0 70 21">
<path d="M15.5867 11.9004C15.5101 11.8689 15.4313 11.8432 15.351 11.8236C15.2255 11.7875 15.0912 11.7604 14.9502 11.7333C14.8092 11.7061 14.6771 11.679 14.5516 11.6429C14.426 11.6068 14.3534 11.5774 14.3313 11.5413L14.1816 11.6203C13.8262 11.7763 13.5044 12.0028 13.2345 12.2866C12.9497 12.5786 12.7011 12.9056 12.4945 13.2601C12.286 13.6203 12.126 14.0078 12.0188 14.4121C11.9128 14.8135 11.8581 15.2273 11.8559 15.6431C11.8453 16.0501 11.9126 16.4553 12.0541 16.8357C12.1755 17.1505 12.3575 17.4371 12.5892 17.6782C12.8054 17.902 13.065 18.0767 13.3513 18.1909C13.6226 18.2985 13.9105 18.3552 14.2014 18.3581C14.5712 18.3624 14.9375 18.2838 15.2745 18.1278C15.6116 17.9717 15.9113 17.7419 16.1527 17.4546C16.6857 16.8523 16.9522 16.0452 16.9522 15.0332C16.9539 14.4631 16.8692 13.8962 16.7011 13.3528C16.49 12.7566 16.0948 12.2474 15.5757 11.9027L15.5867 11.9004ZM17.6812 18.078C17.2507 18.5706 16.7467 18.9899 16.1879 19.3203C15.6459 19.6474 15.0285 19.8197 14.3996 19.8195C13.7912 19.8333 13.188 19.7018 12.6377 19.4355C12.1594 19.1967 11.736 18.8564 11.3956 18.4371C11.0707 18.0265 10.8241 17.5568 10.6688 17.0525C10.5104 16.5559 10.4294 16.0368 10.4287 15.5143C10.4387 14.9845 10.5195 14.4586 10.6688 13.9513C10.8283 13.3703 11.0561 12.8113 11.3471 12.2866C11.623 11.7795 11.9855 11.3273 12.4175 10.9517C12.8053 10.6024 13.3042 10.4104 13.8204 10.4119C13.9653 10.405 14.1087 10.4449 14.2304 10.5259C14.3521 10.6069 14.4459 10.7251 14.4987 10.8636C14.6298 10.7691 14.7728 10.6931 14.9238 10.6378C15.0764 10.5809 15.2371 10.5503 15.3995 10.5474C15.689 10.5458 15.9772 10.5892 16.254 10.6762C16.4453 10.724 16.6246 10.8125 16.7804 10.9359C17.3837 11.3763 17.8441 11.9925 18.1018 12.7045C18.3765 13.5267 18.5055 14.3926 18.4828 15.2614C18.483 15.7741 18.4246 16.285 18.3088 16.7838C18.2043 17.2603 17.9898 17.7041 17.6834 18.078H17.6812Z" fill="white"/>
<path d="M22.7066 14.6944L22.8057 14.8728C23.0256 15.2754 23.3126 15.6355 23.6536 15.9367C24.0192 16.2687 24.4134 16.6143 24.8274 16.9486C24.9948 17.0999 25.2041 17.2761 25.4639 17.4748C25.7249 17.6752 25.9756 17.8893 26.2149 18.1163C26.4366 18.3248 26.6414 18.5514 26.8272 18.7939C26.978 18.9724 27.0664 19.1973 27.0783 19.4332C27.0709 19.6345 26.9927 19.8263 26.858 19.973C26.7897 20.0575 26.7033 20.1247 26.6055 20.1693C26.5077 20.214 26.4012 20.2349 26.2942 20.2305C26.1601 20.2287 26.0289 20.1898 25.9145 20.1178C25.8001 20.0459 25.7068 19.9435 25.6445 19.8217C25.4237 19.4704 25.1586 19.1507 24.8561 18.8707C24.5323 18.5635 24.1954 18.2541 23.8298 17.9379C23.4642 17.6217 23.1074 17.3009 22.7286 16.9779C22.3645 16.6639 22.025 16.321 21.7133 15.9525V17.7278C21.7133 17.9537 21.7133 18.236 21.7419 18.5364C21.7585 18.8138 21.749 19.0922 21.7133 19.3677C21.6901 19.5998 21.6148 19.8233 21.493 20.0204C21.4301 20.1112 21.3453 20.1837 21.2468 20.2309C21.1484 20.278 21.0397 20.2981 20.9314 20.2892C20.8303 20.2931 20.7296 20.275 20.6358 20.2361C20.5421 20.1971 20.4574 20.1383 20.3874 20.0633C20.3154 19.9898 20.2588 19.902 20.2209 19.8054C20.1831 19.7087 20.1648 19.6051 20.1672 19.5009V14.9383C20.1672 13.5048 20.1885 12.0833 20.2311 10.6738C20.2737 9.26439 20.3713 7.84215 20.524 6.40711C20.524 6.30666 20.5435 6.20722 20.5813 6.11455C20.6191 6.02188 20.6745 5.93783 20.7442 5.86728C20.8148 5.79314 20.8995 5.73478 20.9932 5.69591C21.0868 5.65703 21.1873 5.63848 21.2882 5.64141C21.4307 5.62061 21.5758 5.65293 21.697 5.73252C21.8183 5.8121 21.9077 5.93365 21.9489 6.07508C22.0339 6.37446 22.0762 6.68485 22.0745 6.99664C22.0749 7.07214 22.0705 7.1476 22.0613 7.22251C22.0613 7.29479 22.0392 7.36707 22.0238 7.44838C21.8917 8.47384 21.8043 9.48575 21.7617 10.4841C21.7192 11.4825 21.6986 12.4944 21.7001 13.5198C21.9588 13.2206 22.255 12.9578 22.581 12.7383C22.9246 12.5124 23.2704 12.2866 23.6316 12.0471C23.9927 11.8077 24.3451 11.5751 24.6953 11.3176C25.047 11.0597 25.3588 10.7491 25.6203 10.396C25.6946 10.2989 25.7896 10.2205 25.898 10.1669C26.0065 10.1132 26.1254 10.0858 26.2458 10.0866C26.3512 10.0831 26.456 10.1028 26.5533 10.1445C26.6506 10.1862 26.738 10.2489 26.8096 10.3283C26.9448 10.4682 27.0234 10.6554 27.0298 10.8523C27.0317 10.9359 27.0171 11.019 26.9868 11.0966C26.9566 11.1743 26.9112 11.2448 26.8536 11.304C26.5884 11.6977 26.2538 12.0371 25.867 12.3046C25.4749 12.5779 25.0785 12.8354 24.6799 13.0726C24.2813 13.3098 23.9024 13.5582 23.5435 13.8044C23.2106 14.0293 22.9259 14.3214 22.7066 14.6627V14.6898V14.6944Z" fill="white"/>
<path d="M35.996 18.1503C35.7104 18.7343 35.2463 19.2063 34.6745 19.4942C34.1105 19.7917 33.4852 19.9466 32.851 19.946C32.4655 19.946 32.0779 19.9347 31.6771 19.9076C31.2848 19.8846 30.8959 19.8203 30.5164 19.7156C30.1434 19.6154 29.7855 19.4634 29.4527 19.2639C29.1098 19.0567 28.8103 18.7819 28.5717 18.4552C28.2015 17.9895 27.9145 17.4604 27.7238 16.8922C27.5366 16.3317 27.4413 15.7432 27.4419 15.1507C27.4433 13.9453 27.858 12.7787 28.6136 11.8553C28.998 11.3975 29.4674 11.0228 29.9945 10.753C30.5563 10.4684 31.176 10.3244 31.8026 10.3329C32.1223 10.3333 32.4409 10.3719 32.7518 10.4481C33.0591 10.5238 33.3553 10.6408 33.6328 10.7959C33.9073 10.9503 34.1521 11.1546 34.3552 11.399C34.5668 11.6529 34.7324 11.9435 34.8441 12.2573L34.9696 12.6164C35.0011 12.6794 35.0177 12.749 35.0181 12.8197C35.0127 12.897 34.9964 12.9731 34.9696 13.0456L34.919 13.3031C34.8053 13.4569 34.7297 13.6367 34.6987 13.8271C34.6703 14.0182 34.5945 14.1987 34.4785 14.3511L34.2274 14.7103C34.1862 14.7883 34.1263 14.8543 34.0535 14.9023C33.983 14.9469 33.9094 14.9862 33.8332 15.0197L33.3575 15.1711L32.1968 15.4286C31.8059 15.5143 31.4073 15.5574 31.0076 15.5573C30.8402 15.5573 30.6662 15.5573 30.4834 15.5347C30.3065 15.5198 30.1328 15.478 29.968 15.4105C29.8195 15.3502 29.6867 15.255 29.5804 15.1327C29.4787 15.0057 29.4255 14.8451 29.4307 14.6809C29.4264 14.5758 29.4438 14.471 29.4818 14.3733C29.5197 14.2757 29.5774 14.1873 29.6509 14.114C29.7823 13.9745 29.9618 13.8934 30.1508 13.8881C30.2933 13.8886 30.4352 13.906 30.5737 13.9401C30.7183 13.9728 30.866 13.9894 31.0142 13.9897C31.3419 13.9902 31.6688 13.9561 31.9898 13.8881C32.3048 13.8181 32.6131 13.7526 32.9148 13.6826L33.0624 13.6306L33.2386 13.267C33.2723 13.2138 33.3017 13.1579 33.3267 13.0998C33.3499 13.0413 33.3787 12.9854 33.4126 12.9327L33.3134 12.7068C33.1475 12.4441 32.9144 12.2331 32.6395 12.0969C32.3746 11.9681 32.0848 11.9017 31.7916 11.9027C31.4316 11.9055 31.077 11.992 30.7543 12.1557C30.4104 12.3285 30.1017 12.5669 29.8447 12.8581C29.5739 13.1577 29.3509 13.4992 29.184 13.87C29.0177 14.2405 28.932 14.6436 28.9329 15.0513C28.9365 15.4312 28.9786 15.8097 29.0584 16.1807C29.1391 16.5778 29.3012 16.9528 29.5342 17.2807C29.7837 17.627 30.1087 17.9086 30.4834 18.1029C30.9651 18.3337 31.4937 18.443 32.0251 18.4214C32.5575 18.422 33.0859 18.3272 33.5865 18.1413C34.0744 17.9687 34.4927 17.6351 34.7758 17.1926C34.8254 17.0882 34.9038 17.001 35.0013 16.942C35.0988 16.8829 35.2111 16.8546 35.3242 16.8606C35.5381 16.8669 35.7424 16.9528 35.899 17.1023C35.984 17.1714 36.0526 17.2593 36.0999 17.3594C36.1472 17.4595 36.1719 17.5693 36.1721 17.6805C36.167 17.852 36.0957 18.0145 35.9739 18.1322L35.996 18.1503Z" fill="white"/>
<path d="M40.0176 19.894C40.0264 19.9843 40.0165 20.0755 39.9884 20.1615C39.9603 20.2476 39.9147 20.3265 39.8547 20.3932C39.7333 20.5358 39.5675 20.6307 39.3855 20.662L39.2072 20.6913C39.1582 20.7079 39.1067 20.7156 39.0552 20.7139C38.9122 20.7222 38.7704 20.6827 38.6513 20.6012C38.5321 20.5197 38.442 20.4007 38.3945 20.2622L38.2689 19.7494C38.2689 19.6634 38.2645 19.5775 38.2557 19.492C38.2557 19.4061 38.2557 19.3203 38.2557 19.2345C38.2557 19.0145 38.2816 18.7953 38.3328 18.5817C38.3813 18.3558 38.4231 18.1593 38.4583 17.9538C38.3747 16.6708 38.241 15.3909 38.0575 14.1139C37.874 12.837 37.7323 11.5571 37.6324 10.2741C37.6291 10.0586 37.694 9.84776 37.8174 9.67329C37.8854 9.58117 37.9749 9.50806 38.0777 9.46069C38.1804 9.41333 38.2932 9.39323 38.4055 9.40225C38.5218 9.40302 38.6353 9.43874 38.7319 9.50498C38.8286 9.57122 38.9043 9.66507 38.9495 9.77494C39.088 10.0583 39.1781 10.3639 39.216 10.6784C39.2666 11.0376 39.3041 11.4125 39.3305 11.8078C39.3569 12.2031 39.3833 12.5509 39.4186 12.8603C39.8884 11.8915 40.5919 11.0618 41.4624 10.4503C41.9046 10.1414 42.3835 9.89172 42.8873 9.70718C43.3812 9.52159 43.903 9.42604 44.429 9.42484C44.6182 9.4286 44.7997 9.50241 44.94 9.63264C45.0172 9.69783 45.0787 9.7805 45.1196 9.87416C45.1605 9.96783 45.1797 10.0699 45.1756 10.1725C45.177 10.3601 45.1112 10.5418 44.9906 10.6829C44.9308 10.7581 44.8565 10.8197 44.7723 10.864C44.6882 10.9083 44.5961 10.9343 44.5017 10.9404C43.6215 11.0042 42.7808 11.3397 42.0901 11.9027C41.3887 12.4662 40.8491 13.2139 40.5286 14.0665C40.4603 14.7148 40.3766 15.3562 40.2665 15.9887C40.1564 16.6211 40.0617 17.2626 39.9802 17.9108V19.2435C39.9802 19.3465 39.9891 19.4493 40.0066 19.5507L40.033 19.9098L40.0176 19.894Z" fill="white"/>
<path d="M50.3375 10.85C50.4628 10.745 50.5961 10.6506 50.7362 10.5677C50.8536 10.5005 50.9749 10.4409 51.0996 10.3893C51.2139 10.3394 51.3365 10.3126 51.4607 10.3102C51.5192 10.3036 51.5783 10.3119 51.6329 10.3343C51.6874 10.3568 51.7357 10.3927 51.7735 10.4389C51.8303 10.5216 51.861 10.6201 51.8616 10.7213C51.8455 11.0876 51.7141 11.4386 51.4872 11.7219C51.2361 12.0607 50.8969 12.5576 50.4631 13.2059C50.2979 13.4465 50.1049 13.6657 49.8882 13.8586C49.6372 14.0845 49.3971 14.2991 49.1637 14.4866C48.9302 14.674 48.7232 14.8276 48.5514 14.9383C48.3796 15.049 48.2871 15.11 48.2871 15.0919C48.3862 15.2116 48.4677 15.3065 48.525 15.372C48.5822 15.4375 48.6351 15.512 48.6879 15.5979C48.7408 15.6837 48.7716 15.7311 48.7871 15.765C48.8313 15.8493 48.8806 15.9308 48.9346 16.009C49.0183 16.1377 49.1218 16.2823 49.2473 16.4449C49.3729 16.6075 49.5028 16.7701 49.6372 16.9328C49.7715 17.0954 49.8948 17.2377 50.0094 17.3551C50.1239 17.4726 50.2715 17.6059 50.4961 17.7933C50.7207 17.9808 50.9476 18.1751 51.1722 18.3829C51.379 18.5718 51.5746 18.7732 51.7581 18.9859C51.8865 19.1053 51.9744 19.2636 52.0091 19.4377C52.0091 19.5393 51.888 19.6184 51.6479 19.6636C51.4462 19.711 51.2404 19.7375 51.0335 19.7426C50.8686 19.7579 50.703 19.7225 50.5578 19.641C50.4895 19.5913 50.2957 19.4151 49.9719 19.1418C49.6482 18.8685 49.2848 18.5432 48.8862 18.1909C48.4875 17.8385 48.0933 17.5133 47.7123 17.1925C47.3313 16.8718 47.0516 16.6572 46.8908 16.5398C46.7794 16.4265 46.6929 16.2901 46.637 16.1397C46.5812 15.9893 46.5573 15.8285 46.5671 15.6679C46.5646 15.3715 46.6107 15.0767 46.7036 14.796C46.7501 14.622 46.8245 14.4571 46.9238 14.3081L47.1132 14.1139L47.5251 13.7051C47.6925 13.5447 47.8753 13.3527 48.0735 13.1426C48.2717 12.9326 48.4809 12.7203 48.699 12.5125C49.1835 12.0185 49.7333 11.4644 50.3485 10.85H50.3375Z" fill="white"/>
<path d="M65.6133 19.5732C65.5002 19.6365 65.3832 19.6923 65.2632 19.7403C65.1488 19.79 65.0262 19.8168 64.902 19.8194C64.8449 19.826 64.7871 19.8192 64.733 19.7997C64.6788 19.7801 64.6297 19.7482 64.5892 19.7065C64.532 19.6283 64.5011 19.5332 64.5011 19.4354C64.5146 19.0558 64.6406 18.6894 64.8623 18.3851C65.1024 18.026 65.4416 17.5494 65.8754 16.9508C66.0531 16.7171 66.2538 16.5029 66.4745 16.3116C66.7255 16.0857 66.9656 15.8847 67.1969 15.6972C67.4281 15.5098 67.7232 15.2884 68.0778 15.0196C68.0778 15.0354 68.036 15.0061 67.9523 14.9202C67.8686 14.8344 67.8113 14.7305 67.732 14.6108C67.6785 14.5386 67.6292 14.4632 67.5845 14.3849C67.5399 14.301 67.4899 14.2202 67.4347 14.1432C67.3385 13.9963 67.2341 13.8553 67.122 13.7209L66.7145 13.2375C66.5963 13.0893 66.4659 12.9517 66.3247 12.8264C66.2256 12.7248 66.0626 12.5757 65.838 12.3747C65.6133 12.1736 65.3975 11.9726 65.1773 11.7625C64.957 11.5525 64.7654 11.3447 64.5914 11.1482C64.457 11.0317 64.3641 10.8729 64.3271 10.6964C64.3271 10.6106 64.4527 10.5451 64.7015 10.4886C64.9073 10.4433 65.1167 10.4176 65.327 10.4118C65.4808 10.3937 65.6361 10.4295 65.7675 10.5135C65.8314 10.5632 66.0296 10.7393 66.3533 11.0127C66.6771 11.286 67.0427 11.6067 67.4545 11.9478C67.8664 12.2888 68.2584 12.6254 68.6416 12.9461L69.4653 13.6373C69.5897 13.712 69.6829 13.831 69.7274 13.9716C69.77 14.1181 69.7908 14.2704 69.7891 14.4233C69.788 14.7321 69.7328 15.0381 69.6261 15.3268C69.5716 15.5013 69.4977 15.6688 69.4058 15.826C69.3207 15.9421 69.2248 16.0495 69.1195 16.1467L68.4985 16.8243C68.2474 17.0818 67.9736 17.3551 67.677 17.6443C67.3804 17.9334 67.1058 18.2029 66.8533 18.4529C66.6022 18.6991 66.3203 18.9882 66.0032 19.3112C65.8828 19.4141 65.753 19.5049 65.6155 19.5822L65.6133 19.5732Z" fill="white"/>
<path d="M5.99937 19.3089C6.18415 19.2242 6.33825 19.0819 6.43984 18.9024L7.06973 17.5833C7.30851 16.6841 7.48369 15.7685 7.59389 14.8434C7.69379 13.9942 7.74527 13.1397 7.74806 12.2843C7.74806 11.5706 7.71943 10.8545 7.67098 10.1521C7.62252 9.44962 7.56746 8.7449 7.508 8.03792C7.44853 7.33094 7.39568 6.62396 7.34282 5.88536C7.28996 5.14676 7.26794 4.3946 7.26794 3.59728V3.41658H9.31615C9.41412 3.41665 9.51112 3.39672 9.60149 3.35794C9.69186 3.31916 9.7738 3.26231 9.84252 3.1907C9.91355 3.12308 9.96988 3.04085 10.0078 2.94939C10.0458 2.85793 10.0645 2.75929 10.0628 2.6599C10.0629 2.55909 10.0435 2.45926 10.0057 2.3662C9.96786 2.27314 9.91241 2.18871 9.84252 2.11781C9.77383 2.04492 9.69128 1.98727 9.59998 1.94842C9.50868 1.90957 9.41058 1.89034 9.31175 1.89194H2.44913C2.35373 1.89104 2.25911 1.90964 2.1708 1.94666C2.08249 1.98369 2.00227 2.03839 1.93481 2.10758C1.86735 2.17677 1.81401 2.25904 1.77791 2.34961C1.7418 2.44018 1.72366 2.53722 1.72455 2.63506C1.72423 2.73557 1.74355 2.83512 1.78138 2.92784C1.8192 3.02056 1.87477 3.10457 1.94478 3.1749C2.01037 3.2482 2.09048 3.30628 2.17975 3.34523C2.26901 3.38419 2.36536 3.40313 2.46234 3.40077H3.00633C3.38734 3.43465 3.77937 3.45498 4.17139 3.46627C4.56342 3.47756 4.94883 3.49789 5.32984 3.52951L5.80996 3.57243V3.60179C5.80996 4.42397 5.83199 5.21678 5.87163 5.96667C5.91127 6.71657 5.95532 7.45065 5.99716 8.16892C6.03901 8.8872 6.08086 9.59644 6.1227 10.2944C6.16455 10.9923 6.18217 11.7061 6.18217 12.4153C6.18217 12.9619 6.18217 13.5221 6.14473 14.0755C6.10729 14.6289 6.06544 15.2207 5.98615 15.8305L5.26157 17.8634L4.86074 17.7775C4.5521 17.6052 4.29367 17.3519 4.11193 17.0434C3.90647 16.7132 3.73662 16.361 3.60538 15.9931C3.4818 15.6613 3.37882 15.3218 3.29705 14.9767C3.21996 14.656 3.17371 14.4459 3.1583 14.3285C3.09443 13.958 3.03276 13.5582 2.98431 13.1404C2.93586 12.7225 2.84336 12.1646 2.70901 11.4328C2.69768 11.3439 2.66926 11.2582 2.62541 11.1806C2.58156 11.1031 2.52314 11.0353 2.45353 10.981C2.32492 10.8871 2.17096 10.8366 2.01306 10.8365C1.82899 10.8375 1.6506 10.902 1.50651 11.0194C1.42566 11.0865 1.36138 11.1722 1.3189 11.2695C1.27642 11.3668 1.25694 11.4731 1.26205 11.5796V11.7242C1.39419 12.4356 1.48228 13.0207 1.54836 13.4747C1.61443 13.9287 1.67609 14.3556 1.76859 14.7508C1.81925 14.9541 1.89193 15.2703 1.98883 15.6837C2.094 16.1445 2.24606 16.5926 2.44252 17.0208C2.66207 17.5018 2.94842 17.9477 3.29264 18.3445C3.66085 18.7793 4.13069 19.1112 4.65812 19.3089L5.22633 19.4332C5.30672 19.4551 5.38991 19.4642 5.473 19.4603C5.65418 19.4524 5.83121 19.4022 5.99056 19.3135L5.99937 19.3089ZM9.43508 0.81453C9.43508 0.81453 11.1177 0.90488 11.1529 2.68249C11.1882 4.46011 9.43508 4.51431 9.43508 4.51431H8.38675C8.38675 4.51431 8.60699 8.29993 8.7149 9.26892C8.82282 10.2379 8.90651 13.2849 8.803 13.7977C8.803 13.7977 8.59597 17.1857 7.7899 18.7104C6.98383 20.235 6.62044 20.5173 5.4708 20.5783C4.32115 20.6393 2.63633 19.7697 1.85449 18.2925C1.09246 16.8605 1.00657 16.8605 0.33044 13.0071C-0.0880129 10.6016 0.574903 10.1634 1.48449 9.81328C1.48449 9.81328 3.46663 9.07467 3.82121 11.5028C4.1758 13.9309 4.38723 15.3426 4.74621 15.9615C4.74621 15.9615 5.18669 15.8712 5.1074 12.0517C5.02812 8.23217 4.7308 4.59789 4.7308 4.59789L2.27294 4.52787C2.27294 4.52787 0.693832 4.45785 0.625558 2.57407C0.557284 0.690302 2.58348 0.812272 2.58348 0.812272L9.43508 0.81453Z" fill="white"/>
<path d="M57.612 17.4162C57.612 17.4162 56.8082 17.6737 56.8126 18.0803C56.817 18.4869 56.7068 19.5417 57.1627 19.5688C57.6186 19.5959 58.3014 19.5259 58.3124 18.7127C58.3234 17.8996 58.1912 17.3146 57.612 17.4162ZM59.2704 18.4914C59.3189 19.4288 59.3871 19.9799 57.9314 20.4136C56.4756 20.8472 56.2069 20.0499 56.2069 20.0499C56.2069 20.0499 55.4295 18.4688 56.088 17.4162C56.7465 16.3637 57.5944 16.4472 57.5944 16.4472C58.744 16.436 59.2154 17.5563 59.266 18.4959L59.2704 18.4914Z" fill="white"/>
<path d="M57.1562 14.7328C57.1562 14.7328 57.654 14.9903 58.0922 14.1772C58.5305 13.364 59.57 11.4667 59.7154 11.2205C59.8608 10.9743 61.8627 7.96344 62.138 6.75954C62.4133 5.55564 62.6864 3.76674 61.0368 2.36859C59.3872 0.970442 58.4116 1.30925 57.9535 1.37249C57.4954 1.43574 55.8965 2.25565 55.0001 4.37207C55.0001 4.37207 54.3658 5.31848 55.0001 5.60308C55.6344 5.88768 55.9449 5.39302 56.0793 4.87351C56.2136 4.354 57.0505 2.61479 57.9733 2.40473C58.8961 2.19467 59.5304 2.40473 60.0634 2.9423C60.5964 3.47988 61.1646 4.76283 61.0082 5.84476C60.8518 6.92669 59.9841 8.51457 59.5877 9.11087C59.1912 9.70717 57.6672 11.8507 57.306 12.8061C56.9448 13.7616 56.784 13.8271 56.8149 14.1275C56.8457 14.4279 56.8875 14.5928 57.1562 14.7283V14.7328ZM53.9209 4.23203C54.9891 1.61418 56.8964 0.67681 57.3192 0.520958C57.7421 0.365107 59.4819 -0.240231 61.3914 1.438C63.3009 3.11623 63.27 4.19364 63.1819 5.99836C63.0938 7.80307 61.4399 10.1928 61.3386 10.3148C61.2372 10.4367 59.3961 13.7435 58.7353 14.9587C58.0746 16.1739 56.8083 15.7221 56.4691 15.5302C56.1299 15.3382 55.6234 15.0603 55.7775 13.8813C55.9317 12.7022 57.4492 10.3961 58.6825 8.64557C59.9158 6.89506 60.0039 5.80185 59.9665 5.00226C59.929 4.20267 59.189 3.39631 58.6979 3.34436C58.2068 3.29241 58.024 3.45052 57.6165 3.9C57.2091 4.34949 56.7356 5.70698 56.7356 5.70698C55.9097 7.33777 54.2865 6.41847 54.2865 6.41847C53.018 5.63696 53.9143 4.23429 53.9143 4.23429L53.9209 4.23203Z" fill="white"/>
</symbol><symbol id="icon-logo" viewBox="0 0 126 41">
<path d="M99.5718 9.4605V21.3684C99.5718 22.6656 99.777 23.7827 100.187 24.7196C100.606 25.6566 101.184 26.4266 101.921 27.0315C102.667 27.6264 103.552 28.0676 104.578 28.3568C105.604 28.636 106.733 28.7765 107.962 28.7765C109.248 28.7765 110.428 28.6278 111.5 28.3303C112.121 28.1535 112.692 27.9238 113.215 27.6445C113.389 27.8709 113.596 27.9916 113.861 27.9701L113.94 27.9635L113.986 27.9007C114.13 27.704 114.243 27.3487 114.383 26.8646C115.123 26.2465 115.706 25.4781 116.129 24.5593C116.161 24.4866 116.192 24.4106 116.223 24.3362C116.245 24.3709 116.265 24.4023 116.289 24.4404C116.585 24.8832 116.826 25.3162 117.194 25.9755C117.469 26.4696 117.813 27.0843 118.293 27.9073L118.321 27.9536L118.37 27.9767C118.464 28.018 118.55 28.0362 118.627 28.0362C118.921 28.0362 119.1 27.7817 119.196 27.6445L119.23 27.5966L119.237 27.5636C119.514 26.2548 119.244 24.9857 118.984 23.7579C118.895 23.3414 118.805 22.9101 118.738 22.4921C118.555 21.3865 117.943 19.6448 117.784 19.2003C117.864 19.2053 117.907 19.0036 118.015 18.9194C118.823 18.2766 117.55 17.2157 116.79 16.591C116.823 16.6736 116.854 16.7513 116.787 16.5877C116.722 16.4192 116.754 16.4985 116.787 16.5811V9.4605H112.661V12.0962C111.562 11.5526 110.315 11.1361 109.039 10.8982L108.79 10.8519L108.841 11.0932C108.843 11.0998 108.985 11.7773 109.156 12.4664C109.342 13.1191 109.472 13.5438 109.604 13.9801C109.694 14.2808 109.788 14.5882 109.903 14.9798C110.106 14.2164 110.843 13.6496 111.722 13.6496C112.76 13.6496 113.6 14.4362 113.6 15.4062C113.6 16.0556 113.222 16.6224 112.659 16.9265V19.6993C112.336 19.8282 112.078 19.9671 111.76 20.1802C111.736 20.1951 111.717 20.2116 111.697 20.2281C111.495 19.4531 111.302 18.6864 111.182 18.0485C111.141 17.8271 111.026 17.4222 110.893 16.981C110.731 16.9066 110.582 16.8108 110.45 16.6968C110.599 17.176 110.737 17.6453 110.809 17.9394L109.8 19.0896C109.33 19.5705 109.181 20.1158 109.392 20.5867C109.624 21.1073 110.26 21.4163 111.026 21.375C111.117 21.7831 111.421 22.1401 111.909 22.4227C111.915 22.4508 111.922 22.4788 111.929 22.5069C112.02 22.892 112.086 23.2076 112.138 23.472C111.934 23.8802 111.68 24.2288 111.372 24.5197C110.972 24.9064 110.486 25.1955 109.917 25.3839C109.357 25.564 108.742 25.6549 108.07 25.6549C107.408 25.6549 106.806 25.569 106.266 25.3988C105.726 25.2187 105.264 24.9444 104.881 24.5742C104.498 24.1958 104.206 23.7182 104 23.1415C103.795 22.5565 103.693 21.8625 103.693 21.0594V9.4605H99.5718ZM117.551 18.5608C117.481 18.3741 117.389 18.1328 117.286 17.8634C117.483 18.0915 117.869 18.336 117.551 18.5608ZM116.787 17.5114C116.845 17.6585 116.9 17.8056 116.955 17.9444C116.898 17.9031 116.843 17.8634 116.787 17.8254V17.5114ZM116.787 21.1651V20.2414C117.054 20.0596 117.326 19.782 117.524 19.4829C117.741 20.1026 118.24 21.5733 118.401 22.54C118.468 22.9663 118.56 23.4009 118.649 23.8223C118.9 25.0072 119.16 26.2333 118.909 27.4644C118.772 27.6594 118.69 27.7305 118.56 27.6925C118.097 26.8976 117.763 26.2994 117.493 25.8169C117.122 25.1526 116.878 24.713 116.578 24.2635C116.505 24.1479 116.436 24.0421 116.37 23.9446C116.647 23.1283 116.787 22.2029 116.787 21.1651ZM113.921 27.2132C113.863 27.3884 113.808 27.5355 113.754 27.6363C113.666 27.6197 113.588 27.5636 113.512 27.476C113.653 27.3917 113.79 27.3041 113.921 27.2132ZM111.255 20.6975C111.216 20.7123 111.178 20.7272 111.139 20.7421C110.987 20.8032 110.843 20.8611 110.684 20.8611C110.577 20.8611 110.472 20.8346 110.366 20.7784C110.235 20.709 110.137 20.6066 110.108 20.5041C110.057 20.3289 110.144 20.124 110.207 19.9737C110.337 19.6696 110.566 19.4052 110.775 19.1871C110.845 19.1144 110.919 19.0152 110.984 18.9293C110.994 18.9161 111.004 18.9012 111.014 18.888C111.136 19.4118 111.279 19.9753 111.428 20.5388C111.382 20.5933 111.329 20.6479 111.255 20.6975ZM112.439 22.6738C112.416 22.7515 112.398 22.8325 112.372 22.9085C112.351 22.8176 112.329 22.7185 112.307 22.6177C112.353 22.6375 112.396 22.6557 112.439 22.6738Z" fill="black"/>
<path d="M116.79 16.5891C116.789 16.5859 116.789 16.5827 116.787 16.5811V16.5875C116.789 16.5875 116.789 16.5875 116.79 16.5891Z" fill="black"/>
<path d="M53.0664 27.5454C54.3249 28.0312 55.8261 28.2758 57.5702 28.2758C58.6235 28.2758 59.617 28.1849 60.5488 28.0048C61.491 27.8247 62.3579 27.5851 63.1496 27.2876C63.9413 26.9819 64.656 26.6299 65.2887 26.2333C65.923 25.8284 66.4634 25.4038 66.9113 24.9625V17.9626H60.9319C60.8703 17.4801 60.7917 16.9132 60.7027 16.3696L62.3511 14.1007C62.481 14.3089 62.5939 14.5237 62.6879 14.7452L66.4924 13.6364C66.2035 12.8795 65.8119 12.1987 65.3177 11.5955C64.9347 11.1113 64.4765 10.685 63.9413 10.3148C63.9481 10.3 63.9549 10.2868 63.9618 10.2719L63.9652 10.2636L63.9635 10.2554C63.8182 9.58775 62.1613 9.0953 61.5013 9.09365H61.4876L61.479 9.10522C61.4653 9.1234 61.4568 9.13992 61.4448 9.15645C61.2892 9.11183 61.1302 9.06886 60.9678 9.0292C60.0068 8.79455 58.9074 8.67722 57.6677 8.67722C56.8777 8.67722 56.139 8.72845 55.4431 8.8276V8.81108L55.426 8.80447C55.3234 8.7615 55.1849 8.74002 55.0122 8.74002C54.2188 8.74002 52.9552 9.18289 52.6252 9.50017L52.6167 9.50843V9.52C52.615 9.54974 52.6167 9.57618 52.6167 9.60427C51.6181 10.0356 50.7649 10.604 50.0604 11.3146C49.2311 12.1524 48.6104 13.1704 48.2 14.3684C47.7897 15.5665 47.5845 16.9099 47.5845 18.3955C47.5845 19.8282 47.776 21.1486 48.1573 22.3549C48.5489 23.5629 49.1507 24.6073 49.9612 25.4913C50.7717 26.3655 51.8062 27.0496 53.0664 27.5454ZM60.9011 20.909C60.9199 21.0709 60.9473 21.2543 60.9763 21.4576C61.0533 21.9897 61.1405 22.5929 61.1182 22.9564C61.0858 23.472 60.9678 23.6554 60.8771 23.6554C60.7181 23.6554 60.3454 23.3662 59.8221 22.5532C59.6341 22.2607 59.5024 21.9633 59.3759 21.6757C59.2596 21.4113 59.145 21.1535 58.9946 20.9106H60.9011V20.909ZM57.6215 12.9968C57.6215 12.2185 58.2952 11.5873 59.1245 11.5873C59.7384 11.5873 60.2667 11.9326 60.4993 12.4284C60.6634 12.5094 60.8207 12.5953 60.9661 12.6911C61.2602 12.8746 61.5166 13.0828 61.7424 13.3141C61.4192 13.985 61.084 14.456 60.4599 15.1186C60.4582 15.112 60.4565 15.1054 60.4548 15.0988C60.4018 14.8823 60.1658 14.4395 60.0342 14.1139C59.8974 14.2114 59.7418 14.2891 59.5742 14.3387L59.5862 14.342C59.7418 14.5204 60.0649 14.9303 60.1231 15.1732C60.3095 15.9465 60.4736 17.0835 60.5865 17.9609H58.3243V20.1868C58.2097 20.1158 58.0849 20.0794 57.9532 20.0794C57.6489 20.0794 57.3548 20.2744 57.1342 20.4463L57.1137 20.4645C56.7922 20.8098 56.4434 21.2097 56.1066 21.5948C55.8244 21.9186 55.556 22.2244 55.3132 22.4904C54.6617 23.2225 54.3129 23.3018 54.1932 23.3018C54.1864 23.3018 54.1795 23.3018 54.1727 23.3018C54.2975 22.6887 54.3915 22.0492 54.4839 21.4295C54.595 20.676 54.701 19.9638 54.8549 19.2994C54.9438 18.5806 55.1986 17.4817 55.3884 16.71C55.4277 16.7298 55.4671 16.7397 55.5098 16.7397C55.9099 16.7397 55.9988 15.8804 55.9988 15.5797C55.9988 15.4409 55.9852 15.3252 55.9595 15.2376C55.9407 15.1765 55.9168 15.1335 55.8911 15.1005C56.0484 14.927 56.2622 14.7601 56.5101 14.5667C56.6298 14.4742 56.7546 14.3767 56.8828 14.2726C57.0863 14.1057 57.5223 13.9437 57.7703 13.8627C57.7993 13.8578 57.8284 13.8512 57.8575 13.8479L57.9515 13.8743C57.7446 13.6347 57.6215 13.329 57.6215 12.9968ZM55.0105 12.2863C55.5508 12.0582 56.1647 11.9145 56.8504 11.85C56.7375 12.0797 56.6212 12.3061 56.4998 12.5391C56.163 13.1902 55.8159 13.8644 55.5201 14.727C55.1781 13.9883 54.9678 13.1142 54.8412 12.3606C54.8977 12.3358 54.9524 12.3094 55.0105 12.2863ZM52.0866 15.6921C52.3192 14.8807 52.6782 14.1866 53.1638 13.6099C53.4135 13.3125 53.699 13.0514 54.0188 12.8266C54.0684 13.2827 54.1299 13.7421 54.2052 14.1404C54.383 14.9815 54.7044 15.6904 55.1388 16.1911L55.1422 16.1944C55.1439 16.2043 55.1456 16.2159 55.149 16.2275C55.1507 16.2357 55.1524 16.2407 55.1541 16.2489C54.9626 16.9992 54.6275 18.3757 54.5215 19.2416C54.3676 19.9026 54.2599 20.6214 54.147 21.3816C54.0479 22.0442 53.947 22.73 53.8102 23.3762L53.7862 23.4869L53.8854 23.548C54.277 23.7876 54.8583 23.5083 55.5697 22.7069C55.8142 22.4408 56.0826 22.1335 56.3665 21.8079C56.6982 21.4279 57.0419 21.0346 57.3582 20.6958C57.5343 20.5603 57.76 20.4099 57.9549 20.4099C58.0404 20.4099 58.1191 20.4397 58.196 20.5025C58.2422 20.5405 58.285 20.5785 58.326 20.6165V20.909H58.5859C58.786 21.1783 58.9176 21.4758 59.063 21.8046C59.1946 22.1037 59.3314 22.4127 59.5332 22.7267C60.0701 23.5612 60.5232 23.9843 60.8771 23.9843C61.3952 23.9843 61.4431 23.2258 61.4585 22.9762C61.4824 22.5796 61.3935 21.96 61.3149 21.413C61.2892 21.2345 61.2636 21.061 61.2448 20.9106H63.1359V23.5464C62.8931 23.7529 62.5819 23.9562 62.1989 24.1545C61.8261 24.3429 61.4021 24.5147 60.9267 24.6684C60.4599 24.8122 59.9521 24.9295 59.4032 25.0204C58.8526 25.1113 58.2798 25.1559 57.6831 25.1559C56.6674 25.1559 55.7851 24.989 55.0396 24.6552C54.2941 24.3214 53.6734 23.857 53.1792 23.2638C52.6936 22.6689 52.3311 21.9567 52.0883 21.1288C51.8558 20.2992 51.7395 19.3903 51.7395 18.3988C51.7378 17.3958 51.8541 16.4935 52.0866 15.6921Z" fill="black"/>
<path d="M111.724 17.1611C112.066 17.1611 112.386 17.0736 112.663 16.9248C113.224 16.6208 113.604 16.0556 113.604 15.4046C113.604 14.4345 112.762 13.6479 111.726 13.6479C110.847 13.6479 110.11 14.2148 109.907 14.9782C109.871 15.1154 109.849 15.2575 109.849 15.4046C109.849 15.9152 110.083 16.3746 110.456 16.6951C110.587 16.8092 110.736 16.9034 110.899 16.9794C111.145 17.0951 111.425 17.1611 111.724 17.1611Z" fill="#E40E20"/>
<path d="M59.1246 14.4048C59.2819 14.4048 59.4324 14.3817 59.5743 14.3404C59.7436 14.2908 59.8974 14.2131 60.0342 14.1156C60.3933 13.8578 60.6276 13.453 60.6276 12.9969C60.6276 12.7953 60.5814 12.6019 60.4993 12.4284C60.2668 11.9327 59.7384 11.5873 59.1246 11.5873C58.2936 11.5873 57.6216 12.2185 57.6216 12.9969C57.6216 13.329 57.7447 13.6347 57.9516 13.876C58.2269 14.1982 58.6492 14.4048 59.1246 14.4048Z" fill="#E40E20"/>
<path d="M19.9354 27.8429C20.4175 27.671 20.8519 27.4545 21.2417 27.2C21.3409 27.2182 21.4537 27.2017 21.5495 27.1472C21.6487 27.091 21.7153 27.0067 21.7376 26.9092C21.7444 26.8811 21.7461 26.853 21.7513 26.8249C21.8436 26.7473 21.9342 26.6679 22.0197 26.5853C22.5891 26.035 23.0166 25.374 23.3055 24.599C23.5945 23.8157 23.7399 22.9416 23.7399 21.9765V8.96147H15.6983V10.842C15.6435 10.9957 15.5888 11.156 15.5341 11.3196C15.3939 11.7327 15.2468 12.1607 15.0895 12.5358C14.8672 13.0613 14.6108 13.5851 14.3628 14.0925C14.1354 14.5585 13.8994 15.0393 13.6908 15.5202C13.5079 15.9433 13.2617 16.5547 13.0411 17.1165C13.0342 17.1231 13.0291 17.1281 13.0257 17.1297L13.0325 17.1364C12.9436 17.3644 12.8581 17.5825 12.7812 17.7792C12.5521 17.8849 12.1417 18.0651 11.892 18.1328C11.7587 18.1692 11.6065 18.2105 11.4731 18.1973C11.2252 18.1725 10.9978 18.0931 10.8353 17.9725C10.5959 17.7974 10.4369 17.5131 10.2847 17.2388L10.2523 17.1859C10.083 16.8835 9.87095 16.2655 9.80427 16.0672C9.99577 15.9086 10.1257 15.7251 10.2078 15.4938C10.3583 15.0707 10.4284 14.7535 10.4643 14.3238C10.4728 14.2329 10.5549 14.1024 10.6284 13.985C10.7515 13.7868 10.8798 13.5818 10.8045 13.3802C10.7601 13.2613 10.6524 13.172 10.4848 13.1158C10.2352 13.0316 9.72048 13.3621 9.5512 13.7124C9.53068 13.7537 9.49819 13.8429 9.464 13.9355C9.45887 13.952 9.45203 13.9702 9.44348 13.99C9.28788 13.7884 9.12202 13.4182 9.02285 13.1935C8.98352 13.1043 8.94761 13.0233 8.91683 12.9622C8.89631 12.9192 8.87238 12.8614 8.84673 12.7986C8.7202 12.4879 8.56289 12.1012 8.24998 12.1624C8.15422 12.1805 8.07557 12.2367 8.02769 12.3193C7.93023 12.4912 7.96443 12.7853 8.13028 13.1902C8.23972 13.4579 8.32179 13.7355 8.36112 13.8991C7.60877 12.9704 7.24969 12.6564 6.99492 12.6945C6.89746 12.7093 6.82222 12.7754 6.78802 12.8729C6.65294 13.253 7.01886 13.6826 7.34203 14.0611C7.48395 14.228 7.64639 14.418 7.67032 14.5105C7.67374 14.5238 7.67545 14.5337 7.67716 14.5436C7.631 14.5304 7.54892 14.494 7.43949 14.3998C6.9573 13.9867 6.54009 13.876 6.31951 14.104C6.24257 14.185 6.23231 14.266 6.23744 14.3205C6.25283 14.4841 6.40672 14.5948 6.65978 14.7766C6.93165 14.9716 7.30441 15.2409 7.66861 15.6838C7.96272 16.0226 8.35257 16.1052 8.76636 16.1928C8.83818 16.2077 8.91341 16.2242 8.98694 16.2407L8.99207 16.2589C9.00062 16.287 9.20067 16.9595 9.36482 17.2884C9.54778 17.6552 9.77007 18.0733 10.0949 18.4038C10.3121 18.6253 10.5583 18.7922 10.808 18.8863C10.9943 18.9574 11.2081 18.9921 11.4765 18.9921C11.5005 18.9921 11.5261 18.9921 11.5501 18.9921C11.7279 18.9888 11.916 18.9541 12.1092 18.8896C12.1947 18.8616 12.2956 18.8186 12.3982 18.769C12.1827 19.3738 11.574 21.1304 11.403 22.1583C11.3739 22.3301 11.35 22.5053 11.3295 22.6805L10.1958 22.8408C10.3822 23.8223 10.6575 24.6618 11.0217 25.3542C11.1311 25.5558 11.2508 25.7442 11.3774 25.9243C11.4629 26.463 11.6099 26.9786 11.8664 27.3388C11.9348 27.4347 12.0305 27.4958 12.1434 27.514C12.1673 27.5173 12.193 27.5206 12.2169 27.5206C12.34 27.5206 12.4529 27.4727 12.5196 27.4248C12.6016 27.3653 12.6735 27.3041 12.7367 27.2414C13.2377 27.5669 13.8071 27.8131 14.4483 27.9767C15.2212 28.175 16.1035 28.2742 17.0918 28.2742C18.1673 28.2758 19.1146 28.132 19.9354 27.8429ZM19.6276 21.1519C19.6224 21.1321 19.6156 21.1139 19.6105 21.0941C19.4446 20.4777 19.3506 19.8365 19.2651 19.2119L19.6276 19.4548V21.1519ZM12.9624 19.0169V19.0665C12.959 19.0384 12.9573 19.0119 12.9624 19.0169ZM12.3195 27.162C12.3007 27.1752 12.246 27.1984 12.2032 27.1918C12.1879 27.1885 12.1708 27.1835 12.1502 27.1554C12.0271 26.9819 11.9331 26.7588 11.8596 26.5143C12.0391 26.7043 12.2323 26.8761 12.4375 27.0331C12.4443 27.0381 12.4512 27.043 12.458 27.048C12.417 27.086 12.3708 27.124 12.3195 27.162ZM14.6911 23.6125C14.5236 23.244 14.3936 22.7928 14.2996 22.2607L11.6869 22.6309C11.704 22.4904 11.7228 22.35 11.745 22.2112C11.9433 21.0115 12.7419 18.8318 12.7487 18.8103C12.7743 18.9706 12.9111 19.0648 12.9624 19.1127C12.9641 19.1144 12.9641 19.1127 12.9641 19.1127C13.1642 19.1111 13.3181 18.9343 13.4241 18.5839C13.4976 18.3377 13.5421 18.0254 13.5421 17.7478C13.5421 17.5016 13.5079 17.3231 13.4412 17.2091C13.7319 16.9595 14.2979 16.4853 14.6621 16.2688C15.004 16.0655 15.6401 15.8144 15.8402 15.7367C15.6162 15.4475 15.4828 15.0939 15.4828 14.7088C15.4828 13.7388 16.3241 12.9522 17.3603 12.9522C17.5056 12.9522 17.6458 12.9688 17.7809 12.9985C17.7775 12.9638 17.7484 12.6911 17.5791 12.2169C17.5689 12.1871 17.5518 12.1409 17.5313 12.083H19.6276V18.4071C19.3489 18.1675 19.1026 17.9329 19.065 17.8982C19.0274 17.6899 18.9864 17.4801 18.9351 17.2719C18.8581 16.948 18.5401 16.5233 18.3383 16.2754L18.3263 16.211C18.2152 16.2738 18.0989 16.325 17.9741 16.3646C18.1673 16.5894 18.5332 17.0587 18.6016 17.3446C18.7453 17.9395 18.8291 18.5492 18.9094 19.1392C19.0018 19.8101 19.0975 20.5025 19.2788 21.175C19.3848 21.5667 19.4993 21.9468 19.619 22.3186C19.5848 23.1878 19.3745 23.867 18.9829 24.3528C18.8786 24.4866 18.7607 24.6023 18.6307 24.7015C18.0989 24.2024 17.5244 23.7695 16.8353 23.586C16.2847 23.439 15.6606 23.4951 15.1682 23.7381C15.0588 23.7926 14.9544 23.8554 14.8553 23.9215C14.7988 23.8256 14.7424 23.7232 14.6911 23.6125ZM16.1172 25.0039C15.8094 24.8965 15.5341 24.7296 15.293 24.5032C15.2041 24.4139 15.1203 24.3115 15.0399 24.2024C15.1306 24.1396 15.2246 24.0818 15.3238 24.0339C15.7376 23.8306 16.2813 23.7827 16.7464 23.9066C17.338 24.0653 17.8544 24.4437 18.3366 24.8882C17.998 25.0634 17.5962 25.1526 17.126 25.1526C16.7601 25.1526 16.425 25.103 16.1172 25.0039Z" fill="black"/>
<path d="M82.6577 28.0048V20.7735H87.4967L92.0707 28.0048H96.713L91.385 20.0034C92.0091 19.8597 92.5871 19.6333 93.1188 19.3276C93.6506 19.0119 94.1072 18.6253 94.4902 18.1659C94.8817 17.7065 95.1844 17.1843 95.3998 16.5976C95.6238 16.0027 95.735 15.35 95.735 14.6378C95.735 13.7636 95.5811 12.9803 95.2733 12.2863C94.9758 11.584 94.5175 10.9891 93.902 10.5016C93.2864 10.0058 92.517 9.62743 91.5953 9.36633C90.6805 9.09532 89.6084 8.96147 88.379 8.96147H78.5335V17.1083C78.5266 17.143 78.5181 17.176 78.5113 17.2124C78.4685 17.0471 78.407 16.7216 78.3796 16.3927C78.33 15.7846 78.1539 15.464 77.8718 15.464C77.8427 15.464 77.8136 15.4673 77.7846 15.4756C77.4682 15.5566 77.5024 15.9912 77.5315 16.3382C77.5366 16.4093 77.5435 16.4754 77.5435 16.5266C77.5435 16.5993 77.5486 16.6902 77.5537 16.7943C77.5657 17.0587 77.5879 17.4999 77.5315 17.761C77.511 17.7412 77.4905 17.723 77.4734 17.7065C77.3964 17.6338 77.3229 17.5644 77.2836 17.533C77.0459 17.3462 76.7022 17.2801 76.4799 17.2801C76.3123 17.2801 76.1926 17.3148 76.1225 17.3826C75.9926 17.5082 75.9327 17.6387 75.9481 17.7693C75.9721 17.9907 76.1909 18.1262 76.403 18.2584C76.5346 18.341 76.6731 18.4253 76.7244 18.5096C76.9655 18.9012 77.1844 19.1706 77.5298 19.506C77.6563 19.6283 77.8153 19.7192 77.9692 19.8084C78.0958 19.8811 78.2154 19.9506 78.3078 20.0299C78.3334 20.248 78.3659 20.7057 78.2838 20.9123C78.2411 21.0214 78.1676 21.1089 78.094 21.1403C77.9761 21.1899 77.7846 21.1552 77.5913 21.1073C77.2682 21.0247 76.9724 20.8412 76.6971 20.6611C76.3311 20.4215 75.7276 19.8613 75.5463 19.6928C75.5053 19.4713 75.4625 19.2482 75.4095 19.0285C75.3206 18.6616 75.0265 18.0419 74.8743 17.7445C74.7854 17.799 74.6914 17.8469 74.5939 17.8882C74.77 18.1708 75.006 18.8054 75.0778 19.1028C75.1103 19.2416 75.1394 19.3804 75.1684 19.5193L75.2847 20.2232L75.3753 20.7884C75.3856 20.8611 75.3958 20.9338 75.4061 21.0048C75.5036 21.7138 75.6044 22.4475 75.7977 23.1597C76.3123 25.0634 76.9809 26.7489 77.7828 28.1651C78.041 28.6228 78.1111 28.8839 78.0479 29.1632C78.0462 29.1682 78.0376 29.183 78.0137 29.1963C77.9829 29.2144 77.947 29.2177 77.9299 29.2144C77.1502 28.993 76.4919 28.3188 75.7942 27.6049C75.4317 27.2331 75.0607 26.858 74.664 26.5341V23.8802H73.1542C72.6549 23.7149 72.0889 23.6224 71.8102 23.6009C71.7076 23.5926 71.5862 23.6009 71.4563 23.6108C71.3673 23.6174 71.2733 23.624 71.181 23.624C71.0459 23.624 70.945 23.6092 70.8646 23.5745L70.8424 23.5662C70.839 23.5646 70.4902 23.4687 70.1037 23.2539C69.8592 23.1167 69.7258 23.0506 69.613 22.9944C69.4591 22.9168 69.3463 22.8606 69.0162 22.6524C68.8709 22.5598 68.5956 22.2079 68.4947 22.0591C68.3853 21.7121 68.2844 21.3684 68.8641 20.828C69.1052 20.6033 69.2796 20.5818 69.3428 20.5818L69.3924 20.5868C69.5053 20.5868 69.7156 20.5421 69.8507 20.248C69.9225 20.091 69.9635 19.8845 69.9635 19.668C69.9635 19.2697 69.837 18.9921 69.6352 18.9161C69.9533 18.6434 70.5192 18.1741 70.8886 17.9543C71.2374 17.7478 71.959 17.4553 72.2274 17.3479C71.9846 17.0554 71.8393 16.6918 71.8393 16.2969C71.8393 15.3269 72.7079 14.5403 73.7783 14.5403C73.9305 14.5403 74.0792 14.5585 74.2211 14.5882C74.1955 14.4428 74.1203 14.0809 73.9749 13.6711C73.8928 13.4414 73.4722 12.2764 73.2294 11.8418C73.1815 11.7558 73.1354 11.6534 73.0892 11.5542C72.9541 11.2584 72.8584 11.0453 72.66 11.042C72.5437 11.0469 72.4634 11.1048 72.3984 11.2337C72.2001 11.6236 72.0171 12.1574 71.8239 12.7225C71.6751 13.1605 71.5195 13.6116 71.3537 14.0098C71.1194 14.5667 70.8458 15.122 70.5825 15.659C70.3414 16.1515 70.0918 16.6604 69.8695 17.1711C69.6745 17.6205 69.4146 18.2683 69.1804 18.8649C69.1718 18.8731 69.165 18.8781 69.1633 18.8797L69.1718 18.888C69.1257 19.007 69.1445 18.9591 69.1017 19.0714C69.0898 19.1326 69.0675 19.1474 69.0214 19.1871C68.8709 19.359 68.9376 19.273 68.794 19.4366C68.7085 19.5506 68.6076 19.6647 68.4691 19.7572C68.228 19.9208 68.0279 20.1026 67.8757 20.2976C67.6586 20.5768 67.5201 20.8412 67.4517 21.1056C67.3559 21.4775 67.3491 21.8278 67.4346 22.1203C67.5457 22.502 67.7287 22.9647 68.1425 23.2357C68.0912 23.5613 68.0399 23.8719 67.9972 24.1347C67.8894 24.7808 67.6757 25.4385 67.45 26.1358C67.4021 26.2829 67.3542 26.4316 67.3064 26.5787C67.2294 26.82 67.0909 27.1257 66.9439 27.4479C66.5078 28.4097 66.0137 29.5003 66.7472 29.8143C66.819 29.8457 66.8874 29.8589 66.9524 29.8589C67.1969 29.8589 67.4021 29.6705 67.6158 29.4722C67.7355 29.3632 67.8569 29.2491 68.0023 29.1467C68.3733 28.8856 68.6298 28.6113 68.8777 28.3469C69.006 28.2097 69.1394 28.0676 69.2881 27.9271C69.6899 27.5471 70.1379 27.1439 70.6201 26.7869V27.9998H74.6623V26.9703C74.9667 27.2381 75.2573 27.5355 75.5446 27.828C76.2747 28.5749 76.9638 29.2805 77.8307 29.5268C77.9419 29.5581 78.0735 29.54 78.1847 29.4772C78.2873 29.4193 78.3557 29.3318 78.3779 29.231C78.4736 28.8145 78.3334 28.4543 78.0804 28.0048C77.2921 26.6118 76.6338 24.9527 76.126 23.0738C75.9464 22.4078 75.8473 21.7138 75.7549 21.0395L76.7398 21.6989C77.0989 21.9253 77.4734 22.0443 77.8222 22.0443C78.0838 22.0443 78.3266 21.9782 78.5369 21.8542V27.9982H82.6577V28.0048ZM82.6577 12.0566H87.9447C89.1109 12.0566 90.0051 12.2813 90.6292 12.7325C91.2636 13.1836 91.5799 13.8727 91.5799 14.7997C91.5799 15.2228 91.5098 15.6111 91.3696 15.9614C91.2294 16.3134 91.0157 16.6191 90.7267 16.8802C90.4463 17.1331 90.0838 17.3314 89.6358 17.4751C89.1981 17.6106 88.6714 17.6784 88.0559 17.6784H82.6577V12.0566ZM70.6167 26.3837C70.0405 26.7836 69.5121 27.2562 69.047 27.6974C68.8897 27.8445 68.7546 27.9899 68.623 28.132C68.3767 28.3948 68.1442 28.6443 67.8005 28.8856C67.6381 29.0013 67.5013 29.1268 67.3799 29.2392C67.1217 29.4772 67.0054 29.5697 66.884 29.5185C66.4617 29.3384 66.9199 28.3254 67.2551 27.5867C67.4055 27.2546 67.5474 26.9406 67.6295 26.6812C67.6774 26.5341 67.7236 26.387 67.7714 26.2399C68.0023 25.531 68.2194 24.8601 68.3306 24.1909C68.3682 23.9628 68.4109 23.7001 68.4554 23.4224C69.495 23.9909 70.1944 24.3131 70.4183 24.4123C70.4508 24.566 70.4406 24.6668 70.4286 24.7725C70.4098 24.9295 70.391 25.0931 70.5124 25.3559C70.55 25.4534 70.5842 25.5509 70.6184 25.6467V26.3837H70.6167Z" fill="black"/>
<path d="M40.5211 16.3266C40.2082 15.3533 39.425 14.2676 39.0198 13.8281C39.3225 13.2894 39.0831 12.6779 38.9634 12.4383C38.7821 12.0979 38.6744 11.8104 38.594 11.6005C38.4846 11.3097 38.4231 11.1494 38.288 11.1494C38.2692 11.1494 38.2504 11.1527 38.2281 11.1593C38.0469 11.2171 38.0178 11.5113 38.1495 11.9244C38.1973 12.0731 38.1991 12.207 38.1546 12.2648C38.1204 12.3111 38.0571 12.2995 37.9819 12.24C37.8998 12.1756 37.8126 12.0021 37.7203 11.8186C37.5527 11.4865 37.3629 11.1097 37.0876 11.0849C37.0278 11.0783 36.997 11.1064 36.9816 11.1295C36.879 11.2931 37.1765 11.8864 37.4809 12.4466C37.5065 12.4945 37.5271 12.5325 37.539 12.554C37.5305 12.597 37.5065 12.6168 37.4672 12.6168C37.4416 12.6168 37.4176 12.6085 37.4057 12.6036C37.3629 12.5854 37.2432 12.4978 37.103 12.3805C36.9748 12.0368 36.773 11.5113 36.6379 11.2717C36.6003 11.2056 36.5661 11.1295 36.5319 11.0552C36.4276 10.8255 36.3438 10.6437 36.1677 10.6404C36.0976 10.6305 36.0018 10.6668 35.93 10.809C35.7761 11.1097 35.6376 11.5179 35.4906 11.9492C35.4376 12.1062 35.3829 12.2648 35.3264 12.4218C35.3111 12.3772 35.2769 12.3507 35.2204 12.3507C34.9742 12.3507 34.3142 12.8746 34.0321 13.0993C33.9893 13.134 33.9551 13.1605 33.9346 13.1753C33.9055 13.1753 33.885 13.1671 33.8713 13.1522C33.8508 13.1274 33.8508 13.0877 33.8576 13.058C33.873 12.9853 34.0423 12.668 34.2321 12.397C34.3364 12.2483 34.5057 11.974 34.4595 11.8153C34.4458 11.7707 34.4185 11.7393 34.374 11.7211C34.3569 11.7145 34.3398 11.7112 34.3227 11.7112C34.1859 11.7112 34.0406 11.9178 33.9226 12.0847C33.8901 12.131 33.8576 12.1756 33.832 12.207C33.7978 12.2499 33.7551 12.3061 33.7089 12.3689C33.5259 12.6135 33.2506 12.9787 33.0557 13.0398C33.0455 13.0002 33.0335 12.901 33.0249 12.8316C33.0147 12.7556 33.0061 12.6845 32.9976 12.6482C32.936 12.3755 32.6351 12.0996 32.5017 12.0996C32.4983 12.0996 32.4949 12.0996 32.4914 12.0996C32.382 12.1111 32.3102 12.1458 32.2709 12.2037C32.2025 12.3078 32.2555 12.4598 32.3102 12.6201C32.3529 12.7424 32.3957 12.8663 32.382 12.9638C32.3341 13.2993 32.3307 13.5554 32.3718 13.9057C32.3923 14.0792 32.4504 14.2181 32.5684 14.3602C32.5222 14.423 31.9272 15.2277 31.5561 15.9598V8.96147H27.4302V20.8693C27.4302 22.1665 27.6354 23.2836 28.0457 24.2206C28.4647 25.1576 29.0426 25.9276 29.7796 26.5324C30.5251 27.1273 31.4108 27.5685 32.4367 27.8577C33.4627 28.137 34.5895 28.2775 35.8206 28.2775C37.1064 28.2775 38.2863 28.1287 39.3584 27.8313C40.439 27.5256 41.3726 27.0612 42.1557 26.4399C42.9389 25.8086 43.5493 25.0171 43.9887 24.0603C44.4282 23.1035 44.6453 21.9749 44.6453 20.6677V8.96147H40.5194V16.3266H40.5211ZM34.3484 13.5306C34.3963 13.4414 34.5536 13.3224 34.7211 13.1968C34.887 13.0729 35.0631 12.9374 35.1845 12.7986C35.1674 12.8432 35.1486 12.8894 35.1315 12.9324C35.0443 13.1406 34.9486 13.3472 34.8528 13.5521C34.8032 13.5736 34.7536 13.5967 34.7023 13.6248C34.598 13.6793 34.5006 13.7107 34.4253 13.7107C34.3911 13.7107 34.3467 13.7041 34.3262 13.6727C34.3073 13.643 34.3159 13.5934 34.3484 13.5306ZM32.1187 16.3514C32.329 15.74 32.8557 14.8807 33.0472 14.5783C33.0711 14.5799 33.0967 14.5816 33.119 14.5833C33.2609 14.5932 33.396 14.6031 33.5191 14.6031C33.7995 14.6031 33.9927 14.5485 34.1654 14.423C34.3022 14.3155 34.4356 14.228 34.5621 14.1536C34.5553 14.1668 34.5484 14.1817 34.5416 14.1949C34.3569 14.5717 34.1671 14.96 33.9979 15.35C33.8491 15.6921 33.6525 16.1829 33.4746 16.6373C33.4729 16.639 33.4695 16.6423 33.4678 16.6439L33.4712 16.6472C33.396 16.8389 33.3225 17.0256 33.2592 17.1892C33.1395 17.176 33.0386 17.1678 32.9548 17.1611C32.659 17.138 32.5085 17.1264 32.1529 16.9661C32.1084 16.9463 32.0794 16.9116 32.0623 16.8587C32.0246 16.7414 32.0537 16.5596 32.1187 16.3514ZM32.0298 22.5978C32.0332 22.7482 32.04 22.9135 32.052 23.0837C31.9836 22.9416 31.9203 22.7945 31.8656 22.6392C31.6604 22.0542 31.5578 21.3601 31.5578 20.5587V17.3413C31.9169 17.6883 32.3632 17.8238 32.7035 17.8238H32.7291C32.765 17.8238 32.8129 17.8287 32.8625 17.8354C32.9121 17.8403 32.9617 17.8453 33.0061 17.8469C32.9155 18.0965 32.3051 19.7936 32.1495 20.7371C32.0503 21.3271 32.0127 21.9368 32.0298 22.5978ZM37.7801 24.8832C37.221 25.0634 36.6054 25.1543 35.9352 25.1543C35.2734 25.1543 34.6716 25.0683 34.1312 24.8981C33.9055 24.8238 33.6986 24.7279 33.5003 24.6205C33.5738 24.5098 33.6371 24.3958 33.7003 24.2784C33.7722 24.1446 33.8474 24.0041 33.9466 23.8587C33.9961 23.786 34.0457 23.7133 34.0953 23.6389C34.4527 23.1085 34.822 22.5582 35.3675 22.2905C35.6958 22.1302 36.1284 22.0905 36.496 22.1897C37.2073 22.3797 37.7853 22.9713 38.3444 23.5431C38.5718 23.7761 38.7941 24.0025 39.0232 24.2041C38.6659 24.4949 38.2538 24.7246 37.7801 24.8832ZM39.2746 23.9744C39.0455 23.7761 38.8215 23.548 38.5923 23.3134C38.0024 22.7086 37.3903 22.0839 36.5866 21.8691C36.1335 21.7468 35.6188 21.7947 35.2119 21.9947C34.5843 22.3037 34.1894 22.8903 33.8081 23.4588C33.7585 23.5315 33.7106 23.6042 33.661 23.6769C33.5516 23.8372 33.4695 23.9909 33.396 24.1264C33.3327 24.2437 33.2763 24.3478 33.2096 24.4453C33.0455 24.333 32.8864 24.214 32.7445 24.0752C32.6453 23.9777 32.553 23.8719 32.4658 23.7612C32.3889 23.2886 32.3752 22.8143 32.37 22.5929C32.3529 21.9517 32.3906 21.3618 32.4863 20.79C32.6317 19.9158 33.2028 18.303 33.3173 17.9857C33.331 18.0766 33.3566 18.1592 33.3926 18.1939C33.4353 18.2353 33.4798 18.2567 33.5242 18.2567C33.7551 18.2567 33.8833 17.6652 33.8833 17.257C33.8833 17.1132 33.8662 16.8868 33.7704 16.824C33.9637 16.6555 34.504 16.1944 34.834 15.9978C35.1093 15.8342 35.6223 15.6309 35.783 15.5681C35.6154 15.3368 35.518 15.0575 35.518 14.7584C35.518 13.9603 36.2105 13.3141 37.0637 13.3141C37.6775 13.3141 38.2076 13.6512 38.4572 14.1354C38.541 14.1206 38.6231 14.1057 38.6966 14.1024C38.8129 14.2594 39.8029 15.7218 39.9602 16.8257C40.0201 17.3479 39.7038 17.2669 39.4079 17.2669C39.2438 17.2669 38.9753 17.2652 38.7479 17.2091C38.6641 17.1876 38.5085 17.1843 38.4111 17.1628C38.3752 16.9595 38.3615 16.9794 38.3136 16.7761C38.2692 16.5894 38.0862 16.2176 37.9357 15.9532C37.828 16.0209 37.7117 16.0755 37.5869 16.1168C37.7391 16.3332 37.9374 16.6637 37.9819 16.8505C38.0982 17.3313 38.1649 17.8238 38.2315 18.303C38.3068 18.8467 38.3837 19.4085 38.5308 19.9539C38.871 21.2114 39.2985 22.3417 39.8029 23.3266C39.6473 23.5662 39.4712 23.7827 39.2746 23.9744ZM40.5211 20.4232C40.5211 21.2428 40.4099 21.9501 40.1859 22.545C40.1295 22.692 40.0697 22.8342 40.0013 22.9697C39.5516 22.0542 39.1669 21.0164 38.8574 19.8696C38.7154 19.3441 38.6385 18.7922 38.5667 18.2584C38.5513 18.1411 38.5342 18.0221 38.5171 17.9031C38.7189 17.9395 39.1104 18.0006 39.4934 18.0006C40.0013 18.0006 40.333 17.8965 40.4783 17.6916C40.4937 17.6685 40.5074 17.6453 40.5211 17.6222V20.4232Z" fill="black"/>
<path d="M37.0633 16.201C37.2463 16.201 37.4207 16.1696 37.5831 16.1151C37.7079 16.0738 37.8242 16.0193 37.9319 15.9515C38.3406 15.6921 38.6091 15.2525 38.6091 14.7568C38.6091 14.5337 38.5526 14.3222 38.4569 14.1338C38.2072 13.6479 37.6789 13.3125 37.0633 13.3125C36.2101 13.3125 35.5176 13.9586 35.5176 14.7568C35.5176 15.0575 35.615 15.3351 35.7826 15.5665C36.0613 15.9499 36.5298 16.201 37.0633 16.201Z" fill="#E40E20"/>
<path d="M17.3604 16.4654C17.5758 16.4654 17.7827 16.4291 17.9759 16.3663C18.099 16.3266 18.217 16.2737 18.3282 16.2126C18.8736 15.9052 19.2395 15.3483 19.2395 14.7088C19.2395 13.8743 18.6154 13.177 17.781 12.9985C17.6459 12.9687 17.5057 12.9522 17.3604 12.9522C16.3225 12.9522 15.4829 13.7388 15.4829 14.7088C15.4829 15.0938 15.6163 15.4475 15.8403 15.7367C16.1805 16.1762 16.7345 16.4654 17.3604 16.4654Z" fill="#E40E20"/>
<path d="M71.834 16.3002C71.834 16.6951 71.9793 17.0587 72.2221 17.3512C72.5761 17.7792 73.1386 18.0568 73.773 18.0568C74.0654 18.0568 74.3424 17.9957 74.5903 17.8915C74.6878 17.8502 74.7818 17.8023 74.8707 17.7478C75.3786 17.4305 75.712 16.9017 75.712 16.3019C75.712 15.4706 75.0725 14.7749 74.2159 14.5932C74.0739 14.5634 73.9252 14.5452 73.773 14.5452C72.7026 14.5452 71.834 15.3302 71.834 16.3002Z" fill="#E40E20"/>
<path d="M0 0V37.4157H43.0533V35.1849H2.30664V2.22921H123.693V35.1849H82.2799V37.4157H126V0H0Z" fill="#E40E20"/>
<path d="M53.3913 35.1551C53.0322 34.6247 52.615 34.3966 51.9345 34.3966C50.6469 34.3966 49.7954 35.3485 49.7954 36.7828C49.7954 38.2007 50.6093 39.1063 51.8781 39.1063C52.521 39.1063 53.0032 38.8683 53.3742 38.3742L53.3639 38.9046C53.3554 39.6648 53.1844 40.1308 52.285 40.1308C51.6985 40.1308 51.4044 39.9474 51.3001 39.526H49.9664C50.0981 40.5142 50.847 40.9984 52.2559 40.9984C53.8461 40.9984 54.66 40.3208 54.66 38.7493V34.5239H53.3913V35.1551ZM52.2559 38.1379C51.5566 38.1379 51.1206 37.6074 51.1206 36.7746C51.1206 35.9153 51.5378 35.403 52.2474 35.403C52.957 35.403 53.3828 35.9054 53.3828 36.7481C53.381 37.6058 52.9467 38.1379 52.2559 38.1379Z" fill="black"/>
<path d="M57.0537 35.3931V34.5238H55.7764V39.2434H57.1203V37.0852C57.1203 36.2243 57.4794 35.5847 58.4079 35.5847C58.5601 35.5847 58.6917 35.593 58.9277 35.6393V34.4412C58.796 34.423 58.7379 34.4131 58.6336 34.4131C57.9052 34.4148 57.3563 34.78 57.0537 35.3931Z" fill="black"/>
<path d="M61.6725 34.3884C60.1387 34.3884 59.1265 35.3848 59.1265 36.8853C59.1265 38.394 60.1302 39.3904 61.6537 39.3904C63.1772 39.3904 64.1706 38.4023 64.1706 36.8853C64.1706 35.3848 63.1772 34.3884 61.6725 34.3884ZM61.6537 38.4122C60.9065 38.4122 60.4704 37.8536 60.4704 36.8853C60.4704 35.9433 60.915 35.3765 61.6349 35.3765C62.3821 35.3765 62.8267 35.9351 62.8267 36.877C62.8267 37.8437 62.3923 38.4122 61.6537 38.4122Z" fill="black"/>
<path d="M68.2979 36.9564C68.2979 37.6702 68.0807 38.2916 67.2377 38.2916C66.4717 38.2916 66.4136 37.8157 66.4136 37.2224V34.5239H65.061V37.6967C65.061 38.8204 65.7142 39.3789 66.7641 39.3789C67.4634 39.3789 67.985 39.0963 68.3543 38.5742V39.2418H69.6316V34.5222H68.2979V36.9564Z" fill="black"/>
<path d="M73.4468 34.3966C72.8227 34.3966 72.2926 34.6247 71.9318 35.1105V34.5255H70.6631V40.9174H71.9968V38.6584C72.3559 39.1426 72.8859 39.3624 73.5015 39.3624C74.7788 39.3624 75.6217 38.3924 75.6217 36.9117C75.6235 35.3931 74.7617 34.3966 73.4468 34.3966ZM73.1253 38.3478C72.3866 38.3478 71.9523 37.809 71.9523 36.8936C71.9523 35.9781 72.3884 35.4394 73.1168 35.4394C73.8366 35.4394 74.2812 35.988 74.2812 36.9117C74.2795 37.8074 73.8435 38.3478 73.1253 38.3478Z" fill="black"/>
</symbol><symbol id="icon-thankyou-check" viewBox="0 0 50 50">
<mask id="path-1-inside-1" fill="white">
<path d="M50 25C50 38.8071 38.8071 50 25 50C11.1929 50 0 38.8071 0 25C0 11.1929 11.1929 0 25 0C38.8071 0 50 11.1929 50 25Z"/>
</mask>
<path d="M15.1286 24.3581C14.9347 24.1616 14.6181 24.1594 14.4215 24.3534C14.225 24.5473 14.2229 24.8639 14.4168 25.0605L15.1286 24.3581ZM22.9084 32.9545L22.5525 33.3057L22.9084 33.6664L23.2643 33.3057L22.9084 32.9545ZM36.7195 19.6694C36.9135 19.4728 36.9114 19.1562 36.7148 18.9623C36.5183 18.7683 36.2017 18.7704 36.0077 18.967L36.7195 19.6694ZM14.4168 25.0605L22.5525 33.3057L23.2643 32.6034L15.1286 24.3581L14.4168 25.0605ZM23.2643 33.3057L36.7195 19.6694L36.0077 18.967L22.5525 32.6034L23.2643 33.3057ZM49 25C49 38.2548 38.2548 49 25 49V51C39.3594 51 51 39.3594 51 25H49ZM25 49C11.7452 49 1 38.2548 1 25H-1C-1 39.3594 10.6406 51 25 51V49ZM1 25C1 11.7452 11.7452 1 25 1V-1C10.6406 -1 -1 10.6406 -1 25H1ZM25 1C38.2548 1 49 11.7452 49 25H51C51 10.6406 39.3594 -1 25 -1V1Z" fill="black" mask="url(#path-1-inside-1)"/>
</symbol><symbol id="icon-tw" viewBox="0 0 35 35">
<circle cx="17.3571" cy="17.3571" r="17.3571" fill="#F9F9F9"/>
<g clip-path="url(#clip0)">
<path d="M27 11.4178C26.3377 11.7118 25.626 11.9098 24.879 11.999C25.6418 11.5423 26.2275 10.8185 26.5028 9.95604C25.7895 10.379 24.999 10.6865 24.1575 10.8523C23.4847 10.1345 22.524 9.68604 21.462 9.68604C19.0777 9.68604 17.3258 11.9105 17.8643 14.2198C14.796 14.066 12.075 12.596 10.2533 10.3618C9.28575 12.0215 9.7515 14.1928 11.3955 15.2923C10.791 15.2728 10.221 15.107 9.72375 14.8303C9.68325 16.541 10.9095 18.1415 12.6855 18.4978C12.1658 18.6388 11.5965 18.6718 11.0175 18.5608C11.487 20.0278 12.8505 21.095 14.4675 21.125C12.915 22.3423 10.959 22.886 9 22.655C10.6342 23.7028 12.576 24.314 14.661 24.314C21.5175 24.314 25.3912 18.5233 25.1572 13.3295C25.8787 12.8083 26.505 12.158 27 11.4178Z" fill="#9A9A9A"/>
</g>

</symbol></svg>