<svg width="259" height="171" viewBox="0 0 259 171" fill="none" xmlns="http://www.w3.org/2000/svg">
<path d="M28.2045 114.266C26.8472 114.926 25.6335 115.845 24.6326 116.972C23.6316 118.1 22.8631 119.413 22.3709 120.836C21.8786 122.26 21.6723 123.766 21.7638 125.269C21.8552 126.773 22.2426 128.243 22.9037 129.597L28.8473 141.77C28.9476 141.977 29.0565 142.179 29.1687 142.378L52.6777 102.376L28.2045 114.266Z" fill="#FFCC00"/>
<path d="M230.796 56.4064C233.483 55.1 235.555 52.8003 236.571 49.9955C237.587 47.1906 237.467 44.1012 236.238 41.3828L226.056 58.7084L230.796 56.4064Z" fill="#FFCC00"/>
<path d="M168.019 124.333L214.785 147.065C217.526 148.397 220.685 148.587 223.567 147.596C226.449 146.604 228.818 144.511 230.153 141.777L236.105 129.604C236.766 128.25 237.154 126.779 237.245 125.276C237.336 123.773 237.13 122.267 236.638 120.843C236.146 119.419 235.377 118.107 234.376 116.979C233.375 115.852 232.162 114.932 230.804 114.273L183.914 91.4883C182.558 103.934 176.944 115.533 168.019 124.333Z" fill="black"/>
<path d="M28.2044 56.4061L75.1288 79.2044C76.5693 66.7656 82.2642 55.2023 91.2538 46.4633L44.2155 23.6124C41.4743 22.281 38.3153 22.0902 35.4332 23.0822C32.5511 24.0742 30.1821 26.1675 28.8472 28.9019L22.9037 41.0754C21.5688 43.8096 21.3774 46.9608 22.3715 49.8358C23.3655 52.7108 25.4637 55.0741 28.2044 56.4061Z" fill="black"/>
<path d="M75.1287 79.2048C74.6536 83.2849 74.6393 87.4053 75.0862 91.4886L71.3449 93.3021L39.0796 148.215C40.8584 148.233 42.6168 147.837 44.2154 147.059L76.8038 131.226L84.9836 117.315C94.9151 131.134 111.152 140.134 129.5 140.134C142.984 140.134 155.993 135.17 166.035 126.193C176.077 117.217 182.445 104.859 183.919 91.4886C184.368 87.4054 184.354 83.2848 183.876 79.2048L191.806 75.3522L222.675 22.8189C220.034 22.1369 217.236 22.4185 214.785 23.6128L196.736 32.3816L179.096 62.3983C177.758 59.5482 176.175 56.8192 174.365 54.2418L180.576 49.0491C181.548 48.2356 182.157 47.07 182.268 45.8088C182.379 44.5475 181.984 43.2938 181.168 42.3236C180.353 41.3533 179.184 40.7459 177.92 40.6351C176.656 40.5242 175.399 40.9189 174.426 41.7324L168.216 46.9251C160.943 39.6682 151.768 34.6022 141.741 32.3079C131.715 30.0136 121.244 30.5838 111.528 33.9531C101.811 37.3224 93.2432 43.3545 86.8054 51.358C80.3677 59.3615 76.3209 69.0125 75.1287 79.2048ZM178.562 47.9735C177.372 49.1525 176.29 50.0432 176.244 50.0805C176.137 50.1672 176.003 50.2145 175.865 50.2145C175.742 50.214 175.622 50.1756 175.521 50.1046C175.421 50.0335 175.345 49.9333 175.303 49.8175C175.262 49.7018 175.258 49.5761 175.291 49.4577C175.323 49.3393 175.392 49.2339 175.487 49.1559C175.498 49.1474 176.577 48.2636 177.715 47.1287C178.661 46.1872 178.81 44.8216 178.305 44.3177C178.249 44.262 178.205 44.1959 178.175 44.1231C178.145 44.0504 178.129 43.9724 178.129 43.8936C178.129 43.8148 178.145 43.7369 178.175 43.6641C178.205 43.5913 178.249 43.5252 178.305 43.4695C178.361 43.4138 178.427 43.3696 178.5 43.3395C178.573 43.3093 178.651 43.2938 178.73 43.2938C178.809 43.2938 178.888 43.3093 178.961 43.3395C179.033 43.3696 179.1 43.4138 179.156 43.4695C180.19 44.5162 179.923 46.6181 178.562 47.9735ZM129.5 36.4276C142.394 36.4104 154.776 41.4577 163.968 50.4774L163.306 51.0305C154.185 43.4662 142.628 39.4493 130.77 39.7213C118.912 39.9934 107.552 44.536 98.7892 52.5105C90.0262 60.485 84.4513 71.3529 83.0938 83.1076C81.7362 94.8623 84.6877 106.71 91.4034 116.463C99.1986 126.012 110.312 132.283 122.531 134.028C134.751 135.774 147.182 132.867 157.35 125.885C167.519 118.903 174.679 108.358 177.408 96.3482C180.136 84.3386 178.232 71.7444 172.074 61.0716L151.057 79.3693C152.042 82.8034 152.188 86.4229 151.483 89.9249C150.778 93.4268 149.242 96.7094 147.005 99.498C144.767 102.287 141.893 104.5 138.622 105.953C135.351 107.406 131.778 108.056 128.204 107.85C124.629 107.643 121.156 106.585 118.075 104.765C114.995 102.945 112.396 100.415 110.496 97.3873C108.596 94.3596 107.451 90.922 107.156 87.3622C106.862 83.8024 107.426 80.2241 108.802 76.9265L101.61 71.9135C101.095 71.5544 100.656 71.0976 100.318 70.5691C99.9794 70.0406 99.7488 69.4509 99.6391 68.8335C99.5293 68.2162 99.5425 67.5833 99.678 66.9711C99.8134 66.3588 100.068 65.7792 100.428 65.2652C100.788 64.7513 101.246 64.3131 101.776 63.9757C102.306 63.6383 102.897 63.4083 103.516 63.2988C104.135 63.1893 104.769 63.2025 105.383 63.3376C105.997 63.4727 106.578 63.7271 107.093 64.0862L107.783 64.568L102.974 59.7705C102.928 59.7244 102.891 59.6696 102.866 59.6093C102.841 59.549 102.828 59.4844 102.828 59.4191C102.828 59.3538 102.841 59.2891 102.865 59.2287C102.89 59.1684 102.927 59.1135 102.973 59.0673C103.02 59.0211 103.074 58.9844 103.135 58.9593C103.195 58.9343 103.26 58.9213 103.326 58.9213C103.391 58.9212 103.456 58.934 103.516 58.9589C103.577 58.9838 103.632 59.0203 103.678 59.0665L109.105 64.4798C109.151 64.5259 109.188 64.5808 109.213 64.6412C109.238 64.7016 109.251 64.7664 109.251 64.8318C109.251 64.8972 109.238 64.9619 109.213 65.0223C109.188 65.0827 109.151 65.1376 109.105 65.1838C109.037 65.2506 108.951 65.297 108.858 65.3178L114.288 69.1025C118.181 65.5147 123.222 63.4187 128.517 63.1867C133.811 62.9547 139.017 64.6017 143.21 67.8353L129.235 79.5203L131.09 80.813C132.469 80.863 133.774 81.4445 134.732 82.4351C135.69 83.4257 136.225 84.7482 136.226 86.1245V86.133L170.197 57.728C177.429 68.2027 180.313 81.0643 178.244 93.6143C176.175 106.164 169.315 117.428 159.102 125.041C148.889 132.654 136.116 136.026 123.465 134.449C110.814 132.872 99.2662 126.469 91.2452 116.582C91.0105 116.243 90.7844 115.904 90.565 115.564C83.8864 106.974 80.2691 96.4083 80.2849 85.5375C80.2781 58.4099 102.316 36.4276 129.5 36.4276ZM127.107 48.6046C127.107 47.9716 127.359 47.3644 127.808 46.9168C128.257 46.4692 128.865 46.2177 129.5 46.2177C130.135 46.2177 130.743 46.4692 131.192 46.9168C131.641 47.3644 131.893 47.9716 131.893 48.6046V56.2589C131.893 56.8919 131.641 57.499 131.192 57.9466C130.743 58.3943 130.135 58.6458 129.5 58.6458C128.865 58.6458 128.257 58.3943 127.808 57.9466C127.359 57.499 127.107 56.8919 127.107 56.2589V48.6046ZM92.485 83.1422H100.165C100.799 83.1422 101.408 83.3937 101.857 83.8413C102.305 84.2889 102.558 84.896 102.558 85.5291C102.558 86.1621 102.305 86.7692 101.857 87.2168C101.408 87.6645 100.799 87.9159 100.165 87.9159H92.485C91.8504 87.9159 91.2418 87.6645 90.793 87.2168C90.3443 86.7692 90.0922 86.1621 90.0922 85.5291C90.0922 84.896 90.3443 84.2889 90.793 83.8413C91.2418 83.3937 91.8504 83.1422 92.485 83.1422ZM109.105 105.874C109.151 105.92 109.188 105.975 109.213 106.035C109.238 106.096 109.251 106.16 109.251 106.225C109.251 106.291 109.238 106.355 109.213 106.416C109.188 106.476 109.151 106.531 109.105 106.577L103.678 111.99C103.585 112.083 103.458 112.135 103.326 112.135C103.193 112.135 103.067 112.082 102.973 111.989C102.88 111.896 102.828 111.769 102.828 111.637C102.828 111.505 102.881 111.379 102.974 111.286L108.401 105.874C108.447 105.828 108.502 105.791 108.562 105.766C108.623 105.741 108.687 105.728 108.753 105.728C108.818 105.728 108.883 105.741 108.943 105.766C109.004 105.791 109.059 105.828 109.105 105.874ZM129.5 112.411C129.814 112.411 130.125 112.472 130.416 112.592C130.706 112.712 130.97 112.888 131.192 113.11C131.414 113.331 131.59 113.595 131.711 113.884C131.831 114.174 131.893 114.484 131.893 114.798V122.454C131.893 122.767 131.831 123.077 131.711 123.367C131.59 123.657 131.414 123.92 131.192 124.141C130.97 124.363 130.706 124.539 130.416 124.659C130.125 124.779 129.814 124.84 129.5 124.84C129.186 124.84 128.875 124.779 128.584 124.659C128.294 124.539 128.03 124.363 127.808 124.141C127.586 123.92 127.41 123.657 127.289 123.367C127.169 123.077 127.107 122.767 127.107 122.454V114.798C127.107 114.484 127.169 114.174 127.289 113.884C127.41 113.595 127.586 113.331 127.808 113.11C128.03 112.888 128.294 112.712 128.584 112.592C128.875 112.472 129.186 112.411 129.5 112.411ZM149.895 106.577C149.808 106.482 149.761 106.358 149.764 106.23C149.767 106.102 149.819 105.979 149.91 105.889C150.001 105.798 150.123 105.746 150.252 105.743C150.38 105.741 150.505 105.788 150.599 105.874L156.026 111.286C156.119 111.379 156.172 111.505 156.172 111.637C156.172 111.769 156.12 111.896 156.027 111.989C155.98 112.035 155.926 112.072 155.865 112.097C155.805 112.122 155.74 112.135 155.674 112.135C155.542 112.135 155.415 112.083 155.322 111.99L149.895 106.577ZM158.835 83.1422H166.508C167.143 83.1422 167.751 83.3937 168.2 83.8413C168.649 84.2889 168.901 84.896 168.901 85.5291C168.901 86.1621 168.649 86.7692 168.2 87.2168C167.751 87.6645 167.143 87.9159 166.508 87.9159H158.835C158.201 87.9159 157.592 87.6645 157.143 87.2168C156.695 86.7692 156.442 86.1621 156.442 85.5291C156.442 84.896 156.695 84.2889 157.143 83.8413C157.592 83.3937 158.201 83.1422 158.835 83.1422Z" fill="#FFCC00"/>
<path d="M80.2784 85.5287C80.2625 96.3995 83.8799 106.965 90.5584 115.555C90.7846 115.895 91.0108 116.234 91.2387 116.573C99.2597 126.46 110.807 132.863 123.459 134.44C136.11 136.017 148.882 132.646 159.095 125.032C169.308 117.419 176.169 106.156 178.238 93.6055C180.306 81.0555 177.422 68.1939 170.19 57.7192L136.226 86.1326V86.1242C136.226 84.7479 135.69 83.4254 134.732 82.4348C133.775 81.4442 132.469 80.8627 131.09 80.8126L132.242 81.6151C133.282 82.3403 133.991 83.4482 134.213 84.695C134.435 85.9418 134.151 87.2254 133.424 88.2634C132.696 89.3013 131.586 90.0087 130.336 90.2298C129.086 90.4509 127.799 90.1676 126.759 89.4424L108.802 76.9261C107.428 80.2231 106.866 83.8003 107.161 87.3586C107.457 90.9169 108.603 94.3528 110.502 97.379C112.402 100.405 115 102.934 118.08 104.753C121.16 106.572 124.632 107.629 128.205 107.836C131.778 108.042 135.349 107.392 138.619 105.94C141.889 104.488 144.763 102.276 147 99.4891C149.237 96.702 150.773 93.4211 151.479 89.9207C152.185 86.4203 152.04 82.8022 151.057 79.369L172.075 61.0713C178.238 71.7442 180.147 84.3413 177.421 96.3547C174.694 108.368 167.533 118.917 157.362 125.9C147.19 132.884 134.756 135.791 122.533 134.042C110.311 132.294 99.1968 126.017 91.4036 116.463C84.688 106.71 81.7365 94.8619 83.094 83.1072C84.4516 71.3525 90.0265 60.4846 98.7895 52.5101C107.552 44.5356 118.912 39.993 130.77 39.721C142.628 39.449 154.185 43.4659 163.306 51.0301L163.968 50.4771C154.776 41.4573 142.394 36.4101 129.5 36.4273C102.316 36.4273 80.2784 58.4096 80.2784 85.5287Z" fill="black"/>
<path d="M129.235 79.5202L143.211 67.8352C139.018 64.6016 133.812 62.9546 128.517 63.1866C123.222 63.4186 118.181 65.5145 114.289 69.1024L129.235 79.5202Z" fill="black"/>
<path d="M108.401 105.874L102.974 111.285C102.928 111.332 102.891 111.386 102.866 111.447C102.841 111.507 102.828 111.572 102.828 111.637C102.828 111.702 102.84 111.767 102.865 111.827C102.89 111.888 102.927 111.942 102.973 111.989C103.019 112.035 103.074 112.072 103.135 112.097C103.195 112.122 103.26 112.135 103.325 112.135C103.391 112.135 103.456 112.122 103.516 112.097C103.577 112.072 103.632 112.036 103.678 111.989L109.105 106.576C109.192 106.482 109.239 106.357 109.236 106.229C109.233 106.101 109.181 105.979 109.09 105.888C108.999 105.798 108.877 105.745 108.748 105.743C108.62 105.74 108.495 105.787 108.401 105.874Z" fill="white"/>
<path d="M155.674 112.134C155.772 112.133 155.868 112.103 155.949 112.048C156.03 111.994 156.094 111.916 156.131 111.826C156.169 111.735 156.179 111.636 156.16 111.54C156.141 111.444 156.095 111.355 156.026 111.285L150.599 105.874C150.505 105.787 150.38 105.74 150.251 105.743C150.123 105.745 150.001 105.798 149.91 105.888C149.819 105.979 149.766 106.101 149.764 106.229C149.761 106.357 149.808 106.482 149.895 106.576L155.322 111.989C155.368 112.035 155.423 112.072 155.483 112.097C155.544 112.121 155.608 112.134 155.674 112.134Z" fill="white"/>
<path d="M109.105 65.1834C109.151 65.1372 109.188 65.0824 109.213 65.022C109.238 64.9616 109.251 64.8968 109.251 64.8314C109.251 64.766 109.238 64.7012 109.213 64.6408C109.188 64.5804 109.151 64.5256 109.105 64.4794L103.678 59.0661C103.632 59.02 103.577 58.9834 103.516 58.9585C103.456 58.9336 103.391 58.9208 103.325 58.9209C103.26 58.921 103.195 58.9339 103.135 58.959C103.074 58.984 103.019 59.0207 102.973 59.067C102.927 59.1132 102.89 59.168 102.865 59.2284C102.84 59.2887 102.828 59.3534 102.828 59.4187C102.828 59.484 102.841 59.5486 102.866 59.6089C102.891 59.6692 102.928 59.724 102.974 59.7701L107.783 64.5676L108.858 65.3174C108.951 65.2966 109.037 65.2502 109.105 65.1834Z" fill="white"/>
<path d="M126.759 89.4426C127.274 89.8017 127.855 90.0561 128.469 90.1912C129.082 90.3263 129.717 90.3395 130.336 90.23C130.954 90.1205 131.546 89.8905 132.075 89.5531C132.605 89.2157 133.063 88.7775 133.423 88.2635C133.783 87.7496 134.038 87.17 134.174 86.5577C134.309 85.9454 134.322 85.3126 134.212 84.6952C134.103 84.0779 133.872 83.4881 133.534 82.9597C133.196 82.4312 132.756 81.9744 132.241 81.6152L131.09 80.8128L129.235 79.5202L114.288 69.1024L108.858 65.3126L107.783 64.5628L107.093 64.081C106.578 63.7218 105.997 63.4675 105.383 63.3324C104.769 63.1973 104.135 63.1841 103.516 63.2936C102.897 63.403 102.306 63.6331 101.776 63.9705C101.246 64.3079 100.788 64.746 100.428 65.26C100.068 65.7739 99.8133 66.3536 99.6779 66.9658C99.5424 67.5781 99.5292 68.211 99.639 68.8283C99.7487 69.4457 99.9793 70.0354 100.318 70.5639C100.656 71.0923 101.095 71.5492 101.61 71.9083L108.802 76.9212L126.759 89.4426Z" fill="#EF3C24"/>
<path d="M129.5 58.6458C130.134 58.6458 130.743 58.3943 131.192 57.9467C131.64 57.4991 131.892 56.892 131.892 56.2589V48.6046C131.892 48.2912 131.831 47.9808 131.71 47.6912C131.59 47.4016 131.414 47.1385 131.192 46.9169C130.969 46.6952 130.706 46.5194 130.415 46.3995C130.125 46.2795 129.814 46.2178 129.5 46.2178C129.185 46.2178 128.874 46.2795 128.584 46.3995C128.294 46.5194 128.03 46.6952 127.808 46.9169C127.586 47.1385 127.409 47.4016 127.289 47.6912C127.169 47.9808 127.107 48.2912 127.107 48.6046V56.2589C127.107 56.892 127.359 57.4991 127.808 57.9467C128.256 58.3943 128.865 58.6458 129.5 58.6458Z" fill="white"/>
<path d="M127.107 114.798V122.453C127.107 123.087 127.359 123.694 127.808 124.141C128.256 124.589 128.865 124.84 129.5 124.84C130.134 124.84 130.743 124.589 131.192 124.141C131.64 123.694 131.892 123.087 131.892 122.453V114.798C131.892 114.164 131.64 113.557 131.192 113.11C130.743 112.662 130.134 112.411 129.5 112.411C128.865 112.411 128.256 112.662 127.808 113.11C127.359 113.557 127.107 114.164 127.107 114.798Z" fill="white"/>
<path d="M90.0923 85.529C90.0923 86.162 90.3444 86.7691 90.7931 87.2167C91.2418 87.6644 91.8504 87.9158 92.485 87.9158H100.165C100.799 87.9158 101.408 87.6644 101.857 87.2167C102.306 86.7691 102.558 86.162 102.558 85.529C102.558 84.8959 102.306 84.2888 101.857 83.8412C101.408 83.3936 100.799 83.1421 100.165 83.1421H92.485C91.8504 83.1421 91.2418 83.3936 90.7931 83.8412C90.3444 84.2888 90.0923 84.8959 90.0923 85.529Z" fill="white"/>
<path d="M158.835 87.9158H166.508C167.143 87.9158 167.751 87.6644 168.2 87.2167C168.649 86.7691 168.901 86.162 168.901 85.529C168.901 84.8959 168.649 84.2888 168.2 83.8412C167.751 83.3936 167.143 83.1421 166.508 83.1421H158.835C158.201 83.1421 157.592 83.3936 157.143 83.8412C156.694 84.2888 156.442 84.8959 156.442 85.529C156.442 86.162 156.694 86.7691 157.143 87.2167C157.592 87.6644 158.201 87.9158 158.835 87.9158Z" fill="white"/>
<path d="M178.298 43.4725C178.242 43.5281 178.198 43.5942 178.168 43.667C178.137 43.7398 178.122 43.8178 178.122 43.8966C178.122 43.9754 178.137 44.0534 178.168 44.1262C178.198 44.199 178.242 44.2651 178.298 44.3207C178.808 44.8296 178.654 46.1868 177.708 47.1317C176.57 48.2666 175.497 49.1504 175.48 49.1589C175.364 49.2609 175.291 49.4041 175.278 49.5585C175.265 49.7128 175.313 49.8661 175.411 49.9861C175.509 50.1061 175.65 50.1833 175.804 50.2014C175.958 50.2196 176.114 50.1773 176.237 50.0835C176.283 50.0461 177.373 49.1555 178.555 47.9765C179.915 46.6194 180.189 44.5192 179.145 43.4759C179.033 43.3637 178.881 43.3004 178.722 43.2998C178.564 43.2992 178.411 43.3613 178.298 43.4725Z" fill="white"/>
</svg>
