<svg width="257" height="171" viewBox="0 0 257 171" fill="none" xmlns="http://www.w3.org/2000/svg">
<g clip-path="url(#clip0)">
<path d="M56.847 31.9453C55.8361 31.9453 54.8334 32.1286 53.8872 32.4865V138.513C54.8334 138.871 55.8361 139.054 56.847 139.054H68.1108V31.9453H56.847Z" fill="#FFCC00"/>
<path d="M95.1122 31.9453H80.8887V139.053H95.1122V31.9453Z" fill="#FFCC00"/>
<path d="M122.112 31.9453H107.888V139.053H122.112V31.9453Z" fill="#FFCC00"/>
<path d="M149.112 31.9453H134.889V139.053H149.112V31.9453Z" fill="#EF3C24"/>
<path d="M176.111 31.9453H161.888V139.053H176.111V31.9453Z" fill="#FFCC00"/>
<path d="M200.153 31.9453H188.889V39.8761C189.113 39.6627 189.395 39.5199 189.699 39.4655C190.003 39.4112 190.316 39.4476 190.599 39.5702C190.883 39.6929 191.125 39.8964 191.295 40.1556C191.464 40.4149 191.555 40.7185 191.555 41.0289C191.555 41.3392 191.464 41.6428 191.295 41.9021C191.125 42.1613 190.883 42.3648 190.599 42.4875C190.316 42.6101 190.003 42.6465 189.699 42.5922C189.395 42.5378 189.113 42.395 188.889 42.1816V139.048H200.153C201.164 139.048 202.167 138.864 203.113 138.506V32.4797C202.166 32.1242 201.163 31.9431 200.153 31.9453ZM196.839 42.6159C196.526 42.6162 196.221 42.5233 195.961 42.349C195.701 42.1746 195.498 41.9267 195.378 41.6364C195.258 41.3462 195.227 41.0268 195.288 40.7186C195.349 40.4105 195.499 40.1274 195.72 39.9052C195.941 39.6831 196.223 39.5318 196.529 39.4706C196.836 39.4094 197.154 39.441 197.442 39.5613C197.731 39.6817 197.978 39.8855 198.151 40.1469C198.324 40.4083 198.417 40.7155 198.417 41.0297C198.417 41.4504 198.25 41.8538 197.954 42.1513C197.659 42.4488 197.257 42.6159 196.839 42.6159Z" fill="#FFCC00"/>
<path d="M200.153 30.4187H149.112V8.90123L134.888 4.49052V30.4187H122.111V0.532748L120.53 0.0424805L107.887 8.80114V30.4187H95.1117V17.6514L80.8881 27.506V30.4187H56.8468C54.2122 30.4232 51.6867 31.4774 49.8237 33.3503C47.9608 35.2231 46.9122 37.762 46.9077 40.4107V130.589C46.9122 133.238 47.9608 135.777 49.8237 137.65C51.6867 139.523 54.2122 140.577 56.8468 140.581H60.2825L53.887 149.647V163.271L68.1106 155.999V140.581H80.8881V149.466L95.1117 142.193V140.581H137.572L149.112 166.153V140.581H161.888V166.681L176.111 166.089V140.581H188.889V165.556L203.112 164.962V140.125C205.133 139.488 206.898 138.22 208.153 136.505C209.407 134.79 210.085 132.718 210.088 130.589V40.4107C210.084 37.7626 209.036 35.2242 207.174 33.3515C205.311 31.4787 202.787 30.4241 200.153 30.4187ZM208.57 130.589C208.569 132.834 207.681 134.987 206.102 136.574C204.523 138.162 202.382 139.054 200.149 139.055H56.8468C54.6139 139.054 52.4726 138.162 50.8937 136.574C49.3148 134.987 48.4273 132.834 48.4264 130.589V40.4107C48.4273 38.1659 49.3148 36.0132 50.8937 34.4259C52.4726 32.8386 54.6139 31.9464 56.8468 31.9455H200.153C202.386 31.9464 204.527 32.8386 206.106 34.4259C207.685 36.0132 208.572 38.1659 208.573 40.4107L208.57 130.589Z" fill="black"/>
<path d="M183.104 39.4419C182.792 39.4419 182.487 39.535 182.227 39.7095C181.967 39.884 181.765 40.132 181.645 40.4221C181.526 40.7122 181.494 41.0315 181.555 41.3395C181.616 41.6475 181.767 41.9305 181.988 42.1525C182.208 42.3746 182.49 42.5258 182.796 42.5871C183.103 42.6484 183.42 42.6169 183.709 42.4967C183.997 42.3766 184.244 42.173 184.418 41.9119C184.591 41.6508 184.684 41.3438 184.684 41.0298C184.684 40.8212 184.643 40.6146 184.564 40.4218C184.485 40.2291 184.368 40.054 184.222 39.9065C184.075 39.759 183.901 39.642 183.709 39.5623C183.517 39.4826 183.312 39.4417 183.104 39.4419Z" fill="black"/>
<path d="M188.889 42.1814C189.153 42.4303 189.494 42.5803 189.855 42.606C190.216 42.6316 190.574 42.5314 190.87 42.3223C191.166 42.1131 191.381 41.8078 191.479 41.4578C191.578 41.1077 191.553 40.7343 191.409 40.4006C191.265 40.0669 191.011 39.7931 190.69 39.6256C190.369 39.458 190.001 39.4068 189.646 39.4807C189.292 39.5546 188.974 39.7489 188.746 40.0311C188.517 40.3132 188.393 40.6658 188.393 41.0295C188.393 41.2454 188.437 41.459 188.523 41.6571C188.608 41.8552 188.733 42.0336 188.889 42.1814Z" fill="black"/>
<path d="M196.838 39.4419C196.526 39.4416 196.22 39.5344 195.961 39.7087C195.701 39.8829 195.498 40.1308 195.378 40.4209C195.258 40.711 195.227 41.0304 195.287 41.3385C195.348 41.6466 195.499 41.9297 195.719 42.1519C195.94 42.3742 196.222 42.5256 196.528 42.587C196.834 42.6484 197.152 42.617 197.441 42.4969C197.73 42.3768 197.976 42.1733 198.15 41.9121C198.324 41.6509 198.416 41.3439 198.416 41.0298C198.416 40.8213 198.376 40.6149 198.297 40.4222C198.217 40.2296 198.101 40.0545 197.955 39.9071C197.808 39.7596 197.634 39.6426 197.443 39.5628C197.251 39.483 197.046 39.4419 196.838 39.4419Z" fill="black"/>
<path d="M14.1098 73.7656L-0.11377 83.6185L14.1098 95.6411V73.7656Z" fill="black"/>
<path d="M41.1119 167.761L38.8574 170.957L41.1119 169.805V167.761Z" fill="black"/>
<path d="M41.1118 55.061L26.8882 64.9139V106.441L41.1118 118.463V55.061Z" fill="black"/>
<path d="M161.888 24.3966L172.649 16.196L161.888 12.8608V24.3966Z" fill="black"/>
<path d="M215.888 164.43L230.112 163.838V107.755L223.974 95.1917L230.112 85.8122V51.0625L215.888 51.6919V164.43Z" fill="black"/>
<path d="M242.89 163.305L256.963 162.718L242.89 133.909V163.305Z" fill="black"/>
<path d="M242.89 50.4958V66.2879L253.531 50.0259L242.89 50.4958Z" fill="black"/>
</g>
<defs>
<clipPath id="clip0">
<rect width="257" height="171" fill="white"/>
</clipPath>
</defs>
</svg>
