<svg width="609" height="404" viewBox="0 0 609 404" fill="none" xmlns="http://www.w3.org/2000/svg">
<path d="M605.877 334.755L553.766 321.737L547.38 347.42L601.914 394.806L607.624 371.832L605.877 334.755Z" fill="black"/>
<path d="M441.459 225.386L435.325 250.051L489.859 297.437L503.895 240.985L441.459 225.386Z" fill="black"/>
<path d="M568.045 257.009L505.606 241.414L491.354 298.736L500.372 306.571L552.482 319.593L568.045 257.009Z" fill="black"/>
<path d="M503.314 309.132L545.884 346.122L552.054 321.308L503.314 309.132Z" fill="black"/>
<path d="M473.474 96.8092L457.907 159.389L520.343 174.992L535.91 112.412L473.474 96.8092Z" fill="black"/>
<path d="M54.854 128.803L46.8566 126.799L0 173.945C1.94736 174.67 7.96139 178.963 16.7945 185.752L39.2791 191.363L54.854 128.803Z" fill="black"/>
<path d="M343.855 62.5997L355.903 14.1438L291.864 4.99365L281.416 47.0008L343.855 62.5997Z" fill="black"/>
<path d="M290.105 4.74538L271.979 2.15625L265.257 42.9611L279.704 46.5722L290.105 4.74538Z" fill="black"/>
<path d="M279.28 48.2875L264.969 44.7124L254.453 108.555L263.718 110.867L279.28 48.2875Z" fill="black"/>
<path d="M313.161 193.335L297.598 255.915L346.442 268.119L363.62 257.105L375.596 208.934L313.161 193.335Z" fill="black"/>
<path d="M522.024 175.399L584.46 190.998L596.76 141.532L596.096 127.436L537.583 112.819L522.024 175.399Z" fill="black"/>
<path d="M538.011 111.104L596.008 125.593L592.837 58.3314L553.574 48.52L538.011 111.104Z" fill="black"/>
<path d="M592.749 56.4877L592.345 47.9267L555.046 42.5962L554.002 46.8045L592.749 56.4877Z" fill="black"/>
<path d="M599.267 194.697L597.052 147.676L586.171 191.427L599.267 194.697Z" fill="black"/>
<path d="M553.29 42.3477L513.259 36.6284L552.286 46.3797L553.29 42.3477Z" fill="black"/>
<path d="M408.002 78.6237L421.697 23.5466L357.658 14.3965L345.566 63.0248L408.002 78.6237Z" fill="black"/>
<path d="M472.153 94.6512L487.496 32.945L423.453 23.7949L409.713 79.0523L472.153 94.6512Z" fill="black"/>
<path d="M536.3 110.675L551.863 48.0953L496.217 34.1917L489.251 33.1978L473.864 95.0763L536.3 110.675Z" fill="black"/>
<path d="M409.323 80.7824L393.756 143.362L456.191 158.965L471.758 96.3853L409.323 80.7824Z" fill="black"/>
<path d="M119.433 143.115L134.992 80.5354L101.207 72.0947L60.616 112.948L56.9932 127.516L119.433 143.115Z" fill="black"/>
<path d="M140.87 286.876L149.951 294.427L151.186 289.449L140.87 286.876Z" fill="black"/>
<path d="M167.165 225.154L104.726 209.555L94.9609 248.832C109.244 260.604 123.835 272.7 137.747 284.267L151.61 287.73L167.165 225.154Z" fill="black"/>
<path d="M140.458 58.5638L129.325 43.7905L102.658 70.6317L135.419 78.8199L140.458 58.5638Z" fill="black"/>
<path d="M20.3013 188.465C25.1557 192.232 30.6979 196.613 36.7879 201.471L38.8672 193.102L20.3013 188.465Z" fill="black"/>
<path d="M58.1931 115.389L48.3003 125.344L55.282 127.088L58.1931 115.389Z" fill="black"/>
<path d="M284.727 307.681L344.395 269.43L297.174 257.634L284.727 307.681Z" fill="black"/>
<path d="M40.5785 193.531L38.3032 202.681C54.17 215.375 73.4677 231.138 93.4491 247.59L103.014 209.114L40.5785 193.531Z" fill="black"/>
<path d="M160.423 85.0644L141.825 60.3755L137.131 79.2449L160.423 85.0644Z" fill="black"/>
<path d="M263.29 112.583L254.164 110.306L243.648 174.145L247.727 175.167L263.29 112.583Z" fill="black"/>
<path d="M233.023 241.606L217.46 304.186L269.787 317.26L282.563 309.068L295.459 257.205L233.023 241.606Z" fill="black"/>
<path d="M169.3 223.863L231.74 239.462L247.303 176.882L243.36 175.896L240.761 191.683L225.502 171.435L184.863 161.283L169.3 223.863Z" fill="black"/>
<path d="M121.144 143.54L183.58 159.139L191.685 126.55L162.115 87.3085L136.703 80.96L121.144 143.54Z" fill="black"/>
<path d="M152.886 289.878L151.442 295.685C174.567 314.964 194.628 331.757 206.332 341.628L215.325 305.477L152.886 289.878Z" fill="black"/>
<path d="M223.81 169.191L193.048 128.366L185.291 159.568L223.81 169.191Z" fill="black"/>
<path d="M207.836 342.891L217.337 350.883L267.74 318.571L217.037 305.906L207.836 342.891Z" fill="black"/>
<path d="M377.312 209.363L365.784 255.719L409.553 227.659L433.829 248.753L439.747 224.958L377.312 209.363Z" fill="black"/>
<path d="M265.024 113.028L249.457 175.608L311.893 191.211L327.459 128.631L265.024 113.028Z" fill="black"/>
<path d="M56.5708 129.243L41.0039 191.823L103.439 207.426L119.006 144.846L56.5708 129.243Z" fill="black"/>
<path d="M554.194 320.018L605.789 332.911L602.618 265.646L569.757 257.438L554.194 320.018Z" fill="black"/>
<path d="M249.034 177.329L233.467 239.909L295.903 255.512L311.47 192.932L249.034 177.329Z" fill="black"/>
<path d="M168.888 225.602L153.321 288.182L215.757 303.785L231.324 241.205L168.888 225.602Z" fill="black"/>
<path d="M609 400.966L607.916 377.977L603.406 396.104L609 400.966Z" fill="black"/>
<path d="M570.181 255.723L602.53 263.803L599.355 196.541L585.743 193.143L570.181 255.723Z" fill="black"/>
<path d="M457.484 161.11L441.917 223.69L504.353 239.293L519.92 176.713L457.484 161.11Z" fill="black"/>
<path d="M345.166 64.755L329.599 127.335L392.035 142.938L407.602 80.358L345.166 64.755Z" fill="black"/>
<path d="M281.015 48.7243L265.448 111.304L327.883 126.907L343.45 64.3272L281.015 48.7243Z" fill="black"/>
<path d="M120.727 145.275L105.16 207.854L167.595 223.457L183.162 160.878L120.727 145.275Z" fill="black"/>
<path d="M521.636 177.141L506.069 239.721L568.504 255.324L584.071 192.744L521.636 177.141Z" fill="black"/>
<path d="M329.176 129.056L313.609 191.636L376.045 207.239L391.612 144.659L329.176 129.056Z" fill="black"/>
<path d="M393.328 145.087L377.761 207.667L440.197 223.269L455.764 160.69L393.328 145.087Z" fill="black"/>
<path d="M605.877 334.755L605.789 332.907L554.206 320.018L569.769 257.438L602.602 265.646L602.514 263.803L570.181 255.707L585.744 193.127L599.339 196.525L599.251 194.682L586.155 191.411L597.036 147.661L596.744 141.512L584.444 190.982L522.008 175.383L537.567 112.804L596.096 127.453L596.008 125.609L538.027 111.12L553.59 48.5363L592.853 58.3477L592.765 56.5001L554.018 46.8209L555.062 42.6126L553.306 42.3641L552.303 46.3961L513.275 36.6448L496.237 34.1919L551.863 48.0954L536.3 110.675L473.864 95.0765L489.251 33.1979L487.496 32.9454L472.153 94.6677L409.713 79.0688L423.461 23.7953L421.705 23.5468L408.01 78.6239L345.566 63.025L357.658 14.3967L355.903 14.1442L343.855 62.6002L281.416 47.0013L291.864 4.9941L290.105 4.74561L279.708 46.5724L265.261 42.9653L264.973 44.7168L279.284 48.2918L263.717 110.868L254.452 108.555L254.164 110.307L263.289 112.587L247.727 175.167L243.648 174.145L243.36 175.897L247.303 176.882L231.74 239.462L169.3 223.863L184.863 161.284L225.502 171.436L223.81 169.191L185.291 159.572L193.049 128.37L191.685 126.555L183.58 159.139L121.16 143.544L136.703 80.9605L162.115 87.3091L160.423 85.0647L137.131 79.2451L141.821 60.3758L140.458 58.5642L135.419 78.8163L102.658 70.6321L101.207 72.095L134.992 80.5357L119.433 143.116L56.9932 127.517L60.616 112.948L58.1928 115.389L55.2818 127.088L48.3001 125.344L46.8486 126.803L54.8459 128.807L39.295 191.387L16.7944 185.768C17.9141 186.63 19.0737 187.524 20.2853 188.465L38.8672 193.103L36.7879 201.471L38.3034 202.674L40.5786 193.523L103.014 209.118L93.4493 247.594L94.9608 248.841L104.726 209.563L167.165 225.162L151.602 287.734L137.739 284.271L140.87 286.876L151.174 289.449L149.951 294.427L151.454 295.686L152.898 289.878L215.337 305.477L206.332 341.629L207.836 342.891L217.033 305.906L267.736 318.571L269.783 317.26L217.461 304.203L233.023 241.623L295.463 257.206L282.563 309.068L284.726 307.681L297.174 257.634L344.395 269.43L346.442 268.119L297.598 255.915L313.161 193.335L375.597 208.934L363.621 257.105L365.784 255.719L377.312 209.363L439.747 224.958L433.829 248.753L435.325 250.055L441.455 225.386L503.89 240.985L489.855 297.437L491.351 298.736L505.602 241.422L568.041 257.017L552.482 319.593L500.372 306.575L503.315 309.132L552.055 321.308L545.885 346.122L547.38 347.42L553.778 321.737L605.877 334.755ZM535.872 112.391L520.309 174.971L457.874 159.376L473.444 96.7919L535.872 112.391ZM471.725 96.359L456.162 158.939L393.727 143.348L409.29 80.7682L471.725 96.359ZM407.574 80.3273L392.015 142.919L329.576 127.324L345.139 64.7404L407.574 80.3273ZM280.992 48.7047L343.427 64.3035L327.864 126.895L265.429 111.297L280.992 48.7047ZM265.001 113.024L327.44 128.623L311.898 191.179L249.438 175.596L265.001 113.024ZM41.0065 191.812L56.5654 129.232L119.005 144.831L103.442 207.411L41.0065 191.812ZM105.153 207.844L120.716 145.264L183.14 160.855L167.589 223.439L105.153 207.844ZM215.749 303.762L153.314 288.171L168.876 225.591L231.312 241.186L215.749 303.762ZM295.903 255.49L233.451 239.891L249.014 177.311L311.45 192.906L295.903 255.49ZM313.589 191.62L329.152 129.056L391.587 144.655L376.024 207.211L313.589 191.62ZM377.736 207.651L393.299 145.067L455.734 160.666L440.175 223.242L377.736 207.651ZM441.887 223.683L457.45 161.091L519.889 176.69L504.322 239.274L441.887 223.683ZM506.034 239.715L521.597 177.135L584.032 192.734L568.469 255.306L506.034 239.715Z" fill="white"/>
<path d="M601.915 394.806L603.406 396.104L607.917 377.976L607.625 371.832L601.915 394.806Z" fill="white"/>
<path d="M179.465 337.917C169.672 326.647 172.927 291.958 172.927 291.958L127.074 295.589C127.074 295.589 127.762 330.747 121.476 336.43" fill="#FFCC00"/>
<path d="M172.659 313.36C167.629 319.444 155.865 322.647 146.268 322.362C137.871 322.118 129.593 309.641 127.014 305.389C127.162 299.725 127.082 295.589 127.082 295.589L172.935 291.958C172.35 299.077 172.258 306.228 172.659 313.36Z" fill="black"/>
<path d="M143.257 167.131C123.959 166.482 95.6167 194.73 102.942 241.162C102.942 241.162 95.7247 236.629 94.5451 247.647C93.3654 258.664 96.0965 264.692 102.49 270.832C108.884 276.973 110.364 272.139 110.364 272.139C110.364 272.139 118.457 304.976 149.375 305.882C180.293 306.788 184.963 267.778 184.963 267.778C184.963 267.778 189.302 271.65 192.229 267.233C195.156 262.817 202.178 245.775 198.319 238.609C194.46 231.442 191.193 234.2 189.842 235.114C189.874 235.102 195.596 168.895 143.257 167.131Z" fill="#FFCC00"/>
<path d="M189.874 235.102L189.554 238.785C186.851 206.112 170.76 173.608 146.888 171.64C123.016 169.672 106.433 199.595 106.433 199.595C114.335 178.518 130.713 166.73 143.257 167.131C195.596 168.894 189.874 235.102 189.874 235.102Z" fill="#FFF5CC"/>
<path d="M190.778 242.917C189.61 244.233 188.917 245.904 188.81 247.662C188.73 249.205 189.042 250.788 190.778 251.538C193.909 252.889 187.731 256.476 187.667 258.66C187.603 260.844 188.754 262.131 192.381 257.674C196.008 253.217 197.179 247.426 196.408 244.091C195.636 240.757 194.776 237.626 192.493 240.737C191.809 241.678 191.237 242.38 190.778 242.917Z" fill="#EF3C24"/>
<path d="M97.6202 257.831C96.3446 254.901 96.0927 249.334 97.9441 246.769C99.7955 244.204 101.187 247.061 102.167 248.969C103.146 250.877 106.365 254.035 103.566 256.821C100.767 259.606 103.966 259.402 105.69 261.775C107.413 264.147 107.689 267.963 102.862 264.015C98.0361 260.067 98.184 259.125 97.6202 257.831Z" fill="#EF3C24"/>
<path d="M516.766 337.917C506.973 326.647 510.232 291.958 510.232 291.958L464.383 295.589C464.383 295.589 465.067 330.747 458.805 336.43" fill="#FFCC00"/>
<path d="M509.964 313.36C504.934 319.444 493.17 322.647 483.573 322.362C475.176 322.118 466.899 309.641 464.315 305.389C464.467 299.725 464.383 295.589 464.383 295.589L510.232 291.958C509.652 299.077 509.562 306.229 509.964 313.36Z" fill="black"/>
<path d="M480.562 167.131C461.277 166.482 432.922 194.73 440.248 241.162C440.248 241.162 433.026 236.629 431.85 247.647C430.675 258.664 433.402 264.692 439.796 270.832C446.19 276.973 447.673 272.127 447.673 272.127C447.673 272.127 455.771 304.964 486.684 305.87C517.598 306.776 522.273 267.766 522.273 267.766C522.273 267.766 526.611 271.638 529.538 267.221C532.465 262.805 539.487 245.763 535.628 238.597C531.77 231.43 528.503 234.188 527.155 235.102C527.179 235.102 532.901 168.895 480.562 167.131Z" fill="#FFCC00"/>
<path d="M527.175 235.102L526.859 238.785C524.152 206.112 508.065 173.608 484.193 171.64C460.321 169.672 443.738 199.595 443.738 199.595C451.64 178.518 468.018 166.73 480.562 167.131C532.901 168.894 527.175 235.102 527.175 235.102Z" fill="#FFF5CC"/>
<path d="M528.078 242.917C526.914 244.235 526.222 245.905 526.111 247.662C526.035 249.205 526.343 250.788 528.082 251.538C531.209 252.889 525.031 256.476 524.967 258.66C524.903 260.844 526.055 262.131 529.686 257.674C533.317 253.217 534.484 247.426 533.712 244.091C532.941 240.757 532.077 237.626 529.798 240.737C529.11 241.678 528.542 242.38 528.078 242.917Z" fill="#EF3C24"/>
<path d="M434.921 257.831C433.649 254.901 433.393 249.334 435.245 246.769C437.096 244.204 438.492 247.061 439.471 248.969C440.451 250.877 443.662 254.035 440.867 256.821C438.072 259.606 441.267 259.402 442.99 261.775C444.714 264.147 444.99 267.963 440.167 264.015C435.345 260.067 435.485 259.125 434.921 257.831Z" fill="#EF3C24"/>
<path d="M386.641 189.976L410.093 169.095C410.093 169.095 418.031 142.093 398.369 146.294C378.708 150.494 382.97 107.148 386.641 105.978C390.312 104.807 389.44 82.884 373.541 79.1927C357.642 75.5014 354.931 54.8125 354.931 54.8125C354.931 54.8125 330.451 38.2877 311.746 41.8829C293.04 45.478 279.104 59.7983 279.104 59.7983L252.477 67.3052" fill="white"/>
<path d="M243.78 95.3531C243.78 95.3531 242.428 80.6038 235.151 86.0386C235.151 86.0386 257.584 52.8088 269.764 66.2073" fill="white"/>
<path d="M235.735 179.956L214.33 197.23C214.33 197.23 195.908 178.14 214.33 161.524C232.752 144.907 227.225 125.192 223.835 120.374C220.444 115.557 243.776 95.3525 243.776 95.3525" fill="white"/>
<path d="M367.079 339.312C350.145 319.793 355.775 259.858 355.775 259.858L276.509 266.127C276.509 266.127 277.709 326.911 266.864 336.739" fill="#FFCC00"/>
<path d="M355.319 296.856C346.622 307.373 326.293 312.908 309.678 312.419C295.151 311.994 280.852 290.423 276.389 283.073C276.649 273.277 276.509 266.127 276.509 266.127L355.779 259.854C354.775 272.163 354.621 284.526 355.319 296.856Z" fill="black"/>
<path d="M304.488 44.0473C271.147 42.925 222.115 91.7417 234.787 172.037C234.787 172.037 222.311 164.197 220.288 183.259C218.264 202.321 222.971 212.729 234.023 223.338C245.075 233.947 247.643 225.575 247.643 225.575C247.643 225.575 261.638 282.343 315.088 283.914C368.539 285.485 376.644 218.032 376.644 218.032C376.644 218.032 384.142 224.721 389.204 217.086C394.267 209.451 406.399 179.988 399.733 167.6C393.067 155.211 387.413 159.953 385.074 161.56C385.074 161.56 394.974 47.0933 304.488 44.0473Z" fill="#FFCC00"/>
<path d="M385.073 161.56L384.526 167.933C379.851 111.421 352.04 55.2495 310.766 51.8388C269.491 48.428 240.825 100.162 240.825 100.162C254.484 63.7223 282.811 43.3179 304.488 44.0513C394.974 47.0934 385.073 161.56 385.073 161.56Z" fill="white"/>
<path d="M386.637 175.067C384.623 177.346 383.426 180.236 383.238 183.275C383.106 185.944 383.638 188.678 386.641 189.972C392.051 192.305 381.371 198.513 381.259 202.285C381.147 206.056 383.138 208.296 389.412 200.581C395.686 192.866 397.693 182.862 396.378 177.103C395.062 171.343 393.555 165.929 389.608 171.299C388.424 172.91 387.437 174.137 386.637 175.067Z" fill="#EF3C24"/>
<path d="M225.586 200.854C223.383 195.788 222.943 186.165 226.142 181.728C229.341 177.291 231.74 182.233 233.447 185.532C235.155 188.83 240.697 194.289 235.867 199.103C231.036 203.916 236.586 203.567 239.537 207.671C242.488 211.776 242.976 218.369 234.651 211.543C226.326 204.718 226.558 203.09 225.586 200.854Z" fill="#EF3C24"/>
<path d="M240.825 197.23C230.029 219.154 227.757 237.55 232.664 247.803C237.57 258.055 246.023 264.299 246.023 264.299L250.47 255.826C250.47 255.826 246.911 279.902 264.261 296.844L268.712 289.265C268.712 289.265 270.047 326.715 288.729 327.164V319.148C288.729 319.148 296.303 341.428 316.976 332.959C337.649 324.49 336.969 304.872 355.763 316.463C374.557 328.054 370.111 279.012 370.111 279.012H377.672C377.672 279.012 402.432 248.696 385.382 229.522L393.239 223.727C393.239 223.727 390.124 201.435 377.672 202.773L336.766 259.854L286.054 250.925L240.825 197.23Z" fill="white"/>
<path d="M284.483 226.525C295.903 216.028 354.068 209.214 354.924 234.524C355.779 259.835 300.817 278.263 300.817 278.263L254.433 250.428L284.483 226.525Z" fill="white"/>
</svg>
