<svg width="63" height="37" viewBox="0 0 63 37" fill="none" xmlns="http://www.w3.org/2000/svg">
<path d="M18.5376 17.8926V16.4686H19.7941V17.8926H21.1029V19.1753H19.7941V20.5993H18.5376V19.1753H17.145V17.8926H18.5376Z" fill="white"/>
<path d="M19.8204 20.6307H18.5116V19.2067H17.1138V17.8665H18.5116V16.4425H19.8204V17.8665H21.1345V19.2067H19.8204V20.6307ZM18.5692 20.5941H19.7628V19.1492H21.0769V17.9241H19.7628V16.5001H18.5692V17.9241H17.1714V19.1492H18.5692V20.5941Z" fill="white"/>
<path d="M29.2593 22.0024V14.9295H32.0235C32.3285 14.9061 32.6349 14.9467 32.9233 15.0488C33.2116 15.1508 33.4754 15.312 33.6977 15.522C33.9201 15.732 34.096 15.9862 34.2143 16.2683C34.3326 16.5503 34.3906 16.854 34.3846 17.1598C34.4039 17.6257 34.267 18.0847 33.9958 18.4641C33.7245 18.8434 33.3344 19.1214 32.8873 19.2539L34.7406 22.0077H32.7722L31.055 19.39V22.0077L29.2593 22.0024ZM31.8455 17.8613C31.9427 17.875 32.0417 17.8666 32.1353 17.8368C32.2288 17.807 32.3144 17.7566 32.3858 17.6892C32.4572 17.6219 32.5126 17.5393 32.5477 17.4476C32.5829 17.356 32.597 17.2576 32.5889 17.1598C32.5929 17.0623 32.5762 16.965 32.5399 16.8744C32.5036 16.7839 32.4485 16.702 32.3783 16.6342C32.308 16.5665 32.2242 16.5144 32.1324 16.4813C32.0406 16.4483 31.9428 16.4351 31.8455 16.4425H31.055V17.8613H31.8455Z" fill="white"/>
<path d="M38.4211 20.547C38.558 20.5654 38.6972 20.5529 38.8287 20.5105C38.9601 20.4682 39.0804 20.3969 39.1807 20.3021C39.2811 20.2073 39.359 20.0912 39.4087 19.9624C39.4585 19.8336 39.4788 19.6952 39.4682 19.5576V14.9296H41.2639V19.746C41.2639 21.3166 39.976 22.0705 38.4368 22.0705C36.8977 22.0705 35.6255 21.3219 35.6255 19.746V14.9296H37.4055V19.5471C37.395 19.6824 37.4142 19.8185 37.4617 19.9456C37.5093 20.0728 37.5841 20.188 37.6808 20.2832C37.7775 20.3785 37.8939 20.4514 38.0218 20.497C38.1497 20.5426 38.286 20.5596 38.4211 20.547Z" fill="white"/>
<path d="M44.8293 16.364C44.4262 16.364 44.0963 16.5734 44.0963 16.9713C44.0963 17.2592 44.2848 17.4634 44.8764 17.5524C45.4253 17.599 45.9355 17.8538 46.3025 18.2646C46.6695 18.6754 46.8654 19.2111 46.8501 19.7617C46.8523 20.0767 46.7894 20.3888 46.6654 20.6783C46.5413 20.9679 46.3588 21.2288 46.1293 21.4445C45.8998 21.6603 45.6282 21.8263 45.3315 21.9322C45.0348 22.0381 44.7195 22.0816 44.4052 22.06C43.4562 22.0865 42.5329 21.7494 41.8242 21.1176L42.6462 19.8664C43.0994 20.2803 43.6869 20.5165 44.3005 20.5313C44.4001 20.5421 44.5009 20.5324 44.5966 20.5028C44.6924 20.4731 44.781 20.4241 44.857 20.3589C44.9331 20.2936 44.995 20.2135 45.0388 20.1234C45.0827 20.0333 45.1076 19.9351 45.112 19.835C45.112 19.3586 44.8083 19.0602 44.2167 18.9502C42.8399 18.6937 42.2954 17.9712 42.2954 17.0603C42.2954 15.7829 43.2639 14.8719 44.7507 14.8719C45.3988 14.857 46.0361 15.0396 46.5779 15.3955L46.002 16.7933C45.6638 16.5343 45.2547 16.3845 44.8293 16.364Z" fill="white"/>
<path d="M50.2111 16.364C49.808 16.364 49.4782 16.5734 49.4782 16.9713C49.4782 17.2592 49.6666 17.4634 50.2582 17.5524C50.8081 17.5977 51.3196 17.852 51.6877 18.2629C52.0558 18.6739 52.2524 19.2102 52.2372 19.7617C52.2386 20.077 52.1751 20.3891 52.0505 20.6787C51.9258 20.9683 51.7429 21.2291 51.5129 21.4448C51.283 21.6604 51.0111 21.8264 50.7141 21.9323C50.4172 22.0381 50.1016 22.0816 49.7871 22.06C48.8377 22.0887 47.9136 21.7513 47.2061 21.1177L48.0228 19.8664C48.4776 20.2811 49.067 20.5172 49.6823 20.5313C49.7837 20.543 49.8863 20.5334 49.9837 20.5031C50.0811 20.4729 50.1711 20.4227 50.2479 20.3557C50.3248 20.2886 50.3868 20.2063 50.4301 20.114C50.4733 20.0216 50.4968 19.9212 50.4991 19.8193C50.4991 19.3429 50.1954 19.0445 49.6038 18.9345C48.2322 18.678 47.6825 17.9555 47.6825 17.0446C47.6825 15.7672 48.6562 14.8562 50.1431 14.8562C50.7894 14.842 51.4248 15.0246 51.9649 15.3798L51.3943 16.7724C51.0507 16.5188 50.6379 16.3763 50.2111 16.364Z" fill="white"/>
<path d="M53.2212 22.0024V14.9296H55.0169V22.0024H53.2212Z" fill="white"/>
<path d="M60.2312 14.9296L62.4981 22.0024H60.7129L60.383 20.9554H58.0429L57.7026 22.0024H55.9121L58.1999 14.9296H60.2312ZM58.5298 19.4057H59.9014L59.247 17.2383L58.5298 19.4057Z" fill="white"/>
<path d="M23.2857 17.8926V16.4686H24.5421V17.8926H25.8509V19.1753H24.5421V20.5993H23.2857V19.1753H21.8931V17.8926H23.2857Z" fill="white"/>
<path d="M24.5685 20.6307H23.2596V19.2067H21.8618V17.8665H23.2596V16.4425H24.5685V17.8665H25.8825V19.2067H24.5685V20.6307ZM23.3172 20.5941H24.5109V19.1492H25.8249V17.9241H24.5109V16.5001H23.3172V17.9241H21.9194V19.1492H23.3172V20.5941Z" fill="white"/>
<path d="M22.3542 22.1647L26.4744 26.2849C24.9426 27.7876 23.0004 28.8033 20.8924 29.2039C18.7844 29.6045 16.6049 29.3722 14.6287 28.5362C12.6525 27.7003 10.968 26.298 9.78746 24.5062C8.6069 22.7144 7.98314 20.6133 7.99479 18.4676C8.00643 16.3219 8.65297 14.2276 9.8529 12.4487C11.0528 10.6699 12.7525 9.28598 14.7376 8.4715C16.7228 7.65701 18.9046 7.44837 21.0082 7.87187C23.1117 8.29537 25.0428 9.33205 26.5581 10.8513L22.4223 15.0029C21.7224 14.2975 20.8294 13.8149 19.8559 13.6158C18.8823 13.4168 17.8716 13.5102 16.951 13.8843C16.0304 14.2585 15.2411 14.8965 14.6824 15.7183C14.1236 16.54 13.8204 17.5086 13.811 18.5023C13.8016 19.4959 14.0863 20.4702 14.6293 21.3024C15.1723 22.1346 15.9494 22.7875 16.8627 23.1791C17.776 23.5706 18.7847 23.6832 19.7619 23.5027C20.7391 23.3222 21.641 22.8567 22.3542 22.1647Z" fill="white"/>
<path d="M19.8253 20.6307H18.5165V19.2067H17.1187V17.8665H18.5165V16.4425H19.8253V17.8665H21.1341V19.2067H19.8253V20.6307ZM18.5688 20.5941H19.7677V19.1492H21.0765V17.9241H19.7677V16.5001H18.5688V17.9241H17.1762V19.1492H18.5688V20.5941Z" fill="white"/>
<path d="M24.5738 20.6307H23.265V19.2067H21.8672V17.8665H23.265V16.4425H24.5738V17.8665H25.8827V19.2067H24.5738V20.6307ZM23.3174 20.5941H24.5162V19.1492H25.8251V17.9241H24.5162V16.5001H23.3174V17.9241H21.9248V19.1492H23.3174V20.5941Z" fill="white"/>
<path d="M31.8715 5.53215C29.3076 2.96627 26.0413 1.21706 22.4846 0.50515C18.9278 -0.206762 15.2399 0.150503 11.8859 1.53189C8.53199 2.91327 5.6622 5.25691 3.63851 8.26722C1.61483 11.2775 0.527887 14.8197 0.514769 18.4469C0.50165 22.0742 1.56294 25.6241 3.5648 28.649C5.56666 31.6739 8.41942 34.0382 11.7633 35.4438C15.1072 36.8494 18.7924 37.2334 22.3542 36.5472C25.916 35.861 29.1949 34.1355 31.7772 31.5882L27.2382 27.044L27.1963 27.0859C25.5148 28.7358 23.3825 29.8513 21.0682 30.2918C18.7539 30.7323 16.3609 30.478 14.1908 29.5611C12.0207 28.6443 10.1704 27.1057 8.87304 25.1392C7.57566 23.1728 6.88919 20.8664 6.9001 18.5105C6.91101 16.1547 7.6188 13.8548 8.93434 11.9004C10.2499 9.94604 12.1143 8.42467 14.2928 7.52791C16.4713 6.63115 18.8665 6.3991 21.1767 6.86098C23.4868 7.32287 25.6086 8.45804 27.2749 10.1235L31.84 5.54262L31.8715 5.53215Z" fill="white"/>
</svg>
