<svg width="56" height="44" viewBox="0 0 56 44" fill="none" xmlns="http://www.w3.org/2000/svg">
<path fill-rule="evenodd" clip-rule="evenodd" d="M37.7533 29.2717V30.9926L39.7133 30.6426V28.9276L37.7533 29.2717ZM41.0842 28.6884V30.4384L43.0442 30.0942V28.3442L41.0842 28.6884ZM44.415 28.1051V29.8201L46.375 29.4759V27.7259L44.415 28.1051ZM15.3592 25.0834V32.4801C15.3713 32.5806 15.3627 32.6826 15.3338 32.7797C15.305 32.8768 15.2565 32.9669 15.1915 33.0446C15.1264 33.1222 15.0461 33.1857 14.9556 33.231C14.865 33.2764 14.7661 33.3028 14.665 33.3084L12.1508 33.7517C11.7075 33.8276 11.5325 33.6817 11.5325 33.2326V31.6167L9.59 31.9609V33.4251C9.59 35.0351 10.5117 35.8109 12.1042 35.5309L14.8808 35.0409C15.5866 34.967 16.2359 34.6212 16.6911 34.0767C17.1463 33.5323 17.3715 32.832 17.3192 32.1242V24.7101L15.3592 25.0834ZM25.8008 23.2459L23.0942 23.7184C21.6067 23.9809 20.6558 24.8851 20.6558 26.4367V27.1426C20.6558 28.2101 21.1458 28.9392 22.2542 29.0326L26.0225 29.3534C26.2792 29.3534 26.3725 29.4817 26.3725 29.7384V30.7301C26.3725 31.1851 26.0867 31.3601 25.6667 31.4301L23.1233 31.8792C22.75 31.9434 22.4933 31.9201 22.4933 31.4884V30.1059L20.5625 30.4442V31.6751C20.5625 33.2617 21.5483 33.8684 23.0475 33.6059L25.865 33.1101C27.3583 32.8476 28.3208 31.9434 28.3208 30.3859V29.2192C28.3374 28.9901 28.3055 28.7601 28.2271 28.5442C28.1488 28.3283 28.0258 28.1313 27.8661 27.9662C27.7065 27.801 27.5138 27.6714 27.3006 27.5858C27.0875 27.5001 26.8587 27.4604 26.6292 27.4692L22.9367 27.1484C22.6042 27.1484 22.5867 27.0259 22.5867 26.7051V26.1217C22.5867 25.6609 22.8725 25.4917 23.2925 25.4217L25.7192 24.9959C26.0983 24.9259 26.355 24.9551 26.355 25.3809V26.8334L28.28 26.4892V25.1417C28.28 23.8117 27.545 23.1584 26.4133 23.1584C26.2078 23.1586 26.0027 23.1782 25.8008 23.2167V23.2459ZM35.9217 20.7726L31.745 32.5967L33.7575 32.2409L37.9167 20.4167L35.9217 20.7726ZM15.3592 12.6584V16.4792L11.55 17.1501V13.3292L9.59 13.6734V23.4909L11.55 23.1467V18.9409L15.3592 18.2642V22.4759L17.3192 22.1259V12.3142L15.3592 12.6584ZM22.5225 18.7601V13.8601C22.5112 13.7623 22.52 13.6632 22.5484 13.5689C22.5767 13.4746 22.624 13.3871 22.6874 13.3118C22.7507 13.2364 22.8288 13.1748 22.9168 13.1306C23.0048 13.0865 23.1009 13.0608 23.1992 13.0551L25.7192 12.6059C26.1508 12.5301 26.3025 12.6642 26.3025 13.1076V18.0834C26.3175 18.2705 26.2597 18.4561 26.1413 18.6017C26.0229 18.7473 25.8529 18.8416 25.6667 18.8651L23.1525 19.3084H22.9717C22.6333 19.3259 22.5225 19.1334 22.5225 18.7601ZM25.7775 10.8092L23.0008 11.2992C22.295 11.3731 21.6457 11.7189 21.1906 12.2634C20.7354 12.8079 20.5101 13.5082 20.5625 14.2159V19.0051C20.5625 20.6209 21.49 21.3967 23.0767 21.1167L25.8533 20.6267C26.5591 20.5529 27.2084 20.207 27.6636 19.6626C28.1188 19.1181 28.344 18.4178 28.2917 17.7101V12.9209C28.2917 11.5209 27.5975 10.7509 26.3842 10.7509C26.1807 10.7541 25.9778 10.7736 25.7775 10.8092ZM31.5 9.81174V19.6234L38.185 18.4567V16.6601L33.4658 17.5001V9.46758L31.5 9.81174ZM44.4675 7.52507V8.86674C44.4721 9.11773 44.4097 9.36541 44.2867 9.58424L42.5075 12.6176L40.7108 10.1676C40.5949 9.97872 40.5399 9.75876 40.5533 9.53757V8.21341L38.6108 8.55757V9.97507C38.5883 10.3524 38.6886 10.727 38.8967 11.0426L41.51 14.6009V17.8617L43.47 17.5176V14.2567L46.0775 9.8234C46.2809 9.46905 46.3819 9.06514 46.3692 8.65674V7.19257L44.4675 7.52507ZM5.66417 28.4842L2.7475 26.0342L5.66417 22.6334V10.5001L50.295 2.60174V14.6242L53.2408 17.0801L50.295 20.5101V32.6959L44.415 33.7576V39.9234L33.005 35.7701L5.66417 40.5942V28.4842ZM3.70417 8.84924V22.1026L0 26.4367L3.72167 29.5517V42.9042L32.8067 37.7767L46.3925 42.7234V35.3792L52.2725 34.3176V21.0584L56 16.6776L52.2375 13.5451V0.262573L3.70417 8.84924Z" fill="white"/>
</svg>
