<svg width="70" height="21" viewBox="0 0 70 21" fill="none" xmlns="http://www.w3.org/2000/svg">
<path d="M15.5867 11.9004C15.5101 11.8689 15.4313 11.8432 15.351 11.8236C15.2255 11.7875 15.0912 11.7604 14.9502 11.7333C14.8092 11.7061 14.6771 11.679 14.5516 11.6429C14.426 11.6068 14.3534 11.5774 14.3313 11.5413L14.1816 11.6203C13.8262 11.7763 13.5044 12.0028 13.2345 12.2866C12.9497 12.5786 12.7011 12.9056 12.4945 13.2601C12.286 13.6203 12.126 14.0078 12.0188 14.4121C11.9128 14.8135 11.8581 15.2273 11.8559 15.6431C11.8453 16.0501 11.9126 16.4553 12.0541 16.8357C12.1755 17.1505 12.3575 17.4371 12.5892 17.6782C12.8054 17.902 13.065 18.0767 13.3513 18.1909C13.6226 18.2985 13.9105 18.3552 14.2014 18.3581C14.5712 18.3624 14.9375 18.2838 15.2745 18.1278C15.6116 17.9717 15.9113 17.7419 16.1527 17.4546C16.6857 16.8523 16.9522 16.0452 16.9522 15.0332C16.9539 14.4631 16.8692 13.8962 16.7011 13.3528C16.49 12.7566 16.0948 12.2474 15.5757 11.9027L15.5867 11.9004ZM17.6812 18.078C17.2507 18.5706 16.7467 18.9899 16.1879 19.3203C15.6459 19.6474 15.0285 19.8197 14.3996 19.8195C13.7912 19.8333 13.188 19.7018 12.6377 19.4355C12.1594 19.1967 11.736 18.8564 11.3956 18.4371C11.0707 18.0265 10.8241 17.5568 10.6688 17.0525C10.5104 16.5559 10.4294 16.0368 10.4287 15.5143C10.4387 14.9845 10.5195 14.4586 10.6688 13.9513C10.8283 13.3703 11.0561 12.8113 11.3471 12.2866C11.623 11.7795 11.9855 11.3273 12.4175 10.9517C12.8053 10.6024 13.3042 10.4104 13.8204 10.4119C13.9653 10.405 14.1087 10.4449 14.2304 10.5259C14.3521 10.6069 14.4459 10.7251 14.4987 10.8636C14.6298 10.7691 14.7728 10.6931 14.9238 10.6378C15.0764 10.5809 15.2371 10.5503 15.3995 10.5474C15.689 10.5458 15.9772 10.5892 16.254 10.6762C16.4453 10.724 16.6246 10.8125 16.7804 10.9359C17.3837 11.3763 17.8441 11.9925 18.1018 12.7045C18.3765 13.5267 18.5055 14.3926 18.4828 15.2614C18.483 15.7741 18.4246 16.285 18.3088 16.7838C18.2043 17.2603 17.9898 17.7041 17.6834 18.078H17.6812Z" fill="white"/>
<path d="M22.7066 14.6944L22.8057 14.8728C23.0256 15.2754 23.3126 15.6355 23.6536 15.9367C24.0192 16.2687 24.4134 16.6143 24.8274 16.9486C24.9948 17.0999 25.2041 17.2761 25.4639 17.4748C25.7249 17.6752 25.9756 17.8893 26.2149 18.1163C26.4366 18.3248 26.6414 18.5514 26.8272 18.7939C26.978 18.9724 27.0664 19.1973 27.0783 19.4332C27.0709 19.6345 26.9927 19.8263 26.858 19.973C26.7897 20.0575 26.7033 20.1247 26.6055 20.1693C26.5077 20.214 26.4012 20.2349 26.2942 20.2305C26.1601 20.2287 26.0289 20.1898 25.9145 20.1178C25.8001 20.0459 25.7068 19.9435 25.6445 19.8217C25.4237 19.4704 25.1586 19.1507 24.8561 18.8707C24.5323 18.5635 24.1954 18.2541 23.8298 17.9379C23.4642 17.6217 23.1074 17.3009 22.7286 16.9779C22.3645 16.6639 22.025 16.321 21.7133 15.9525V17.7278C21.7133 17.9537 21.7133 18.236 21.7419 18.5364C21.7585 18.8138 21.749 19.0922 21.7133 19.3677C21.6901 19.5998 21.6148 19.8233 21.493 20.0204C21.4301 20.1112 21.3453 20.1837 21.2468 20.2309C21.1484 20.278 21.0397 20.2981 20.9314 20.2892C20.8303 20.2931 20.7296 20.275 20.6358 20.2361C20.5421 20.1971 20.4574 20.1383 20.3874 20.0633C20.3154 19.9898 20.2588 19.902 20.2209 19.8054C20.1831 19.7087 20.1648 19.6051 20.1672 19.5009V14.9383C20.1672 13.5048 20.1885 12.0833 20.2311 10.6738C20.2737 9.26439 20.3713 7.84215 20.524 6.40711C20.524 6.30666 20.5435 6.20722 20.5813 6.11455C20.6191 6.02188 20.6745 5.93783 20.7442 5.86728C20.8148 5.79314 20.8995 5.73478 20.9932 5.69591C21.0868 5.65703 21.1873 5.63848 21.2882 5.64141C21.4307 5.62061 21.5758 5.65293 21.697 5.73252C21.8183 5.8121 21.9077 5.93365 21.9489 6.07508C22.0339 6.37446 22.0762 6.68485 22.0745 6.99664C22.0749 7.07214 22.0705 7.1476 22.0613 7.22251C22.0613 7.29479 22.0392 7.36707 22.0238 7.44838C21.8917 8.47384 21.8043 9.48575 21.7617 10.4841C21.7192 11.4825 21.6986 12.4944 21.7001 13.5198C21.9588 13.2206 22.255 12.9578 22.581 12.7383C22.9246 12.5124 23.2704 12.2866 23.6316 12.0471C23.9927 11.8077 24.3451 11.5751 24.6953 11.3176C25.047 11.0597 25.3588 10.7491 25.6203 10.396C25.6946 10.2989 25.7896 10.2205 25.898 10.1669C26.0065 10.1132 26.1254 10.0858 26.2458 10.0866C26.3512 10.0831 26.456 10.1028 26.5533 10.1445C26.6506 10.1862 26.738 10.2489 26.8096 10.3283C26.9448 10.4682 27.0234 10.6554 27.0298 10.8523C27.0317 10.9359 27.0171 11.019 26.9868 11.0966C26.9566 11.1743 26.9112 11.2448 26.8536 11.304C26.5884 11.6977 26.2538 12.0371 25.867 12.3046C25.4749 12.5779 25.0785 12.8354 24.6799 13.0726C24.2813 13.3098 23.9024 13.5582 23.5435 13.8044C23.2106 14.0293 22.9259 14.3214 22.7066 14.6627V14.6898V14.6944Z" fill="white"/>
<path d="M35.996 18.1503C35.7104 18.7343 35.2463 19.2063 34.6745 19.4942C34.1105 19.7917 33.4852 19.9466 32.851 19.946C32.4655 19.946 32.0779 19.9347 31.6771 19.9076C31.2848 19.8846 30.8959 19.8203 30.5164 19.7156C30.1434 19.6154 29.7855 19.4634 29.4527 19.2639C29.1098 19.0567 28.8103 18.7819 28.5717 18.4552C28.2015 17.9895 27.9145 17.4604 27.7238 16.8922C27.5366 16.3317 27.4413 15.7432 27.4419 15.1507C27.4433 13.9453 27.858 12.7787 28.6136 11.8553C28.998 11.3975 29.4674 11.0228 29.9945 10.753C30.5563 10.4684 31.176 10.3244 31.8026 10.3329C32.1223 10.3333 32.4409 10.3719 32.7518 10.4481C33.0591 10.5238 33.3553 10.6408 33.6328 10.7959C33.9073 10.9503 34.1521 11.1546 34.3552 11.399C34.5668 11.6529 34.7324 11.9435 34.8441 12.2573L34.9696 12.6164C35.0011 12.6794 35.0177 12.749 35.0181 12.8197C35.0127 12.897 34.9964 12.9731 34.9696 13.0456L34.919 13.3031C34.8053 13.4569 34.7297 13.6367 34.6987 13.8271C34.6703 14.0182 34.5945 14.1987 34.4785 14.3511L34.2274 14.7103C34.1862 14.7883 34.1263 14.8543 34.0535 14.9023C33.983 14.9469 33.9094 14.9862 33.8332 15.0197L33.3575 15.1711L32.1968 15.4286C31.8059 15.5143 31.4073 15.5574 31.0076 15.5573C30.8402 15.5573 30.6662 15.5573 30.4834 15.5347C30.3065 15.5198 30.1328 15.478 29.968 15.4105C29.8195 15.3502 29.6867 15.255 29.5804 15.1327C29.4787 15.0057 29.4255 14.8451 29.4307 14.6809C29.4264 14.5758 29.4438 14.471 29.4818 14.3733C29.5197 14.2757 29.5774 14.1873 29.6509 14.114C29.7823 13.9745 29.9618 13.8934 30.1508 13.8881C30.2933 13.8886 30.4352 13.906 30.5737 13.9401C30.7183 13.9728 30.866 13.9894 31.0142 13.9897C31.3419 13.9902 31.6688 13.9561 31.9898 13.8881C32.3048 13.8181 32.6131 13.7526 32.9148 13.6826L33.0624 13.6306L33.2386 13.267C33.2723 13.2138 33.3017 13.1579 33.3267 13.0998C33.3499 13.0413 33.3787 12.9854 33.4126 12.9327L33.3134 12.7068C33.1475 12.4441 32.9144 12.2331 32.6395 12.0969C32.3746 11.9681 32.0848 11.9017 31.7916 11.9027C31.4316 11.9055 31.077 11.992 30.7543 12.1557C30.4104 12.3285 30.1017 12.5669 29.8447 12.8581C29.5739 13.1577 29.3509 13.4992 29.184 13.87C29.0177 14.2405 28.932 14.6436 28.9329 15.0513C28.9365 15.4312 28.9786 15.8097 29.0584 16.1807C29.1391 16.5778 29.3012 16.9528 29.5342 17.2807C29.7837 17.627 30.1087 17.9086 30.4834 18.1029C30.9651 18.3337 31.4937 18.443 32.0251 18.4214C32.5575 18.422 33.0859 18.3272 33.5865 18.1413C34.0744 17.9687 34.4927 17.6351 34.7758 17.1926C34.8254 17.0882 34.9038 17.001 35.0013 16.942C35.0988 16.8829 35.2111 16.8546 35.3242 16.8606C35.5381 16.8669 35.7424 16.9528 35.899 17.1023C35.984 17.1714 36.0526 17.2593 36.0999 17.3594C36.1472 17.4595 36.1719 17.5693 36.1721 17.6805C36.167 17.852 36.0957 18.0145 35.9739 18.1322L35.996 18.1503Z" fill="white"/>
<path d="M40.0176 19.894C40.0264 19.9843 40.0165 20.0755 39.9884 20.1615C39.9603 20.2476 39.9147 20.3265 39.8547 20.3932C39.7333 20.5358 39.5675 20.6307 39.3855 20.662L39.2072 20.6913C39.1582 20.7079 39.1067 20.7156 39.0552 20.7139C38.9122 20.7222 38.7704 20.6827 38.6513 20.6012C38.5321 20.5197 38.442 20.4007 38.3945 20.2622L38.2689 19.7494C38.2689 19.6634 38.2645 19.5775 38.2557 19.492C38.2557 19.4061 38.2557 19.3203 38.2557 19.2345C38.2557 19.0145 38.2816 18.7953 38.3328 18.5817C38.3813 18.3558 38.4231 18.1593 38.4583 17.9538C38.3747 16.6708 38.241 15.3909 38.0575 14.1139C37.874 12.837 37.7323 11.5571 37.6324 10.2741C37.6291 10.0586 37.694 9.84776 37.8174 9.67329C37.8854 9.58117 37.9749 9.50806 38.0777 9.46069C38.1804 9.41333 38.2932 9.39323 38.4055 9.40225C38.5218 9.40302 38.6353 9.43874 38.7319 9.50498C38.8286 9.57122 38.9043 9.66507 38.9495 9.77494C39.088 10.0583 39.1781 10.3639 39.216 10.6784C39.2666 11.0376 39.3041 11.4125 39.3305 11.8078C39.3569 12.2031 39.3833 12.5509 39.4186 12.8603C39.8884 11.8915 40.5919 11.0618 41.4624 10.4503C41.9046 10.1414 42.3835 9.89172 42.8873 9.70718C43.3812 9.52159 43.903 9.42604 44.429 9.42484C44.6182 9.4286 44.7997 9.50241 44.94 9.63264C45.0172 9.69783 45.0787 9.7805 45.1196 9.87416C45.1605 9.96783 45.1797 10.0699 45.1756 10.1725C45.177 10.3601 45.1112 10.5418 44.9906 10.6829C44.9308 10.7581 44.8565 10.8197 44.7723 10.864C44.6882 10.9083 44.5961 10.9343 44.5017 10.9404C43.6215 11.0042 42.7808 11.3397 42.0901 11.9027C41.3887 12.4662 40.8491 13.2139 40.5286 14.0665C40.4603 14.7148 40.3766 15.3562 40.2665 15.9887C40.1564 16.6211 40.0617 17.2626 39.9802 17.9108V19.2435C39.9802 19.3465 39.9891 19.4493 40.0066 19.5507L40.033 19.9098L40.0176 19.894Z" fill="white"/>
<path d="M50.3375 10.85C50.4628 10.745 50.5961 10.6506 50.7362 10.5677C50.8536 10.5005 50.9749 10.4409 51.0996 10.3893C51.2139 10.3394 51.3365 10.3126 51.4607 10.3102C51.5192 10.3036 51.5783 10.3119 51.6329 10.3343C51.6874 10.3568 51.7357 10.3927 51.7735 10.4389C51.8303 10.5216 51.861 10.6201 51.8616 10.7213C51.8455 11.0876 51.7141 11.4386 51.4872 11.7219C51.2361 12.0607 50.8969 12.5576 50.4631 13.2059C50.2979 13.4465 50.1049 13.6657 49.8882 13.8586C49.6372 14.0845 49.3971 14.2991 49.1637 14.4866C48.9302 14.674 48.7232 14.8276 48.5514 14.9383C48.3796 15.049 48.2871 15.11 48.2871 15.0919C48.3862 15.2116 48.4677 15.3065 48.525 15.372C48.5822 15.4375 48.6351 15.512 48.6879 15.5979C48.7408 15.6837 48.7716 15.7311 48.7871 15.765C48.8313 15.8493 48.8806 15.9308 48.9346 16.009C49.0183 16.1377 49.1218 16.2823 49.2473 16.4449C49.3729 16.6075 49.5028 16.7701 49.6372 16.9328C49.7715 17.0954 49.8948 17.2377 50.0094 17.3551C50.1239 17.4726 50.2715 17.6059 50.4961 17.7933C50.7207 17.9808 50.9476 18.1751 51.1722 18.3829C51.379 18.5718 51.5746 18.7732 51.7581 18.9859C51.8865 19.1053 51.9744 19.2636 52.0091 19.4377C52.0091 19.5393 51.888 19.6184 51.6479 19.6636C51.4462 19.711 51.2404 19.7375 51.0335 19.7426C50.8686 19.7579 50.703 19.7225 50.5578 19.641C50.4895 19.5913 50.2957 19.4151 49.9719 19.1418C49.6482 18.8685 49.2848 18.5432 48.8862 18.1909C48.4875 17.8385 48.0933 17.5133 47.7123 17.1925C47.3313 16.8718 47.0516 16.6572 46.8908 16.5398C46.7794 16.4265 46.6929 16.2901 46.637 16.1397C46.5812 15.9893 46.5573 15.8285 46.5671 15.6679C46.5646 15.3715 46.6107 15.0767 46.7036 14.796C46.7501 14.622 46.8245 14.4571 46.9238 14.3081L47.1132 14.1139L47.5251 13.7051C47.6925 13.5447 47.8753 13.3527 48.0735 13.1426C48.2717 12.9326 48.4809 12.7203 48.699 12.5125C49.1835 12.0185 49.7333 11.4644 50.3485 10.85H50.3375Z" fill="white"/>
<path d="M65.6133 19.5732C65.5002 19.6365 65.3832 19.6923 65.2632 19.7403C65.1488 19.79 65.0262 19.8168 64.902 19.8194C64.8449 19.826 64.7871 19.8192 64.733 19.7997C64.6788 19.7801 64.6297 19.7482 64.5892 19.7065C64.532 19.6283 64.5011 19.5332 64.5011 19.4354C64.5146 19.0558 64.6406 18.6894 64.8623 18.3851C65.1024 18.026 65.4416 17.5494 65.8754 16.9508C66.0531 16.7171 66.2538 16.5029 66.4745 16.3116C66.7255 16.0857 66.9656 15.8847 67.1969 15.6972C67.4281 15.5098 67.7232 15.2884 68.0778 15.0196C68.0778 15.0354 68.036 15.0061 67.9523 14.9202C67.8686 14.8344 67.8113 14.7305 67.732 14.6108C67.6785 14.5386 67.6292 14.4632 67.5845 14.3849C67.5399 14.301 67.4899 14.2202 67.4347 14.1432C67.3385 13.9963 67.2341 13.8553 67.122 13.7209L66.7145 13.2375C66.5963 13.0893 66.4659 12.9517 66.3247 12.8264C66.2256 12.7248 66.0626 12.5757 65.838 12.3747C65.6133 12.1736 65.3975 11.9726 65.1773 11.7625C64.957 11.5525 64.7654 11.3447 64.5914 11.1482C64.457 11.0317 64.3641 10.8729 64.3271 10.6964C64.3271 10.6106 64.4527 10.5451 64.7015 10.4886C64.9073 10.4433 65.1167 10.4176 65.327 10.4118C65.4808 10.3937 65.6361 10.4295 65.7675 10.5135C65.8314 10.5632 66.0296 10.7393 66.3533 11.0127C66.6771 11.286 67.0427 11.6067 67.4545 11.9478C67.8664 12.2888 68.2584 12.6254 68.6416 12.9461L69.4653 13.6373C69.5897 13.712 69.6829 13.831 69.7274 13.9716C69.77 14.1181 69.7908 14.2704 69.7891 14.4233C69.788 14.7321 69.7328 15.0381 69.6261 15.3268C69.5716 15.5013 69.4977 15.6688 69.4058 15.826C69.3207 15.9421 69.2248 16.0495 69.1195 16.1467L68.4985 16.8243C68.2474 17.0818 67.9736 17.3551 67.677 17.6443C67.3804 17.9334 67.1058 18.2029 66.8533 18.4529C66.6022 18.6991 66.3203 18.9882 66.0032 19.3112C65.8828 19.4141 65.753 19.5049 65.6155 19.5822L65.6133 19.5732Z" fill="white"/>
<path d="M5.99937 19.3089C6.18415 19.2242 6.33825 19.0819 6.43984 18.9024L7.06973 17.5833C7.30851 16.6841 7.48369 15.7685 7.59389 14.8434C7.69379 13.9942 7.74527 13.1397 7.74806 12.2843C7.74806 11.5706 7.71943 10.8545 7.67098 10.1521C7.62252 9.44962 7.56746 8.7449 7.508 8.03792C7.44853 7.33094 7.39568 6.62396 7.34282 5.88536C7.28996 5.14676 7.26794 4.3946 7.26794 3.59728V3.41658H9.31615C9.41412 3.41665 9.51112 3.39672 9.60149 3.35794C9.69186 3.31916 9.7738 3.26231 9.84252 3.1907C9.91355 3.12308 9.96988 3.04085 10.0078 2.94939C10.0458 2.85793 10.0645 2.75929 10.0628 2.6599C10.0629 2.55909 10.0435 2.45926 10.0057 2.3662C9.96786 2.27314 9.91241 2.18871 9.84252 2.11781C9.77383 2.04492 9.69128 1.98727 9.59998 1.94842C9.50868 1.90957 9.41058 1.89034 9.31175 1.89194H2.44913C2.35373 1.89104 2.25911 1.90964 2.1708 1.94666C2.08249 1.98369 2.00227 2.03839 1.93481 2.10758C1.86735 2.17677 1.81401 2.25904 1.77791 2.34961C1.7418 2.44018 1.72366 2.53722 1.72455 2.63506C1.72423 2.73557 1.74355 2.83512 1.78138 2.92784C1.8192 3.02056 1.87477 3.10457 1.94478 3.1749C2.01037 3.2482 2.09048 3.30628 2.17975 3.34523C2.26901 3.38419 2.36536 3.40313 2.46234 3.40077H3.00633C3.38734 3.43465 3.77937 3.45498 4.17139 3.46627C4.56342 3.47756 4.94883 3.49789 5.32984 3.52951L5.80996 3.57243V3.60179C5.80996 4.42397 5.83199 5.21678 5.87163 5.96667C5.91127 6.71657 5.95532 7.45065 5.99716 8.16892C6.03901 8.8872 6.08086 9.59644 6.1227 10.2944C6.16455 10.9923 6.18217 11.7061 6.18217 12.4153C6.18217 12.9619 6.18217 13.5221 6.14473 14.0755C6.10729 14.6289 6.06544 15.2207 5.98615 15.8305L5.26157 17.8634L4.86074 17.7775C4.5521 17.6052 4.29367 17.3519 4.11193 17.0434C3.90647 16.7132 3.73662 16.361 3.60538 15.9931C3.4818 15.6613 3.37882 15.3218 3.29705 14.9767C3.21996 14.656 3.17371 14.4459 3.1583 14.3285C3.09443 13.958 3.03276 13.5582 2.98431 13.1404C2.93586 12.7225 2.84336 12.1646 2.70901 11.4328C2.69768 11.3439 2.66926 11.2582 2.62541 11.1806C2.58156 11.1031 2.52314 11.0353 2.45353 10.981C2.32492 10.8871 2.17096 10.8366 2.01306 10.8365C1.82899 10.8375 1.6506 10.902 1.50651 11.0194C1.42566 11.0865 1.36138 11.1722 1.3189 11.2695C1.27642 11.3668 1.25694 11.4731 1.26205 11.5796V11.7242C1.39419 12.4356 1.48228 13.0207 1.54836 13.4747C1.61443 13.9287 1.67609 14.3556 1.76859 14.7508C1.81925 14.9541 1.89193 15.2703 1.98883 15.6837C2.094 16.1445 2.24606 16.5926 2.44252 17.0208C2.66207 17.5018 2.94842 17.9477 3.29264 18.3445C3.66085 18.7793 4.13069 19.1112 4.65812 19.3089L5.22633 19.4332C5.30672 19.4551 5.38991 19.4642 5.473 19.4603C5.65418 19.4524 5.83121 19.4022 5.99056 19.3135L5.99937 19.3089ZM9.43508 0.81453C9.43508 0.81453 11.1177 0.90488 11.1529 2.68249C11.1882 4.46011 9.43508 4.51431 9.43508 4.51431H8.38675C8.38675 4.51431 8.60699 8.29993 8.7149 9.26892C8.82282 10.2379 8.90651 13.2849 8.803 13.7977C8.803 13.7977 8.59597 17.1857 7.7899 18.7104C6.98383 20.235 6.62044 20.5173 5.4708 20.5783C4.32115 20.6393 2.63633 19.7697 1.85449 18.2925C1.09246 16.8605 1.00657 16.8605 0.33044 13.0071C-0.0880129 10.6016 0.574903 10.1634 1.48449 9.81328C1.48449 9.81328 3.46663 9.07467 3.82121 11.5028C4.1758 13.9309 4.38723 15.3426 4.74621 15.9615C4.74621 15.9615 5.18669 15.8712 5.1074 12.0517C5.02812 8.23217 4.7308 4.59789 4.7308 4.59789L2.27294 4.52787C2.27294 4.52787 0.693832 4.45785 0.625558 2.57407C0.557284 0.690302 2.58348 0.812272 2.58348 0.812272L9.43508 0.81453Z" fill="white"/>
<path d="M57.612 17.4162C57.612 17.4162 56.8082 17.6737 56.8126 18.0803C56.817 18.4869 56.7068 19.5417 57.1627 19.5688C57.6186 19.5959 58.3014 19.5259 58.3124 18.7127C58.3234 17.8996 58.1912 17.3146 57.612 17.4162ZM59.2704 18.4914C59.3189 19.4288 59.3871 19.9799 57.9314 20.4136C56.4756 20.8472 56.2069 20.0499 56.2069 20.0499C56.2069 20.0499 55.4295 18.4688 56.088 17.4162C56.7465 16.3637 57.5944 16.4472 57.5944 16.4472C58.744 16.436 59.2154 17.5563 59.266 18.4959L59.2704 18.4914Z" fill="white"/>
<path d="M57.1562 14.7328C57.1562 14.7328 57.654 14.9903 58.0922 14.1772C58.5305 13.364 59.57 11.4667 59.7154 11.2205C59.8608 10.9743 61.8627 7.96344 62.138 6.75954C62.4133 5.55564 62.6864 3.76674 61.0368 2.36859C59.3872 0.970442 58.4116 1.30925 57.9535 1.37249C57.4954 1.43574 55.8965 2.25565 55.0001 4.37207C55.0001 4.37207 54.3658 5.31848 55.0001 5.60308C55.6344 5.88768 55.9449 5.39302 56.0793 4.87351C56.2136 4.354 57.0505 2.61479 57.9733 2.40473C58.8961 2.19467 59.5304 2.40473 60.0634 2.9423C60.5964 3.47988 61.1646 4.76283 61.0082 5.84476C60.8518 6.92669 59.9841 8.51457 59.5877 9.11087C59.1912 9.70717 57.6672 11.8507 57.306 12.8061C56.9448 13.7616 56.784 13.8271 56.8149 14.1275C56.8457 14.4279 56.8875 14.5928 57.1562 14.7283V14.7328ZM53.9209 4.23203C54.9891 1.61418 56.8964 0.67681 57.3192 0.520958C57.7421 0.365107 59.4819 -0.240231 61.3914 1.438C63.3009 3.11623 63.27 4.19364 63.1819 5.99836C63.0938 7.80307 61.4399 10.1928 61.3386 10.3148C61.2372 10.4367 59.3961 13.7435 58.7353 14.9587C58.0746 16.1739 56.8083 15.7221 56.4691 15.5302C56.1299 15.3382 55.6234 15.0603 55.7775 13.8813C55.9317 12.7022 57.4492 10.3961 58.6825 8.64557C59.9158 6.89506 60.0039 5.80185 59.9665 5.00226C59.929 4.20267 59.189 3.39631 58.6979 3.34436C58.2068 3.29241 58.024 3.45052 57.6165 3.9C57.2091 4.34949 56.7356 5.70698 56.7356 5.70698C55.9097 7.33777 54.2865 6.41847 54.2865 6.41847C53.018 5.63696 53.9143 4.23429 53.9143 4.23429L53.9209 4.23203Z" fill="white"/>
</svg>
