<svg width="137" height="85" viewBox="0 0 137 85" fill="none" xmlns="http://www.w3.org/2000/svg">
<path d="M0.975098 77.7056H9.86897C13.717 77.7056 16.4781 76.8268 18.194 75.1433C19.9098 73.4598 20.8626 70.375 20.8626 66.009C20.8626 61.4811 19.9838 58.5581 18.0876 56.833C16.1913 55.1079 13.7216 54.4696 9.8736 54.4696H0.975098V77.7056ZM16.1173 66.009C15.9185 72.7014 14.7576 73.779 9.38797 73.8992H5.3411V58.2251H9.38797C12.163 58.2251 13.5135 58.4656 14.6373 59.5432C15.7612 60.6209 16.1173 62.5217 16.1173 66.009ZM31.8423 60.2C26.5976 60.2 23.9105 62.605 23.9105 69.1355C23.9105 72.4608 24.632 74.7826 26.0333 76.147C27.4347 77.5113 29.5206 78.1866 32.1661 78.1866C34.1791 78.1949 36.1806 77.8827 38.0953 77.2616L37.4155 73.9778C35.8716 74.4579 34.2639 74.7012 32.6471 74.6993C31.0838 74.6993 29.923 74.3756 29.2801 73.816C28.6372 73.2563 28.2811 72.0538 28.2395 70.2917H39.3395C39.4597 66.1662 39.0204 63.5994 37.6606 62.1564C36.3008 60.7134 34.6543 60.237 31.81 60.237L31.8423 60.2ZM32.0042 63.4837C33.2376 63.4837 34.0793 63.7242 34.5295 64.2052C34.992 64.6677 35.251 65.6482 35.288 67.1328H28.3366C28.6187 64.3255 29.4605 63.4837 32.0643 63.4837H32.0042ZM48.83 73.5431C47.5072 68.8102 46.1059 64.5367 44.6259 60.7226H40.2968C42.5174 66.2741 44.4304 71.9437 46.0272 77.7056H51.1563C53.677 71.5358 55.7212 65.8887 57.2845 60.7226H53.0757C51.915 65.0713 50.5115 69.3515 48.8716 73.5431H48.83ZM69.9061 78.1681C77.3061 78.1681 80.9598 75.444 80.9598 65.8286C80.9598 61.1435 80.0811 58.0586 78.1849 56.2965C76.2886 54.5344 73.7772 53.8499 69.8922 53.8499C66.0072 53.8499 63.5606 54.5344 61.5672 56.2965C59.6432 58.0586 58.7922 61.1851 58.7922 65.8286C58.7922 70.597 59.6756 73.7605 61.5672 75.6058C63.4588 77.4512 66.0118 78.1311 69.8922 78.1311L69.9061 78.1681ZM63.5328 65.9118C63.5328 62.3044 63.7733 60.422 64.814 59.2611C65.8546 58.1002 67.219 57.8181 69.9431 57.8181C72.6672 57.8181 73.99 58.0586 75.0306 59.2611C76.0712 60.4636 76.3533 62.3044 76.3533 65.9118C76.3533 72.9603 75.0306 74.2045 69.9847 74.2045C64.9389 74.2045 63.6161 72.9603 63.6161 65.9118H63.5328ZM92.2078 78.1681C95.0522 78.1681 97.1381 77.4882 98.4192 76.2071C99.7003 74.926 100.343 72.4793 100.343 69.117C100.343 65.7546 99.7003 63.4652 98.4192 62.1795C97.1381 60.8937 95.0522 60.2185 92.2078 60.2185C89.3635 60.2185 87.3608 60.8984 86.0797 62.1795C84.7986 63.4606 84.1557 65.787 84.1557 69.117C84.1557 72.447 84.7986 74.8427 86.0797 76.2071C87.3608 77.5715 89.4051 78.1681 92.2495 78.1681H92.2078ZM92.2078 63.5485C95.3343 63.6271 95.9772 64.27 96.0975 69.1956C96.0975 71.5081 95.8153 73.002 95.2927 73.7235C94.7701 74.445 93.7295 74.8427 92.2078 74.8427C90.6862 74.8427 89.6872 74.482 89.1646 73.7235C88.642 72.965 88.4015 71.4804 88.4015 69.1956C88.4015 66.8322 88.6836 65.3106 89.1646 64.6307C89.6456 63.9509 90.7001 63.567 92.2356 63.567L92.2078 63.5485ZM112.239 78.1681C114.685 78.1681 116.526 77.4882 117.789 76.1655C119.051 74.8427 119.671 72.4655 119.671 69.1956C119.671 65.8286 119.028 63.4652 117.747 62.1841C116.466 60.903 114.422 60.2231 111.499 60.2231C108.955 60.1606 106.424 60.5958 104.048 61.5042V84.139H108.173V77.2015C109.442 77.8447 110.844 78.1821 112.266 78.1866L112.239 78.1681ZM111.513 63.8075C113.034 63.8075 114.033 64.1682 114.597 64.8851C115.162 65.602 115.439 67.0496 115.439 69.3343C115.439 71.4156 115.157 72.8216 114.597 73.5801C114.038 74.3386 113.034 74.704 111.55 74.704C109.667 74.704 108.224 74.0195 108.224 73.0621V64.3255C109.294 63.9606 110.419 63.7853 111.55 63.8075H111.513ZM135.563 61.162C133.718 60.5359 131.781 60.2232 129.832 60.237C125.147 60.237 122.543 61.7586 122.543 65.8841C122.543 69.2095 124.305 70.412 128.274 70.7311C131.118 71.0132 131.918 71.5312 131.918 72.7753C131.918 74.4958 130.993 74.8566 128.593 74.8566C126.875 74.8736 125.167 74.6048 123.538 74.0611L122.659 77.3448C124.621 77.9941 126.679 78.3068 128.745 78.2698C131.113 78.2698 132.908 77.8073 134.157 76.9841C135.405 76.1608 136.039 74.6716 136.039 72.5811C136.039 69.2557 134.355 67.8913 130.11 67.452C127.335 67.1699 126.585 66.7721 126.585 65.602C126.585 63.9601 127.386 63.641 129.67 63.641C131.344 63.6504 133.006 63.9204 134.596 64.4411L135.521 61.2036L135.563 61.162Z" fill="black"/>
<path d="M98.8491 27.2375C96.7077 27.2412 94.6153 27.8793 92.8362 29.0712C91.0571 30.2631 89.671 31.9554 88.853 33.9345C88.035 35.9136 87.8217 38.0906 88.24 40.1908C88.6584 42.291 89.6896 44.2202 91.2035 45.7348C92.7174 47.2493 94.6462 48.2814 96.7462 48.7006C98.8462 49.1198 101.023 48.9075 103.003 48.0903C104.982 47.2731 106.675 45.8878 107.868 44.1092C109.06 42.3306 109.699 40.2385 109.704 38.0971C109.702 35.2185 108.557 32.4584 106.522 30.4226C104.487 28.3867 101.728 27.2412 98.8491 27.2375ZM98.8491 44.8126C97.5097 44.8135 96.2002 44.4171 95.0861 43.6737C93.972 42.9302 93.1034 41.8731 92.5902 40.6359C92.077 39.3988 91.9423 38.0372 92.203 36.7234C92.4638 35.4097 93.1083 34.2028 94.055 33.2554C95.0018 32.308 96.2083 31.6626 97.5218 31.401C98.8354 31.1394 100.197 31.2732 101.435 31.7855C102.672 32.2979 103.73 33.1657 104.474 34.2793C105.218 35.3929 105.615 36.7022 105.615 38.0416C105.611 39.835 104.896 41.5537 103.629 42.8224C102.361 44.091 100.643 44.8065 98.8491 44.8126Z" fill="#503B7F"/>
<path d="M42.1975 27.2375C40.0563 27.2421 37.9644 27.881 36.1859 29.0734C34.4074 30.2659 33.022 31.9586 32.2047 33.9377C31.3874 35.9168 31.1748 38.0937 31.5936 40.1936C32.0125 42.2935 33.0441 44.2223 34.5582 45.7364C36.0723 47.2505 38.001 48.2821 40.1009 48.7009C42.2008 49.1198 44.3777 48.9071 46.3569 48.0898C48.336 47.2725 50.0286 45.8872 51.2211 44.1087C52.4136 42.3302 53.0524 40.2383 53.057 38.097C53.0558 35.2173 51.9113 32.4559 49.875 30.4196C47.8387 28.3833 45.0773 27.2388 42.1975 27.2375ZM42.1975 44.8125C40.8583 44.8125 39.5492 44.4154 38.4357 43.6714C37.3223 42.9274 36.4544 41.8699 35.9419 40.6327C35.4294 39.3955 35.2953 38.034 35.5566 36.7206C35.8179 35.4071 36.4627 34.2007 37.4097 33.2537C38.3566 32.3068 39.5631 31.6619 40.8766 31.4006C42.19 31.1394 43.5514 31.2735 44.7887 31.786C46.0259 32.2984 47.0834 33.1663 47.8274 34.2798C48.5714 35.3933 48.9685 36.7024 48.9685 38.0415C48.9624 39.8354 48.2471 41.5541 46.9786 42.8226C45.7101 44.0911 43.9914 44.8064 42.1975 44.8125Z" fill="#503B7F"/>
<path d="M47.6876 27.0664L47.4888 23.5051H93.3595L93.5168 27.0664H47.6876Z" fill="#503B7F"/>
<path d="M89.7148 20.9384L92.1985 18.2559L96.7633 29.6704L93.3177 30.7526L89.7148 20.9384Z" fill="#503B7F"/>
<path d="M51.2952 20.9384L48.8116 18.2559L44.2837 29.6704L47.6877 30.7526L51.2952 20.9384Z" fill="#503B7F"/>
<path d="M92.8785 16.6001C89.5532 20.0041 84.9837 18.1587 83.8644 14.3939C83.425 13.1914 83.7442 11.9519 83.6655 10.9483C84.1184 10.9956 84.5756 10.9832 85.0253 10.9113C86.0187 10.7459 86.9407 10.2894 87.6744 9.59955C88.4081 8.90973 88.9206 8.01767 89.147 7.03635C89.3733 6.05502 89.3033 5.0286 88.9459 4.08709C88.5884 3.14558 87.9595 2.33135 87.1389 1.74752C86.3183 1.1637 85.3429 0.836558 84.3363 0.807534C83.3296 0.77851 82.337 1.04891 81.4841 1.58448C80.6312 2.12006 79.9565 2.89671 79.5454 3.81606C79.1343 4.7354 79.0052 5.75609 79.1747 6.74882C79.346 7.7217 79.7921 8.62524 80.4604 9.3527C76.5708 11.9566 68.6389 21.6506 73.0882 26.0582C76.4922 29.4252 85.6682 33.8698 79.2163 41.8433C78.578 42.6434 81.2605 43.3649 82.0607 42.4816C83.927 40.4005 85.0778 37.7763 85.3444 34.9937C85.8069 31.4648 82.8608 27.9406 80.9784 25.3367C79.7759 23.6948 81.3392 18.0847 82.944 19.3658C85.5849 21.9697 89.5115 22.6912 91.9952 19.3658C92.7167 19.0467 93.637 16.0034 92.8785 16.5631V16.6001Z" fill="#503B7F"/>
<path d="M48.15 16.6001C51.4754 20.0041 56.0403 18.1587 57.1641 14.3939C57.6035 13.1914 57.2844 11.9519 57.363 10.9483C56.9101 10.9956 56.4529 10.9831 56.0033 10.9113C54.8857 10.7262 53.8619 10.1734 53.094 9.34055C52.3262 8.50767 51.8583 7.44236 51.7645 6.31345C51.6707 5.18455 51.9564 4.05663 52.5762 3.10845C53.1961 2.16028 54.1146 1.44609 55.1863 1.07909C56.258 0.712083 57.4215 0.713256 58.4925 1.08242C59.5635 1.45157 60.4806 2.1676 61.0985 3.11702C61.7164 4.06644 61.9998 5.19493 61.9037 6.32365C61.8077 7.45236 61.3376 8.51674 60.5681 9.34806C64.4531 11.9519 72.3896 21.6459 67.9404 26.0536C64.5364 29.4206 55.3604 33.8652 61.8123 41.8387C62.4505 42.6388 59.768 43.3603 58.9679 42.4769C57.1001 40.3963 55.9477 37.7722 55.6795 34.9891C55.2401 31.4602 58.1678 27.9359 60.0501 25.3321C61.248 23.6902 59.6894 18.0801 58.0845 19.3612C55.439 21.9651 51.517 22.6866 49.0334 19.3612C48.3119 19.0421 47.3869 15.9988 48.15 16.5584V16.6001Z" fill="#503B7F"/>
<path d="M84.3036 41.6907H78.7767C78.3373 41.6907 77.9766 42.1532 77.9766 42.7729C77.9766 43.3742 78.3373 43.8552 78.7767 43.8552H84.3036C84.7661 43.8552 85.1037 43.3927 85.1037 42.7729C85.1037 42.1717 84.7429 41.6907 84.3036 41.6907Z" fill="#503B7F"/>
<path d="M62.3902 41.6907H56.8633C56.4008 41.6907 56.0586 42.1532 56.0586 42.7729C56.0586 43.3742 56.4193 43.8552 56.8633 43.8552H62.3902C62.8527 43.8552 63.1903 43.3927 63.1903 42.7729C63.1903 42.1717 62.8296 41.6907 62.3902 41.6907Z" fill="#503B7F"/>
<path d="M77.0933 34.041H63.9953C63.7358 34.0702 63.4981 34.1998 63.333 34.4021C63.1679 34.6043 63.0885 34.8632 63.1119 35.1233C63.0898 35.3826 63.1697 35.6403 63.3347 35.8415C63.4997 36.0428 63.7367 36.1717 63.9953 36.2009H77.0933C77.3519 36.1717 77.5889 36.0428 77.7539 35.8415C77.9189 35.6403 77.9988 35.3826 77.9767 35.1233C78.0001 34.8632 77.9207 34.6043 77.7556 34.4021C77.5905 34.1998 77.3528 34.0702 77.0933 34.041Z" fill="#503B7F"/>
<path d="M61.1002 42.2503C62.0622 38.726 62.2194 38.1248 63.1444 34.6005C63.1943 34.4878 63.2663 34.3862 63.356 34.3017C63.4457 34.2172 63.5514 34.1515 63.6669 34.1084C63.7823 34.0653 63.9052 34.0458 64.0284 34.0508C64.1515 34.0559 64.2724 34.0856 64.3839 34.138C64.9436 34.2999 65.3459 34.7809 65.2257 35.1786L63.1814 42.833C63.075 43.0556 62.8862 43.2282 62.6551 43.3145C62.4239 43.4007 62.1682 43.3939 61.9419 43.2955C61.3869 43.1336 60.9892 42.6526 61.1002 42.2503Z" fill="#503B7F"/>
<path d="M80.1366 42.4538C79.1746 38.9249 79.0173 38.3283 78.097 34.7994C77.9896 34.5765 77.8 34.4038 77.5681 34.3176C77.3361 34.2313 77.0798 34.2383 76.8528 34.3369C76.2932 34.4988 75.8908 34.9798 76.0111 35.3822L78.0553 43.0319C78.1052 43.1446 78.1772 43.2462 78.2669 43.3307C78.3566 43.4152 78.4623 43.4809 78.5778 43.524C78.6932 43.5671 78.8161 43.5867 78.9393 43.5816C79.0624 43.5765 79.1833 43.5469 79.2948 43.4944C79.8591 43.3325 80.2568 42.8515 80.1366 42.4538Z" fill="#503B7F"/>
</svg>
