<svg width="163" height="75" viewBox="0 0 163 75" fill="none" xmlns="http://www.w3.org/2000/svg">
<mask id="path-1-inside-1" fill="white">
<path fill-rule="evenodd" clip-rule="evenodd" d="M163 5C163 2.23858 160.761 0 158 0H5C2.23858 0 0 2.23858 0 5V70C0 72.7614 2.23858 75 5 75H158C160.761 75 163 72.7614 163 70V58.2462C163 56.1596 161.656 54.353 159.919 53.196C155.181 50.0395 152 44.1919 152 37.4999C152 30.8079 155.181 24.9604 159.919 21.8038C161.656 20.6469 163 18.8403 163 16.7537V5Z"/>
</mask>
<path fill-rule="evenodd" clip-rule="evenodd" d="M163 5C163 2.23858 160.761 0 158 0H5C2.23858 0 0 2.23858 0 5V70C0 72.7614 2.23858 75 5 75H158C160.761 75 163 72.7614 163 70V58.2462C163 56.1596 161.656 54.353 159.919 53.196C155.181 50.0395 152 44.1919 152 37.4999C152 30.8079 155.181 24.9604 159.919 21.8038C161.656 20.6469 163 18.8403 163 16.7537V5Z" fill="#F8F8F8"/>
<path d="M159.919 21.8038L160.474 22.636L159.919 21.8038ZM5 1H158V-1H5V1ZM1 70V5H-1V70H1ZM158 74H5V76H158V74ZM162 58.2462V70H164V58.2462H162ZM160.474 52.3638C156.034 49.4057 153 43.8816 153 37.4999H151C151 44.5022 154.329 50.6733 159.365 54.0283L160.474 52.3638ZM153 37.4999C153 31.1182 156.034 25.5941 160.474 22.636L159.365 20.9716C154.329 24.3266 151 30.4977 151 37.4999H153ZM162 5V16.7537H164V5H162ZM160.474 22.636C162.378 21.3672 164 19.2885 164 16.7537H162C162 18.3921 160.933 19.9267 159.365 20.9716L160.474 22.636ZM164 58.2462C164 55.7114 162.378 53.6327 160.474 52.3638L159.365 54.0283C160.933 55.0732 162 56.6078 162 58.2462H164ZM158 76C161.314 76 164 73.3137 164 70H162C162 72.2091 160.209 74 158 74V76ZM-1 70C-1 73.3137 1.6863 76 5 76V74C2.79086 74 1 72.2091 1 70H-1ZM158 1C160.209 1 162 2.79086 162 5H164C164 1.68629 161.314 -1 158 -1V1ZM5 -1C1.68629 -1 -1 1.68629 -1 5H1C1 2.79086 2.79086 1 5 1V-1Z" fill="black" mask="url(#path-1-inside-1)"/>
<line x1="115.5" y1="2.18557e-08" x2="115.5" y2="75" stroke="black"/>
<path d="M60.816 48L56.98 42.82L53.116 48H49.252L55.076 40.412L49.504 33.048H53.396L57.064 37.948L60.732 33.048H64.512L58.912 40.356L64.764 48H60.816ZM73.3322 28.4V48H69.6922V31.452H65.5482V28.4H73.3322Z" fill="black"/>
</svg>
