<svg width="96" height="18" viewBox="0 0 96 18" fill="none" xmlns="http://www.w3.org/2000/svg">
<g clip-path="url(#clip0)">
<path fill-rule="evenodd" clip-rule="evenodd" d="M6.95873 13.3867V7.82792H2.72192V13.3867H0.338867V0.603516H2.72192V5.75593H6.95873V0.603516H9.3468V13.3867H6.95873Z" fill="white"/>
<path fill-rule="evenodd" clip-rule="evenodd" d="M12.3872 13.3867V0.603516H20.3842V2.63789H14.7778V5.79355H19.9126V7.79281H14.7778V11.3498H20.5322V13.3867H12.3872Z" fill="white"/>
<path d="M25.3939 0.603516H23.0059V13.3867H25.3939V0.603516Z" fill="white"/>
<path fill-rule="evenodd" clip-rule="evenodd" d="M28.123 4.98578V3.13202C28.123 2.29586 28.3563 1.65119 28.8229 1.19799C29.2894 0.74479 29.9584 0.521533 30.8296 0.528222H34.1885C35.0263 0.528222 35.6785 0.75148 36.1351 1.19799C36.5916 1.6445 36.8249 2.28917 36.8249 3.13453V4.43392H34.4745V3.17968C34.4745 2.75324 34.2412 2.53751 33.7595 2.53751H31.1934C30.7193 2.53751 30.4785 2.75324 30.4785 3.18219V4.63209C30.4652 4.79811 30.5001 4.96443 30.5788 5.11121C30.6841 5.23248 30.8307 5.31027 30.9902 5.32945L35.1718 6.40558C36.3583 6.72416 36.9553 7.4466 36.9553 8.57039V10.8656C36.9553 11.7018 36.7229 12.3465 36.258 12.7997C35.7931 13.2529 35.1242 13.4761 34.2512 13.4694H30.6541C29.7987 13.4694 29.149 13.2462 28.6899 12.7997C28.2309 12.3532 28.0151 11.7085 28.0151 10.8656V9.67161H30.3656V10.828C30.3656 11.257 30.5989 11.4702 31.078 11.4702H33.8649C34.344 11.4702 34.5848 11.257 34.5848 10.828V9.04951C34.5931 8.89484 34.5426 8.74276 34.4436 8.62369C34.3445 8.50462 34.2041 8.42735 34.0505 8.40734L29.7861 7.28856C28.6841 7.00761 28.133 6.24337 28.133 4.99582" fill="white"/>
<path fill-rule="evenodd" clip-rule="evenodd" d="M39.6113 13.3867V0.603516H47.6058V2.63789H41.9919V5.79355H47.1267V7.79281H41.9919V11.3498H47.7463V13.3867H39.6113Z" fill="white"/>
<path fill-rule="evenodd" clip-rule="evenodd" d="M57.0456 13.3867L52.4626 5.13382V13.3867H50.2275V0.603516H52.4225L56.9904 8.83132V0.603516H59.233V13.3867H57.0456Z" fill="white"/>
<path fill-rule="evenodd" clip-rule="evenodd" d="M63.497 15.1827L62.4937 14.9319V4.52673H69.545C70.4129 4.52673 71.0802 4.75751 71.5518 5.21406C72.0233 5.6706 72.2441 6.33033 72.2441 7.18321V8.68829C72.2441 9.70172 71.7942 10.3706 70.8945 10.6951C71.9782 10.9158 72.5209 11.5939 72.5225 12.7294V14.6534C72.5225 15.5189 72.2892 16.1786 71.8327 16.6326C71.3762 17.0867 70.7064 17.3099 69.8259 17.3099H63.5046L63.497 15.1827ZM69.1587 6.54355H64.8717V9.70172H69.1913C69.6478 9.70172 69.8736 9.48849 69.8736 9.06205V7.2108C69.8736 6.76931 69.6328 6.54355 69.1587 6.54355ZM69.4471 11.7085H64.8717V15.2806H69.4296C69.9037 15.2806 70.1445 15.0498 70.1445 14.5857V12.3682C70.1445 11.9292 69.9112 11.7085 69.4471 11.7085Z" fill="white"/>
<path fill-rule="evenodd" clip-rule="evenodd" d="M95.6611 14.6759C95.6611 15.5439 95.4354 16.2086 94.9713 16.6827C94.5072 17.1568 93.8375 17.3801 92.9645 17.3801H89.6032C88.7352 17.3801 88.0663 17.1476 87.5964 16.6827C87.1265 16.2178 86.8932 15.5489 86.8965 14.6759V7.15051C86.8965 6.28257 87.1298 5.61365 87.5964 5.14372C88.063 4.6738 88.7319 4.44135 89.6032 4.44637H92.9695C93.8375 4.44637 94.5064 4.67882 94.9763 5.14372C95.4404 5.60779 95.6661 6.27254 95.6661 7.15051V8.46996H93.3232V7.21572C93.337 7.11886 93.328 7.02013 93.2971 6.9273C93.2662 6.83448 93.2142 6.75009 93.1451 6.68079C93.0761 6.61149 92.9919 6.55917 92.8992 6.52793C92.8064 6.4967 92.7077 6.48742 92.6108 6.50081H90.007C89.5254 6.50081 89.2946 6.73911 89.2946 7.21572V14.6333C89.2946 15.1099 89.5254 15.3482 90.007 15.3482H92.6058C92.7027 15.3616 92.8014 15.3523 92.8941 15.3211C92.9869 15.2898 93.0711 15.2375 93.1401 15.1682C93.2092 15.0989 93.2612 15.0145 93.2921 14.9217C93.323 14.8289 93.3319 14.7302 93.3182 14.6333V12.6917H91.4494V10.8054H95.6611V14.6759Z" fill="white"/>
<path fill-rule="evenodd" clip-rule="evenodd" d="M84.1043 10.093L83.6026 9.89988L83.1009 9.70924V4.52673H80.7203V9.70172L81.6435 10.0855L81.7438 10.1482V14.5782C81.7576 14.6753 81.7487 14.7743 81.7176 14.8673C81.6866 14.9604 81.6343 15.0449 81.565 15.1143C81.4956 15.1836 81.4111 15.2359 81.318 15.2669C81.225 15.298 81.126 15.3069 81.0289 15.2931H78.2018C78.1049 15.3065 78.0062 15.2972 77.9135 15.266C77.8208 15.2347 77.7366 15.1824 77.6675 15.1131C77.5985 15.0438 77.5464 14.9594 77.5155 14.8666C77.4846 14.7738 77.4757 14.6751 77.4894 14.5782V10.1633L76.5212 9.79453V4.52673H75.1089V14.676C75.1089 15.544 75.3397 16.2087 75.8062 16.6828C76.2728 17.1569 76.9376 17.3802 77.798 17.3802H81.4127C82.2831 17.3802 82.9403 17.1469 83.4069 16.6828C83.8735 16.2187 84.1043 15.554 84.1043 14.676V10.093Z" fill="white"/>
</g>
<defs>
<clipPath id="clip0">
<rect width="96" height="17.8983" fill="white"/>
</clipPath>
</defs>
</svg>
