<svg width="171" height="109" viewBox="0 0 171 109" fill="none" xmlns="http://www.w3.org/2000/svg">
<mask id="path-1-inside-1" fill="white">
<path fill-rule="evenodd" clip-rule="evenodd" d="M162.633 4.96557C162.309 2.22316 159.824 0.262193 157.081 0.585635L5.13453 18.5064C2.39211 18.8298 0.431148 21.3152 0.754591 24.0576L8.36799 88.6102C8.69143 91.3526 11.1768 93.3136 13.9192 92.9901L165.866 75.0694C168.608 74.7459 170.569 72.2606 170.246 69.5182L168.869 57.8453C168.625 55.773 167.079 54.1362 165.218 53.1907C160.143 50.6108 156.299 45.1761 155.515 38.5302C154.731 31.8843 157.206 25.7043 161.541 22.0146C163.131 20.6622 164.254 18.7106 164.009 16.6383L162.633 4.96557Z"/>
</mask>
<path fill-rule="evenodd" clip-rule="evenodd" d="M162.633 4.96557C162.309 2.22316 159.824 0.262193 157.081 0.585635L5.13453 18.5064C2.39211 18.8298 0.431148 21.3152 0.754591 24.0576L8.36799 88.6102C8.69143 91.3526 11.1768 93.3136 13.9192 92.9901L165.866 75.0694C168.608 74.7459 170.569 72.2606 170.246 69.5182L168.869 57.8453C168.625 55.773 167.079 54.1362 165.218 53.1907C160.143 50.6108 156.299 45.1761 155.515 38.5302C154.731 31.8843 157.206 25.7043 161.541 22.0146C163.131 20.6622 164.254 18.7106 164.009 16.6383L162.633 4.96557Z" fill="#F8F8F8"/>
<path d="M161.541 22.0146L160.893 21.253L161.541 22.0146ZM164.009 16.6383L163.016 16.7555L164.009 16.6383ZM168.869 57.8453L169.862 57.7281L168.869 57.8453ZM165.218 53.1907L164.765 54.0821L165.218 53.1907ZM170.246 69.5182L169.253 69.6353L170.246 69.5182ZM162.633 4.96557L163.626 4.84844L162.633 4.96557ZM5.25166 19.4995L157.199 1.57875L156.964 -0.407482L5.0174 17.5133L5.25166 19.4995ZM9.3611 88.4931L1.74771 23.9405L-0.238526 24.1748L7.37487 88.7273L9.3611 88.4931ZM165.749 74.0763L13.8021 91.997L14.0363 93.9833L165.983 76.0625L165.749 74.0763ZM167.876 57.9624L169.253 69.6353L171.239 69.401L169.862 57.7281L167.876 57.9624ZM165.672 52.2993C160.916 49.8816 157.256 44.7509 156.508 38.4131L154.522 38.6473C155.342 45.6014 159.371 51.3401 164.765 54.0821L165.672 52.2993ZM156.508 38.4131C155.761 32.0753 158.127 26.2339 162.19 22.7761L160.893 21.253C156.285 25.1748 153.702 31.6933 154.522 38.6473L156.508 38.4131ZM161.639 5.0827L163.016 16.7555L165.002 16.5212L163.626 4.84844L161.639 5.0827ZM162.19 22.7761C163.932 21.2929 165.299 19.0386 165.002 16.5212L163.016 16.7555C163.208 18.3826 162.329 20.0315 160.893 21.253L162.19 22.7761ZM169.862 57.7281C169.566 55.2108 167.712 53.3363 165.672 52.2993L164.765 54.0821C166.445 54.9362 167.684 56.3353 167.876 57.9624L169.862 57.7281ZM165.983 76.0625C169.274 75.6744 171.627 72.6919 171.239 69.401L169.253 69.6353C169.512 71.8292 167.943 73.8175 165.749 74.0763L165.983 76.0625ZM7.37487 88.7273C7.763 92.0182 10.7455 94.3714 14.0363 93.9833L13.8021 91.997C11.6082 92.2558 9.61986 90.687 9.3611 88.4931L7.37487 88.7273ZM157.199 1.57875C159.392 1.32 161.381 2.88877 161.639 5.0827L163.626 4.84844C163.238 1.55754 160.255 -0.795614 156.964 -0.407482L157.199 1.57875ZM5.0174 17.5133C1.7265 17.9014 -0.626657 20.8839 -0.238526 24.1748L1.74771 23.9405C1.48895 21.7466 3.05773 19.7583 5.25166 19.4995L5.0174 17.5133Z" fill="black" mask="url(#path-1-inside-1)"/>
<line x1="114.874" y1="5.56351" x2="123.658" y2="80.0473" stroke="black"/>
<mask id="path-4-inside-2" fill="white">
<path fill-rule="evenodd" clip-rule="evenodd" d="M163 38.2878C163 35.5264 160.761 33.2878 158 33.2878H5C2.23858 33.2878 0 35.5264 0 38.2878V103.288C0 106.049 2.23858 108.288 5 108.288H158C160.761 108.288 163 106.049 163 103.288V91.534C163 89.4474 161.656 87.6408 159.919 86.4839C155.181 83.3273 152 77.4798 152 70.7878C152 64.0958 155.181 58.2482 159.919 55.0917C161.656 53.9347 163 52.1281 163 50.0415V38.2878Z"/>
</mask>
<path fill-rule="evenodd" clip-rule="evenodd" d="M163 38.2878C163 35.5264 160.761 33.2878 158 33.2878H5C2.23858 33.2878 0 35.5264 0 38.2878V103.288C0 106.049 2.23858 108.288 5 108.288H158C160.761 108.288 163 106.049 163 103.288V91.534C163 89.4474 161.656 87.6408 159.919 86.4839C155.181 83.3273 152 77.4798 152 70.7878C152 64.0958 155.181 58.2482 159.919 55.0917C161.656 53.9347 163 52.1281 163 50.0415V38.2878Z" fill="#F8F8F8"/>
<path d="M159.919 55.0917L160.474 55.9239L159.919 55.0917ZM5 34.2878H158V32.2878H5V34.2878ZM1 103.288V38.2878H-1V103.288H1ZM158 107.288H5V109.288H158V107.288ZM162 91.534V103.288H164V91.534H162ZM160.474 85.6517C156.034 82.6936 153 77.1695 153 70.7878H151C151 77.79 154.329 83.9611 159.365 87.3161L160.474 85.6517ZM153 70.7878C153 64.4061 156.034 58.882 160.474 55.9239L159.365 54.2594C154.329 57.6145 151 63.7855 151 70.7878H153ZM162 38.2878V50.0415H164V38.2878H162ZM160.474 55.9239C162.378 54.655 164 52.5763 164 50.0415H162C162 51.6799 160.933 53.2145 159.365 54.2594L160.474 55.9239ZM164 91.534C164 88.9992 162.378 86.9206 160.474 85.6517L159.365 87.3161C160.933 88.361 162 89.8956 162 91.534H164ZM158 109.288C161.314 109.288 164 106.602 164 103.288H162C162 105.497 160.209 107.288 158 107.288V109.288ZM-1 103.288C-1 106.602 1.6863 109.288 5 109.288V107.288C2.79086 107.288 1 105.497 1 103.288H-1ZM158 34.2878C160.209 34.2878 162 36.0787 162 38.2878H164C164 34.9741 161.314 32.2878 158 32.2878V34.2878ZM5 32.2878C1.68629 32.2878 -1 34.9741 -1 38.2878H1C1 36.0787 2.79086 34.2878 5 34.2878V32.2878Z" fill="black" mask="url(#path-4-inside-2)"/>
<line x1="115.5" y1="33.2878" x2="115.5" y2="108.288" stroke="black"/>
<path d="M60.816 81.2878L56.98 76.1078L53.116 81.2878H49.252L55.076 73.6998L49.504 66.3358H53.396L57.064 71.2358L60.732 66.3358H64.512L58.912 73.6438L64.764 81.2878H60.816ZM78.8581 70.9838C79.8847 71.4505 80.6687 72.0852 81.2101 72.8878C81.7701 73.6718 82.0501 74.5958 82.0501 75.6598C82.0501 76.8545 81.7141 77.8998 81.0421 78.7958C80.3887 79.6918 79.4554 80.3825 78.2421 80.8678C77.0287 81.3345 75.6194 81.5678 74.0141 81.5678C72.4087 81.5678 70.9994 81.3345 69.7861 80.8678C68.5914 80.3825 67.6674 79.6918 67.0141 78.7958C66.3607 77.8998 66.0341 76.8545 66.0341 75.6598C66.0341 74.5958 66.3047 73.6718 66.8461 72.8878C67.3874 72.0852 68.1621 71.4505 69.1701 70.9838C68.3861 70.5545 67.7794 69.9945 67.3501 69.3038C66.9394 68.5945 66.7341 67.7825 66.7341 66.8678C66.7341 65.7665 67.0327 64.8052 67.6301 63.9838C68.2461 63.1625 69.1047 62.5278 70.2061 62.0798C71.3074 61.6318 72.5767 61.4078 74.0141 61.4078C75.4701 61.4078 76.7487 61.6318 77.8501 62.0798C78.9514 62.5278 79.8101 63.1625 80.4261 63.9838C81.0421 64.8052 81.3501 65.7665 81.3501 66.8678C81.3501 67.7825 81.1354 68.5852 80.7061 69.2758C80.2767 69.9665 79.6607 70.5358 78.8581 70.9838ZM74.0141 64.2638C72.8754 64.2638 71.9701 64.5065 71.2981 64.9918C70.6447 65.4772 70.3181 66.1585 70.3181 67.0358C70.3181 67.8758 70.6447 68.5478 71.2981 69.0518C71.9701 69.5372 72.8754 69.7798 74.0141 69.7798C75.1714 69.7798 76.0861 69.5372 76.7581 69.0518C77.4301 68.5478 77.7661 67.8758 77.7661 67.0358C77.7661 66.1585 77.4207 65.4772 76.7301 64.9918C76.0581 64.5065 75.1527 64.2638 74.0141 64.2638ZM74.0141 78.7118C75.3581 78.7118 76.4221 78.4318 77.2061 77.8718C77.9901 77.3118 78.3821 76.5372 78.3821 75.5478C78.3821 74.5772 77.9901 73.8118 77.2061 73.2518C76.4221 72.6918 75.3581 72.4118 74.0141 72.4118C72.6701 72.4118 71.6154 72.6918 70.8501 73.2518C70.0847 73.8118 69.7021 74.5772 69.7021 75.5478C69.7021 76.5372 70.0847 77.3118 70.8501 77.8718C71.6154 78.4318 72.6701 78.7118 74.0141 78.7118Z" fill="black"/>
</svg>
