<svg width="50" height="50" viewBox="0 0 50 50" fill="none" xmlns="http://www.w3.org/2000/svg">
<mask id="path-1-inside-1" fill="white">
<path d="M50 25C50 38.8071 38.8071 50 25 50C11.1929 50 0 38.8071 0 25C0 11.1929 11.1929 0 25 0C38.8071 0 50 11.1929 50 25Z"/>
</mask>
<path d="M15.1286 24.3581C14.9347 24.1616 14.6181 24.1594 14.4215 24.3534C14.225 24.5473 14.2229 24.8639 14.4168 25.0605L15.1286 24.3581ZM22.9084 32.9545L22.5525 33.3057L22.9084 33.6664L23.2643 33.3057L22.9084 32.9545ZM36.7195 19.6694C36.9135 19.4728 36.9114 19.1562 36.7148 18.9623C36.5183 18.7683 36.2017 18.7704 36.0077 18.967L36.7195 19.6694ZM14.4168 25.0605L22.5525 33.3057L23.2643 32.6034L15.1286 24.3581L14.4168 25.0605ZM23.2643 33.3057L36.7195 19.6694L36.0077 18.967L22.5525 32.6034L23.2643 33.3057ZM49 25C49 38.2548 38.2548 49 25 49V51C39.3594 51 51 39.3594 51 25H49ZM25 49C11.7452 49 1 38.2548 1 25H-1C-1 39.3594 10.6406 51 25 51V49ZM1 25C1 11.7452 11.7452 1 25 1V-1C10.6406 -1 -1 10.6406 -1 25H1ZM25 1C38.2548 1 49 11.7452 49 25H51C51 10.6406 39.3594 -1 25 -1V1Z" fill="black" mask="url(#path-1-inside-1)"/>
</svg>
