<svg width="68" height="44" viewBox="0 0 68 44" fill="none" xmlns="http://www.w3.org/2000/svg">
<path d="M0.483887 39.3999H4.89837C6.80832 39.3999 8.17881 38.9544 9.03048 38.1008C9.88216 37.2472 10.3551 35.683 10.3551 33.4693C10.3551 31.1734 9.91889 29.6914 8.97768 28.8166C8.03648 27.9419 6.81062 27.6183 4.90066 27.6183H0.483887V39.3999ZM7.99975 33.4693C7.90104 36.8626 7.32484 37.409 4.65962 37.47H2.65095V29.5225H4.65962C6.03699 29.5225 6.70731 29.6445 7.26515 30.1909C7.82299 30.7373 7.99975 31.7011 7.99975 33.4693ZM15.8049 30.5239C13.2016 30.5239 11.8679 31.7433 11.8679 35.0545C11.8679 36.7406 12.226 37.9179 12.9216 38.6097C13.6171 39.3015 14.6525 39.6438 15.9656 39.6438C16.9647 39.6481 17.9581 39.4897 18.9085 39.1748L18.5711 37.5098C17.8048 37.7532 17.0068 37.8766 16.2043 37.8757C15.4284 37.8757 14.8522 37.7115 14.5331 37.4277C14.214 37.144 14.0372 36.5343 14.0166 35.6408H19.5261C19.5857 33.549 19.3677 32.2475 18.6928 31.5158C18.0178 30.7842 17.2006 30.5426 15.7888 30.5426L15.8049 30.5239ZM15.8852 32.1889C16.4974 32.1889 16.9152 32.3108 17.1386 32.5547C17.3682 32.7892 17.4967 33.2863 17.5151 34.0391H14.0648C14.2048 32.6157 14.6226 32.1889 15.9151 32.1889H15.8852ZM24.2367 37.2894C23.5801 34.8896 22.8846 32.7228 22.15 30.7889H20.0013C21.1034 33.6037 22.053 36.4784 22.8455 39.3999H25.3914C26.6425 36.2716 27.6572 33.4083 28.4331 30.7889H26.3441C25.768 32.9938 25.0713 35.1641 24.2573 37.2894H24.2367ZM34.6978 39.6345C38.3708 39.6345 40.1844 38.2532 40.1844 33.3778C40.1844 31.0023 39.7482 29.4381 38.807 28.5446C37.8658 27.6511 36.6193 27.3041 34.6909 27.3041C32.7626 27.3041 31.5482 27.6511 30.5588 28.5446C29.6038 29.4381 29.1814 31.0234 29.1814 33.3778C29.1814 35.7956 29.6199 37.3996 30.5588 38.3353C31.4977 39.271 32.7649 39.6157 34.6909 39.6157L34.6978 39.6345ZM31.5345 33.42C31.5345 31.5909 31.6538 30.6364 32.1703 30.0478C32.6869 29.4592 33.3641 29.3161 34.7162 29.3161C36.0683 29.3161 36.7249 29.4381 37.2414 30.0478C37.7579 30.6575 37.8979 31.5909 37.8979 33.42C37.8979 36.9939 37.2414 37.6247 34.7368 37.6247C32.2323 37.6247 31.5758 36.9939 31.5758 33.42H31.5345ZM45.7673 39.6345C47.1791 39.6345 48.2144 39.2897 48.8503 38.6401C49.4862 37.9906 49.8053 36.75 49.8053 35.0451C49.8053 33.3403 49.4862 32.1795 48.8503 31.5275C48.2144 30.8756 47.1791 30.5332 45.7673 30.5332C44.3555 30.5332 43.3615 30.878 42.7256 31.5275C42.0897 32.1771 41.7706 33.3567 41.7706 35.0451C41.7706 36.7336 42.0897 37.9483 42.7256 38.6401C43.3615 39.3319 44.3762 39.6345 45.788 39.6345H45.7673ZM45.7673 32.2217C47.3191 32.2616 47.6382 32.5875 47.6979 35.085C47.6979 36.2576 47.5579 37.015 47.2985 37.3808C47.0391 37.7467 46.5226 37.9483 45.7673 37.9483C45.012 37.9483 44.5162 37.7654 44.2568 37.3808C43.9974 36.9963 43.878 36.2435 43.878 35.085C43.878 33.8867 44.018 33.1152 44.2568 32.7704C44.4955 32.4257 45.0189 32.2311 45.7811 32.2311L45.7673 32.2217ZM55.7096 39.6345C56.924 39.6345 57.8377 39.2897 58.4644 38.619C59.0911 37.9484 59.3987 36.743 59.3987 35.085C59.3987 33.3778 59.0796 32.1795 58.4437 31.5299C57.8078 30.8803 56.7932 30.5356 55.3423 30.5356C54.0799 30.5039 52.8236 30.7245 51.6441 31.1852V42.6619H53.6918V39.1443C54.3216 39.4705 55.0173 39.6416 55.7234 39.6438L55.7096 39.6345ZM55.3492 32.353C56.1045 32.353 56.6003 32.5359 56.8804 32.8994C57.1605 33.2629 57.2982 33.9969 57.2982 35.1554C57.2982 36.2106 57.1582 36.9236 56.8804 37.3081C56.6026 37.6927 56.1045 37.878 55.3676 37.878C54.4333 37.878 53.717 37.5309 53.717 37.0455V32.6157C54.2481 32.4307 54.8066 32.3418 55.3676 32.353H55.3492ZM67.2865 31.0116C66.3706 30.6942 65.4092 30.5357 64.4422 30.5426C62.1167 30.5426 60.8243 31.3141 60.8243 33.4059C60.8243 35.0921 61.6989 35.7018 63.6686 35.8636C65.0804 36.0066 65.4775 36.2693 65.4775 36.9001C65.4775 37.7725 65.0184 37.9554 63.827 37.9554C62.9745 37.964 62.1265 37.8277 61.3178 37.552L60.8817 39.217C61.8556 39.5462 62.877 39.7048 63.9027 39.686C65.0781 39.686 65.9688 39.4515 66.5886 39.0341C67.2084 38.6167 67.5229 37.8616 67.5229 36.8016C67.5229 35.1155 66.6873 34.4237 64.5799 34.2009C63.2025 34.0579 62.8307 33.8562 62.8307 33.2629C62.8307 32.4304 63.2278 32.2686 64.3618 32.2686C65.1925 32.2734 66.0173 32.4103 66.8067 32.6743L67.2658 31.0327L67.2865 31.0116Z" fill="white"/>
<path d="M49.0638 13.8105C48.0009 13.8124 46.9623 14.1359 46.0793 14.7403C45.1962 15.3446 44.5082 16.2027 44.1022 17.2062C43.6962 18.2097 43.5903 19.3135 43.798 20.3784C44.0056 21.4433 44.5175 22.4215 45.2689 23.1894C46.0203 23.9574 46.9777 24.4806 48.02 24.6932C49.0623 24.9058 50.143 24.7981 51.1255 24.3838C52.1079 23.9694 52.9482 23.267 53.5402 22.3652C54.1322 21.4634 54.4493 20.4026 54.4516 19.3168C54.4504 17.8572 53.8824 16.4578 52.8723 15.4255C51.8623 14.3932 50.4926 13.8124 49.0638 13.8105ZM49.0638 22.7218C48.399 22.7223 47.749 22.5213 47.196 22.1444C46.643 21.7674 46.2119 21.2314 45.9572 20.6041C45.7025 19.9768 45.6356 19.2864 45.765 18.6203C45.8944 17.9542 46.2143 17.3422 46.6842 16.8618C47.1542 16.3815 47.753 16.0543 48.405 15.9216C49.057 15.7889 49.7328 15.8568 50.3471 16.1166C50.9613 16.3763 51.4863 16.8164 51.8557 17.381C52.2251 17.9456 52.4223 18.6095 52.4223 19.2886C52.4199 20.198 52.0653 21.0695 51.4361 21.7127C50.8068 22.3559 49.954 22.7187 49.0638 22.7218Z" fill="white"/>
<path d="M20.9448 13.8105C19.882 13.8129 18.8437 14.1368 17.9609 14.7414C17.0782 15.3461 16.3905 16.2043 15.9849 17.2078C15.5792 18.2113 15.4736 19.3151 15.6815 20.3798C15.8895 21.4446 16.4015 22.4225 17.153 23.1902C17.9045 23.9579 18.8619 24.481 19.9041 24.6934C20.9464 24.9058 22.0269 24.7979 23.0093 24.3835C23.9916 23.9691 24.8318 23.2667 25.4237 22.3649C26.0155 21.4632 26.3326 20.4025 26.3349 19.3168C26.3343 17.8566 25.7662 16.4565 24.7555 15.424C23.7448 14.3915 22.3742 13.8112 20.9448 13.8105ZM20.9448 22.7218C20.2801 22.7218 19.6303 22.5205 19.0776 22.1432C18.525 21.766 18.0942 21.2298 17.8398 20.6024C17.5855 19.9751 17.5189 19.2848 17.6486 18.6188C17.7783 17.9529 18.0983 17.3411 18.5684 16.861C19.0384 16.3809 19.6372 16.0539 20.2891 15.9214C20.9411 15.7889 21.6168 15.8569 22.2309 16.1168C22.845 16.3766 23.3699 16.8167 23.7392 17.3813C24.1085 17.9458 24.3056 18.6096 24.3056 19.2886C24.3026 20.1982 23.9475 21.0697 23.3179 21.7128C22.6883 22.356 21.8352 22.7187 20.9448 22.7218Z" fill="white"/>
<path d="M23.6695 13.7238L23.5708 11.9181H46.3388L46.4168 13.7238H23.6695Z" fill="white"/>
<path d="M44.5298 10.6165L45.7625 9.25635L48.0283 15.044L46.3181 15.5927L44.5298 10.6165Z" fill="white"/>
<path d="M25.4601 10.6165L24.2274 9.25635L21.98 15.044L23.6696 15.5927L25.4601 10.6165Z" fill="white"/>
<path d="M46.1003 8.41688C44.4497 10.1429 42.1816 9.20717 41.6261 7.29828C41.408 6.68856 41.5664 6.06008 41.5274 5.5512C41.7522 5.57517 41.9791 5.56887 42.2023 5.53244C42.6954 5.44857 43.153 5.21709 43.5172 4.86732C43.8814 4.51755 44.1358 4.06524 44.2481 3.56767C44.3605 3.0701 44.3257 2.54966 44.1483 2.07227C43.9709 1.59489 43.6587 1.18203 43.2514 0.886011C42.8441 0.589989 42.36 0.424114 41.8603 0.409397C41.3607 0.394681 40.868 0.531786 40.4446 0.803344C40.0213 1.0749 39.6864 1.4687 39.4824 1.93484C39.2783 2.40099 39.2143 2.91852 39.2983 3.42188C39.3834 3.91517 39.6048 4.3733 39.9365 4.74216C38.0059 6.06243 34.0689 10.9777 36.2773 13.2125C37.9669 14.9198 42.5214 17.1734 39.319 21.2163C39.0022 21.622 40.3337 21.9878 40.7308 21.5399C41.6572 20.4847 42.2284 19.1541 42.3607 17.7432C42.5903 15.9539 41.128 14.167 40.1936 12.8467C39.5968 12.0142 40.3727 9.16965 41.1693 9.81923C42.4801 11.1395 44.4291 11.5053 45.6618 9.81923C46.0199 9.65742 46.4768 8.11437 46.1003 8.39812V8.41688Z" fill="white"/>
<path d="M23.8994 8.41688C25.5499 10.1429 27.8157 9.20717 28.3736 7.29828C28.5916 6.68856 28.4332 6.06009 28.4723 5.55121C28.2475 5.57518 28.0206 5.56887 27.7974 5.53244C27.2427 5.43859 26.7345 5.1583 26.3534 4.736C25.9723 4.3137 25.74 3.77354 25.6935 3.20114C25.6469 2.62873 25.7887 2.05683 26.0963 1.57607C26.404 1.0953 26.8599 0.733179 27.3919 0.547092C27.9238 0.361005 28.5013 0.361599 29.0329 0.548779C29.5645 0.735958 30.0197 1.09901 30.3264 1.58041C30.6331 2.06181 30.7737 2.634 30.7261 3.20631C30.6784 3.77861 30.4451 4.31829 30.0631 4.73981C31.9915 6.06009 35.9307 10.9754 33.7223 13.2102C32.0328 14.9174 27.4783 17.171 30.6807 21.2139C30.9974 21.6196 29.666 21.9855 29.2689 21.5376C28.3418 20.4826 27.7698 19.152 27.6367 17.7409C27.4186 15.9516 28.8717 14.1647 29.806 12.8444C30.4006 12.0119 29.627 9.16731 28.8304 9.81689C27.5173 11.1372 25.5706 11.503 24.3379 9.81689C23.9797 9.65508 23.5206 8.11202 23.8994 8.39578V8.41688Z" fill="white"/>
<path d="M41.844 21.1389H39.1008C38.8827 21.1389 38.7036 21.3734 38.7036 21.6877C38.7036 21.9925 38.8827 22.2364 39.1008 22.2364H41.844C42.0736 22.2364 42.2412 22.0019 42.2412 21.6877C42.2412 21.3828 42.0621 21.1389 41.844 21.1389Z" fill="white"/>
<path d="M30.9674 21.1389H28.2241C27.9946 21.1389 27.8247 21.3734 27.8247 21.6877C27.8247 21.9925 28.0038 22.2364 28.2241 22.2364H30.9674C31.197 22.2364 31.3646 22.0019 31.3646 21.6877C31.3646 21.3828 31.1855 21.1389 30.9674 21.1389Z" fill="white"/>
<path d="M38.2654 17.2601H31.7642C31.6354 17.2749 31.5174 17.3406 31.4354 17.4432C31.3535 17.5458 31.3141 17.677 31.3257 17.8089C31.3147 17.9404 31.3544 18.071 31.4363 18.1731C31.5182 18.2751 31.6358 18.3405 31.7642 18.3553H38.2654C38.3937 18.3405 38.5114 18.2751 38.5933 18.1731C38.6751 18.071 38.7148 17.9404 38.7038 17.8089C38.7155 17.677 38.6761 17.5458 38.5941 17.4432C38.5122 17.3406 38.3942 17.2749 38.2654 17.2601Z" fill="white"/>
<path d="M30.3271 21.4226C30.8046 19.6357 30.8827 19.3308 31.3418 17.5439C31.3666 17.4867 31.4023 17.4352 31.4468 17.3924C31.4913 17.3495 31.5438 17.3162 31.6011 17.2944C31.6584 17.2725 31.7194 17.2626 31.7805 17.2652C31.8417 17.2677 31.9017 17.2828 31.957 17.3094C32.2348 17.3915 32.4345 17.6353 32.3748 17.837L31.3602 21.7181C31.3073 21.831 31.2136 21.9185 31.0989 21.9622C30.9841 22.006 30.8572 22.0025 30.7449 21.9526C30.4695 21.8705 30.272 21.6267 30.3271 21.4226Z" fill="white"/>
<path d="M39.7756 21.5258C39.2981 19.7365 39.22 19.434 38.7632 17.6447C38.7099 17.5317 38.6158 17.4441 38.5007 17.4004C38.3856 17.3567 38.2583 17.3602 38.1457 17.4102C37.8679 17.4923 37.6682 17.7362 37.7279 17.9402L38.7425 21.8189C38.7673 21.8761 38.803 21.9276 38.8475 21.9704C38.8921 22.0133 38.9445 22.0466 39.0018 22.0685C39.0592 22.0903 39.1202 22.1002 39.1813 22.0977C39.2424 22.0951 39.3024 22.0801 39.3578 22.0535C39.6378 21.9714 39.8353 21.7275 39.7756 21.5258Z" fill="white"/>
</svg>
