<svg width="22" height="13" viewBox="0 0 22 13" fill="none" xmlns="http://www.w3.org/2000/svg">
<path d="M12.3651 12.6001C12.8936 12.6001 13.1097 12.2377 13.1036 11.7834C13.0767 10.0722 13.7233 9.15098 14.8905 10.3516C16.1818 11.6798 16.4491 12.6001 18.0173 12.6001H20.7943C21.4955 12.6001 21.7714 12.3681 21.7714 12.0039C21.7714 11.2335 20.5383 9.87402 19.4934 8.87604C18.0303 7.47906 17.9617 7.44603 19.2218 5.7643C20.7847 3.67641 22.8293 1.00116 21.0208 1.00116H17.566C16.896 1.00116 16.8474 1.38946 16.6088 1.96789C15.7453 4.06292 14.1042 6.77655 13.4812 6.36147C12.8294 5.92854 13.1279 4.21378 13.1774 1.66529C13.1904 0.992235 13.187 0.53074 12.1872 0.291512C11.6414 0.162079 11.1103 0.108521 10.6173 0.108521C8.64478 0.108521 7.28404 0.959208 8.05727 1.10739C9.42062 1.36893 9.28957 4.40302 8.97195 5.71342C8.41828 7.99501 6.33725 3.90671 5.47029 1.87059C5.26115 1.38143 5.19693 1.00116 4.4506 1.00116H1.62585C1.19888 1.00116 0.942871 1.14398 0.942871 1.46176C0.942871 1.99913 3.51162 7.46031 5.96408 10.1829C8.3558 12.8385 10.7197 12.6001 12.3651 12.6001Z" fill="#5B5B5B"/>
</svg>
