<svg width="1682" height="330" viewBox="0 0 1682 330" fill="none" xmlns="http://www.w3.org/2000/svg">
<g clip-path="url(#clip0)">
<path d="M128 141L76.1001 230.82L146.39 228.81L197.12 141H128Z" fill="black"/>
<path d="M1537.86 141L1592.75 172.67L1557.89 233H1682V141H1537.86Z" fill="black"/>
<path d="M1296.84 141L1291.11 150.91L1357.1 188.98L1331.66 233H1400.79L1453.94 141H1296.84Z" fill="black"/>
<path d="M756.4 141L703.25 233H772.37L825.53 141H756.4Z" fill="black"/>
<path d="M1070.61 141L1017.45 233H1086.59L1139.74 141H1070.61Z" fill="black"/>
<path d="M442.2 141L402.13 210.36L465.21 220.81L511.32 141H442.2Z" fill="black"/>
<path d="M592.79 0L511.32 141L465.21 220.81L451.54 244.47L532.98 255.8L680.77 0H592.79Z" fill="white"/>
<path d="M1537.86 141L1474.92 104.69L1453.94 141L1400.79 233L1370.63 285.19L1451.95 296.72L1474.92 256.96L1526.76 286.87L1557.89 233L1592.75 172.67L1537.86 141Z" fill="white"/>
<path d="M0 0V90.62L52.36 0H0Z" fill="white"/>
<path d="M1064.09 0H1029.53L1055.45 14.96L1064.09 0Z" fill="white"/>
<path d="M906.99 0L825.53 141L772.37 233L742.38 284.92L823.81 296.24L994.97 0H906.99Z" fill="white"/>
<path d="M1682 329.33V290.09L1661.05 326.36L1682 329.33Z" fill="white"/>
<path d="M278.59 0L197.12 141L146.39 228.81L89.4502 327.36L91.1202 328.33L201.28 286.07L366.56 0H278.59Z" fill="white"/>
<path d="M1291.11 150.91L1296.84 141L1357.1 36.71L1293.47 0H1221.2L1139.74 141L1086.59 233L1033.22 325.37L1061.74 329.33L1146.69 281.25L1239.27 121L1291.11 150.91Z" fill="white"/>
<path d="M837.87 0H680.77L532.98 255.8L678.39 276.02L703.25 233L756.4 141L837.87 0Z" fill="#FFCC00"/>
<path d="M1451.95 296.72L1573.77 313.99L1526.76 286.87L1474.92 256.96L1451.95 296.72Z" fill="#FFCC00"/>
<path d="M209.46 0H52.36L0 90.62V141V233L20.5 280.5L39.51 294.15L76.1 230.82L128 141L209.46 0Z" fill="#FFCC00"/>
<path d="M1121.44 53.02L1055.45 14.96L1029.53 0H994.97L823.81 296.24L969.23 316.47L1017.45 233L1070.61 141L1121.44 53.02Z" fill="#FFCC00"/>
<path d="M523.66 0H366.56L201.28 286.07L347.46 230L387.56 235.58L402.13 210.36L442.2 141L523.66 0Z" fill="#FFCC00"/>
<path d="M1291.11 150.91L1239.27 121L1146.69 281.25L1185.96 259.02L1306.74 276.14L1331.66 233L1357.1 188.98L1291.11 150.91Z" fill="#FFCC00"/>
</g>
<defs>
<clipPath id="clip0">
<rect width="1682" height="329.33" fill="white"/>
</clipPath>
</defs>
</svg>
